<?xml version="1.0" encoding="UTF-8"?>
<svg id="Capa_1" xmlns="http://www.w3.org/2000/svg" xmlns:xlink="http://www.w3.org/1999/xlink" version="1.1" viewBox="0 0 600 600">
  <!-- Generator: Adobe Illustrator 30.3.0, SVG Export Plug-In . SVG Version: 2.1.3 Build 182)  -->
  <defs>
    <style>
      .st0 {
        fill: none;
      }

      .st1 {
        fill: url(#linear-gradient);
      }

      .st2 {
        clip-path: url(#clippath);
      }
    </style>
    <clipPath id="clippath">
      <rect class="st0" x="107.6" y="127.6" width="385.5" height="345.4"/>
    </clipPath>
    <linearGradient id="linear-gradient" x1="139.8" y1="-7570.7" x2="456.8" y2="-7214.1" gradientTransform="translate(0 -7089.8) scale(1 -1)" gradientUnits="userSpaceOnUse">
      <stop offset="0" stop-color="#9945ff"/>
      <stop offset=".3" stop-color="#8752f3"/>
      <stop offset=".5" stop-color="#5497d5"/>
      <stop offset=".6" stop-color="#43b4ca"/>
      <stop offset=".7" stop-color="#28e0b9"/>
      <stop offset="1" stop-color="#19fb9b"/>
    </linearGradient>
  </defs>
  <circle cx="300.3" cy="300.3" r="300.1"/>
  <g class="st2">
    <path class="st1" d="M491.1,399.9l-63.6,68.4c-1.4,1.5-3.1,2.7-4.9,3.5-1.9.8-3.9,1.2-5.9,1.2H115c-1.4,0-2.8-.4-4.1-1.2-1.2-.8-2.2-1.9-2.7-3.2-.6-1.3-.7-2.8-.5-4.2.2-1.4.9-2.7,1.9-3.8l63.7-68.4c1.4-1.5,3-2.7,4.9-3.5,1.9-.8,3.9-1.2,5.9-1.2h301.6c1.4,0,2.8.4,4.1,1.2,1.2.8,2.2,1.9,2.7,3.2.6,1.3.7,2.8.5,4.2-.2,1.4-.9,2.7-1.9,3.8ZM427.4,262.2c-1.4-1.5-3.1-2.7-4.9-3.5-1.9-.8-3.9-1.2-5.9-1.2H115c-1.4,0-2.8.4-4.1,1.2-1.2.8-2.2,1.9-2.7,3.2-.6,1.3-.7,2.8-.5,4.2.2,1.4.9,2.7,1.9,3.8l63.7,68.4c1.4,1.5,3,2.7,4.9,3.5,1.9.8,3.9,1.2,5.9,1.2h301.6c1.4,0,2.8-.4,4.1-1.2,1.2-.8,2.2-1.9,2.7-3.2.6-1.3.7-2.8.5-4.2-.2-1.4-.9-2.7-1.9-3.8l-63.6-68.4ZM115,213.1h301.6c2,0,4-.4,5.9-1.2,1.9-.8,3.5-2,4.9-3.5l63.6-68.4c1-1.1,1.6-2.4,1.9-3.8.2-1.4,0-2.9-.5-4.2-.6-1.3-1.5-2.4-2.7-3.2-1.2-.8-2.6-1.2-4.1-1.2H184c-2,0-4,.4-5.9,1.2-1.9.8-3.5,2-4.9,3.5l-63.7,68.4c-1,1.1-1.6,2.4-1.9,3.8-.2,1.4,0,2.9.5,4.2.6,1.3,1.5,2.4,2.7,3.2,1.2.8,2.6,1.2,4,1.2Z"/>
  </g>
  <metadata>
    <sfw xmlns="http://ns.adobe.com/SaveForWeb/1.0/">
      <slices/>
      <sliceSourceBounds x="-971.7" y="-8228.72" width="5853.97" height="3446.46" bottomLeftOrigin="true"/>
    </sfw>
  </metadata>
</svg>