<?xml version="1.0" encoding="UTF-8"?>
<svg id="Capa_1" xmlns="http://www.w3.org/2000/svg" version="1.1" viewBox="0 0 600 600">
  <!-- Generator: Adobe Illustrator 30.3.0, SVG Export Plug-In . SVG Version: 2.1.3 Build 182)  -->
  <defs>
    <style>
      .st0 {
        fill: #3c2bc5;
      }

      .st1 {
        fill: #fff;
      }
    </style>
  </defs>
  <path class="st0" d="M423.7,342c-18.1,0-34.7-6-47.8-16.3l109.3-109.3c10.3,13.3,16.3,29.9,16.3,47.8,0,43.2-34.9,78.1-77.9,77.8Z"/>
  <g>
    <path class="st0" d="M299.9.8c-85.5,0-162.4,35.8-217.1,93-7.3,7.8-14.5,16.1-21.1,24.6l238,237.9,238-238.1c-6-8.3-13.1-16.8-20.7-24.3C462.6,36.6,385.4.8,299.9.8Z"/>
    <path class="st1" d="M105.3,116.6c.3-.3.6-.6.9-1,51.1-53.4,120-82.9,193.8-82.9s142.9,29.5,193.9,83.1l.5.5-194.6,194.7L105.3,116.6Z"/>
    <path class="st0" d="M224.1,325.9l-109.3-109.3c-10.3,13.1-16.3,29.6-16.3,47.8-.2,42.9,34.7,77.8,77.9,77.8s34.5-6,47.8-16.3Z"/>
    <path class="st0" d="M534,264.6c0,60.9-49.4,110.2-110.3,110.2s-51.5-9.6-70.7-25.7l-53.1,53-53.1-53c-19.3,16.1-43.6,25.7-70.7,25.7-60.9,0-110.3-49.4-110.3-110.2s9.6-51.4,25.7-70.7l-24.8-24.8-23.7-23.7C15.6,190.9-.3,243.9-.3,300.9c0,165.8,134.4,299.9,300,299.9s300-134.3,300-299.9c.5-57.2-15.4-110.2-43-155.5l-48.5,48.5c16.1,19.3,25.7,43.6,25.7,70.7Z"/>
  </g>
  <metadata>
    <sfw xmlns="http://ns.adobe.com/SaveForWeb/1.0/">
      <slices/>
      <sliceSourceBounds x="-971.7" y="-8228.72" width="5853.97" height="3446.46" bottomLeftOrigin="true"/>
    </sfw>
  </metadata>
</svg>