<?xml version="1.0" encoding="UTF-8"?>
<svg id="Capa_1" xmlns="http://www.w3.org/2000/svg" version="1.1" viewBox="0 0 600 600">
  <!-- Generator: Adobe Illustrator 30.3.0, SVG Export Plug-In . SVG Version: 2.1.3 Build 182)  -->
  <defs>
    <style>
      .st0 {
        fill: #255b9b;
      }

      .st1 {
        fill: #fff;
      }
    </style>
  </defs>
  <circle class="st0" cx="300.3" cy="300.3" r="300.1"/>
  <circle class="st1" cx="300.3" cy="300.3" r="247.8"/>
  <path class="st0" d="M413.4,402.5l-11.5,39.6c-1.1,4-4.6,6.3-8.6,6.3h-202.1l33.9-115.4-37.9,11.5,8.6-26.4,37.9-11.5,47.7-161.9c1.1-4,4.6-6.3,8.6-6.3h51.1c4,0,6.9,2.9,6.9,6.9v1.7l-40.2,136.6,37.9-11.5-8,27.6-38.5,10.9-24.7,83.3h132.1c4,0,6.9,2.9,6.9,6.9v1.7Z"/>
  <metadata>
    <sfw xmlns="http://ns.adobe.com/SaveForWeb/1.0/">
      <slices/>
      <sliceSourceBounds x="-971.7" y="-8228.72" width="5853.97" height="3446.46" bottomLeftOrigin="true"/>
    </sfw>
  </metadata>
</svg>