<?xml version="1.0" encoding="UTF-8"?>
<svg id="Capa_1" xmlns="http://www.w3.org/2000/svg" xmlns:xlink="http://www.w3.org/1999/xlink" version="1.1" viewBox="0 0 600 600">
  <!-- Generator: Adobe Illustrator 30.3.0, SVG Export Plug-In . SVG Version: 2.1.3 Build 182)  -->
  <defs>
    <style>
      .st0 {
        fill: #374e8c;
      }

      .st1 {
        filter: url(#drop-shadow-1);
      }

      .st2 {
        opacity: .2;
      }

      .st2, .st3, .st4 {
        fill: #fff;
      }

      .st3 {
        opacity: .6;
      }
    </style>
    <filter id="drop-shadow-1" x="51.4" y="-44" width="494.9" height="699.4" filterUnits="userSpaceOnUse">
      <feOffset dx="-2" dy="7"/>
      <feGaussianBlur result="blur" stdDeviation="31"/>
      <feFlood flood-color="#fff" flood-opacity=".3"/>
      <feComposite in2="blur" operator="in"/>
      <feComposite in="SourceGraphic"/>
    </filter>
  </defs>
  <path class="st0" d="M300.1,599.5c166.4,0,300.3-133.9,300.3-300.3S466.5-1,300.1-1-.2,132.9-.2,299.3s133.9,300.3,300.3,300.3Z"/>
  <g class="st1">
    <g>
      <polygon class="st3" points="300.6 43.5 300.6 232.2 453.5 303.5 300.6 43.5"/>
      <path class="st4" d="M453.5,304.5c-.1,0-.3,0-.4,0l-152.9-71.3c-.4-.2-.6-.5-.6-.9V43.5c0-.5.3-.9.8-1,.4-.1.9,0,1.1.5l152.9,260c.2.4.2.9-.1,1.2-.2.2-.5.3-.8.3ZM301.6,231.6l149.4,69.6L301.6,47.3v184.3Z"/>
    </g>
    <g>
      <path class="st4" d="M300.6,43.5l-153,260,153-71.3V43.5Z"/>
      <path class="st4" d="M147.6,304.5c-.3,0-.6-.1-.8-.3-.3-.3-.4-.8-.1-1.2L299.7,43c.2-.4.7-.6,1.1-.5.4.1.8.5.8,1v188.7c0,.4-.2.8-.6.9l-153,71.3c-.1,0-.3,0-.4,0ZM299.5,47.3l-149.4,253.9,149.4-69.6V47.3Z"/>
    </g>
    <g>
      <polygon class="st3" points="300.6 425.8 300.6 554.1 453.6 333.2 300.6 425.8"/>
      <path class="st4" d="M300.6,555.1c-.1,0-.2,0-.3,0-.4-.1-.7-.5-.7-1v-128.2c0-.4.2-.7.5-.9l153-92.6c.4-.2.9-.2,1.3.2.3.4.4.9,0,1.3l-153,220.8c-.2.3-.5.4-.8.4ZM301.6,426.4v124.4l148.5-214.2-148.5,89.8Z"/>
    </g>
    <g>
      <path class="st4" d="M300.6,554.1v-128.3l-153-92.6,153,220.8Z"/>
      <path class="st4" d="M300.6,555.1c-.3,0-.6-.2-.8-.4l-153-220.8c-.3-.4-.2-.9,0-1.3.3-.4.9-.4,1.3-.2l153,92.6c.3.2.5.5.5.9v128.3c0,.4-.3.8-.7,1-.1,0-.2,0-.3,0ZM151.2,336.6l148.4,214.2v-124.4l-148.4-89.8Z"/>
    </g>
    <g>
      <polygon class="st2" points="300.6 396.1 453.5 303.5 300.6 232.3 300.6 396.1"/>
      <path class="st4" d="M300.6,397.2c-.2,0-.3,0-.5-.1-.3-.2-.5-.5-.5-.9v-163.9c0-.3.2-.7.5-.9.3-.2.7-.2,1,0l152.9,71.2c.3.2.6.5.6.9,0,.4-.2.7-.5.9l-152.9,92.6c-.2,0-.3.1-.5.1ZM301.6,233.9v160.4l149.8-90.7-149.8-69.8Z"/>
    </g>
    <g>
      <polygon class="st3" points="147.6 303.5 300.6 396.1 300.6 232.3 147.6 303.5"/>
      <path class="st4" d="M300.6,397.2c-.2,0-.4,0-.5-.1l-153-92.6c-.3-.2-.5-.6-.5-.9,0-.4.2-.7.6-.9l153-71.2c.3-.1.7-.1,1,0,.3.2.5.5.5.9v163.9c0,.4-.2.7-.5.9-.2,0-.3.1-.5.1ZM149.8,303.6l149.8,90.7v-160.4l-149.8,69.8Z"/>
    </g>
  </g>
  <metadata>
    <sfw xmlns="http://ns.adobe.com/SaveForWeb/1.0/">
      <slices/>
      <sliceSourceBounds x="-971.7" y="-8228.72" width="5853.97" height="3446.46" bottomLeftOrigin="true"/>
    </sfw>
  </metadata>
</svg>