<?xml version="1.0" encoding="UTF-8"?>
<svg id="Capa_1" xmlns="http://www.w3.org/2000/svg" version="1.1" viewBox="0 0 600 600">
  <!-- Generator: Adobe Illustrator 30.3.0, SVG Export Plug-In . SVG Version: 2.1.3 Build 182)  -->
  <defs>
    <style>
      .st0 {
        fill: #ffeeda;
      }

      .st1 {
        fill: #ebc28e;
      }

      .st2 {
        fill: #101010;
      }
    </style>
  </defs>
  <circle class="st0" cx="300.3" cy="300.3" r="300.1"/>
  <g>
    <path class="st0" d="M451.6,362.3v-204.6c-.3-17.2-13.9-30.9-31.1-30.9h-213.5c-46.1.7-83.1,38.4-83.1,84.6s4.2,28.9,10.5,40.7c5.4,9.7,13.9,18.9,22.3,25.8,2.4,1.9,1.2,1.1,8.5,5.5,10,6.1,21.5,9.2,21.5,9.2v122.4c.1,5.8.7,11.4,2.3,16.6,4.7,17.3,16.8,30.5,33,36.9,6.8,2.7,14.5,4.5,22.7,4.6l170.5.5c33.9,0,61.5-27.6,61.5-61.6.1-20.3-10-38.4-25.1-49.7Z"/>
    <path class="st1" d="M455.8,413.5c-.7,21.8-18.6,39.3-40.7,39.3l-117.3-.4c9.3-10.8,15-24.9,15-40.3,0-24.1-14.3-40.7-14.3-40.7h116.8c22.4,0,40.7,18.2,40.7,40.7v1.4Z"/>
    <path class="st2" d="M168,260.5c-13.5-12.8-23-29.3-23-49.1v-2c1.1-33.5,28.6-60.5,62.2-61.5h213.5c5.5.3,10,4.2,10,9.9v180.7c4.9.8,7.3,1.5,12,3.2,3.8,1.4,8.9,4.3,8.9,4.3v-188.2c-.3-17.2-13.9-30.9-31.1-30.9h-213.5c-46.1.7-83.1,38.4-83.1,84.6s12.3,49.9,32.3,65.9c1.4,1.1,2.7,2.6,6.2,2.6,6.2,0,10.7-5,10.4-10.4,0-4.6-2-6.2-4.9-9.1Z"/>
    <path class="st2" d="M415.1,350.4h-167.4c-11.2.1-20.3,9.2-20.3,20.4v24.1c.3,11.1,9.7,20.5,21.1,20.5h12.4v-20.5h-12.6v-23.5h6.8c21.2,0,36.8,19.6,36.8,40.7s-17,42.4-45.4,40.5c-25.1-1.6-38.8-24.1-38.8-40.5v-204.1c0-9.2-7.6-16.8-16.8-16.8h-16.8v20.9h12.4v200c-.7,40.7,28.9,61.1,59.9,61.1l168.8.5c33.9,0,61.5-27.6,61.5-61.6.1-34.1-27.6-61.8-61.6-61.8ZM455.8,413.5c-.7,21.8-18.6,39.3-40.7,39.3l-117.3-.4c9.3-10.8,15-24.9,15-40.3,0-24.1-14.3-40.7-14.3-40.7h116.8c22.4,0,40.7,18.2,40.7,40.7v1.4Z"/>
    <path class="st2" d="M370,215.9h-126.2v-20.9h126.2c5.7,0,10.4,4.6,10.4,10.4.1,5.8-4.5,10.5-10.4,10.5Z"/>
    <path class="st2" d="M370,314.2h-126.2v-20.8h126.2c5.7,0,10.4,4.6,10.4,10.4.1,5.7-4.5,10.4-10.4,10.4Z"/>
    <path class="st2" d="M392.3,265h-148.5v-20.9h148.4c5.7,0,10.4,4.6,10.4,10.4.3,5.8-4.5,10.5-10.3,10.5Z"/>
  </g>
  <metadata>
    <sfw xmlns="http://ns.adobe.com/SaveForWeb/1.0/">
      <slices/>
      <sliceSourceBounds x="-971.7" y="-8228.72" width="5853.97" height="3446.46" bottomLeftOrigin="true"/>
    </sfw>
  </metadata>
</svg>