<?xml version="1.0" encoding="UTF-8"?>
<svg id="Capa_1" xmlns="http://www.w3.org/2000/svg" version="1.1" viewBox="0 0 600 600">
  <!-- Generator: Adobe Illustrator 30.3.0, SVG Export Plug-In . SVG Version: 2.1.3 Build 182)  -->
  <defs>
    <style>
      .st0 {
        fill: #f0b90b;
      }
    </style>
  </defs>
  <circle cx="300.3" cy="300.3" r="300.1"/>
  <path class="st0" d="M216.3,189.5l84-48.9,84,48.9-30.9,18.1-53.1-30.8-53.1,30.8-30.9-18.1ZM384.4,251.2l-30.9-18.1-53.1,30.8-53.1-30.8-30.9,18.1v36.1l53.1,30.8v61.7l30.9,18.1,30.9-18.1v-61.7l53.1-30.8v-36.1ZM384.4,349v-36.1l-30.9,18.1v36.1l30.9-18.1ZM406.3,361.8l-53.1,30.8v36.1l84-48.9v-97.8l-30.9,18.1v61.7ZM375.4,220.4l30.9,18.1v36.1l30.9-18.1v-36.1l-30.9-18.1-30.9,18.1ZM269.4,405.7v36.1l30.9,18.1,30.9-18.1v-36.1l-30.9,18.1-30.9-18.1ZM216.3,349l30.9,18.1v-36.1l-30.9-18.1v36.1ZM269.4,220.4l30.9,18.1,30.9-18.1-30.9-18.1-30.9,18.1ZM194.4,238.4l30.9-18.1-30.9-18.1-30.9,18.1v36.1l30.9,18.1v-36.1ZM194.4,300.1l-30.9-18.1v97.8l84,48.9v-36.1l-53.1-30.8v-61.7Z"/>
  <metadata>
    <sfw xmlns="http://ns.adobe.com/SaveForWeb/1.0/">
      <slices/>
      <sliceSourceBounds x="-971.7" y="-8228.72" width="5853.97" height="3446.46" bottomLeftOrigin="true"/>
    </sfw>
  </metadata>
</svg>