<?xml version="1.0" encoding="UTF-8"?>
<svg id="Capa_1" xmlns="http://www.w3.org/2000/svg" version="1.1" viewBox="0 0 600 600">
  <!-- Generator: Adobe Illustrator 30.3.0, SVG Export Plug-In . SVG Version: 2.1.3 Build 182)  -->
  <defs>
    <style>
      .st0 {
        fill: #fff;
      }

      .st1 {
        fill: #0f0f0f;
      }
    </style>
  </defs>
  <circle class="st0" cx="300.3" cy="300.3" r="300.1"/>
  <g id="Layer_1">
    <g>
      <path class="st1" d="M300.4,119.3c24.1,0,47.4,4.7,69.4,14,11.7,4.9,22.9,11.2,33.4,18.6l-2.2,1.2-28.6,14.6c-21.9-12.2-46.7-18.6-72-18.6h-1.2c-19.4.2-38.4,4.1-56.3,11.5-17.9,7.5-34,18.3-47.7,32-28.1,28.1-43.5,65.5-43.5,105.1s.4,13,1.3,19.4l.3,2,1.8-1,247.1-126,51.2-26.1,57.9-29.6v33.5l-59.7,30.5-29.3,14.9-260.5,133-1.2.7h0l-13.3,6.8-13.5,6.9h0c0,0-1.3.5-1.3.5l-43.3,22.2v-33.5l14.7-7.4c12.3-6.3,19.6-19.2,18.6-33.1-.3-4.5-.5-9.1-.5-13.6,0-24.1,4.7-47.5,14-69.5,9-21.3,21.9-40.3,38.2-56.8,16.3-16.3,35.4-29.3,56.7-38.3,22-9,45.4-13.7,69.4-13.7"/>
      <path class="st1" d="M511.4,214.8v33.5l-14.7,7.4c-12.3,6.3-19.6,19.2-18.6,33.1.4,4.5.5,9.2.5,13.7,0,24.1-4.7,47.5-14,69.5-9,21.3-21.9,40.3-38.2,56.8-16.3,16.4-35.5,29.3-56.7,38.3-22,9.3-45.4,14-69.4,14s-47.4-4.7-69.4-14c-11.8-5-23-11.3-33.5-18.7l29.6-15.1,1.2-.6c21.9,12.2,46.8,18.7,72.2,18.7h1.1c19.4,0,38.4-4,56.3-11.5,17.9-7.5,34-18.3,47.7-32,28.1-28.1,43.5-65.5,43.5-105.1s-.4-13.1-1.3-19.5l-.3-2-1.8,1-247.3,125.8-51.2,26.1-57.7,29.4v-33.5l59.5-30.4,29.3-14.9,333.4-170"/>
    </g>
  </g>
  <metadata>
    <sfw xmlns="http://ns.adobe.com/SaveForWeb/1.0/">
      <slices/>
      <sliceSourceBounds x="-971.7" y="-8228.72" width="5853.97" height="3446.46" bottomLeftOrigin="true"/>
    </sfw>
  </metadata>
</svg>