<?xml version="1.0" encoding="UTF-8"?>
<svg id="Capa_1" xmlns="http://www.w3.org/2000/svg" version="1.1" viewBox="0 0 600 600">
  <!-- Generator: Adobe Illustrator 30.3.0, SVG Export Plug-In . SVG Version: 2.1.3 Build 182)  -->
  <defs>
    <style>
      .st0 {
        fill: #fff;
        fill-rule: evenodd;
      }

      .st1 {
        fill: #298dff;
      }
    </style>
  </defs>
  <circle class="st1" cx="300.3" cy="300.3" r="300.1"/>
  <path class="st0" d="M392.2,263.7c16,20.1,25.5,45.5,25.5,73.2s-9.8,53.9-26.2,74.1l-1.4,1.7-.4-2.2c-.3-1.9-.7-3.8-1.1-5.7-8.2-36.2-34.9-67.2-78.9-92.3-29.7-16.9-46.7-37.3-51.2-60.4-2.9-15-.7-30,3.4-42.9,4.1-12.9,10.3-23.6,15.5-30.1l17.1-21c3-3.7,8.6-3.7,11.6,0l86,105.6h0ZM419.3,242.7l-114.7-140.7c-2.2-2.7-6.3-2.7-8.5,0l-114.7,140.7-.4.5c-21.1,26.3-33.7,59.7-33.7,96.1,0,84.7,68.5,153.3,153,153.3s153-68.6,153-153.3-12.6-69.8-33.7-96l-.4-.5h0ZM208.9,263.2l10.2-12.6.3,2.3c.2,1.8.5,3.7.9,5.5,6.6,35,30.3,64.1,70,86.7,34.5,19.7,54.5,42.3,60.3,67.1,2.4,10.4,2.8,20.5,1.8,29.5v.6c0,0-.6.2-.6.2-15.6,7.6-33,11.9-51.5,11.9-64.8,0-117.3-52.6-117.3-117.6s9.7-53.5,25.9-73.7h0Z"/>
  <metadata>
    <sfw xmlns="http://ns.adobe.com/SaveForWeb/1.0/">
      <slices/>
      <sliceSourceBounds x="-971.7" y="-8228.72" width="5853.97" height="3446.46" bottomLeftOrigin="true"/>
    </sfw>
  </metadata>
</svg>