<?xml version="1.0" encoding="UTF-8"?>
<svg id="Capa_1" xmlns="http://www.w3.org/2000/svg" version="1.1" viewBox="0 0 600 600">
  <!-- Generator: Adobe Illustrator 30.3.0, SVG Export Plug-In . SVG Version: 2.1.3 Build 182)  -->
  <defs>
    <style>
      .st0 {
        fill: #ff0421;
      }

      .st1 {
        fill: #fff;
      }
    </style>
  </defs>
  <circle class="st0" cx="300.3" cy="300.3" r="300.1"/>
  <g>
    <path class="st1" d="M286.7,346c-15.1,28.7-42.4,42.1-73.8,46.1-18.5,2.3-36.9,2.4-55.4-.1-28.3-3.9-54.3-16.7-63-45.7-6.6-21.9-3.7-49.1,2.6-70.7,11.3-38.7,38.4-60.2,77.8-66.4,21.4-3.4,42.9-3.5,64.3,0,10.9,1.8,20.8,4.9,30.3,10.1,22.8,12.4,31.8,35,31.9,60.3.1,21.8-4.5,47-14.7,66.4h0ZM212,347.2c14.4-3.9,25-13.4,30.4-27,5.1-13,7.1-27.1,6-41.1-1.1-14.5-9.8-23.7-23.9-26.6-14-3-29.2-2.9-43.5.7-14.6,3.6-25.8,13.4-31.3,27.4-5,12.9-7.1,26.8-5.7,40.6,1.4,14.6,10.6,24.1,24.8,27,14.2,3,28.9,2.8,43.2-1h0Z"/>
    <path class="st1" d="M502.5,304.9c-12.2,30.9-41.9,40.5-72.5,41.4h-64.3l-6.1,43.4h-51.3s25.2-178.8,25.2-178.8h112.2c10.2,0,19.7,1.8,29.3,4.4,19.3,6,31.9,19.6,34.2,40.1,1.9,16.7-.4,33.5-6.7,49.5h0ZM456.9,267.6c-.8-6.4-4.8-10.9-10.7-12.9-3.8-1-7.4-1.5-11.5-1.9h-55.8l-7.3,51.7h52.6c5.5-.2,10.5-.9,15.6-2.7,14.2-5,18.7-20.9,17.1-34.1h0Z"/>
  </g>
  <metadata>
    <sfw xmlns="http://ns.adobe.com/SaveForWeb/1.0/">
      <slices/>
      <sliceSourceBounds x="-971.7" y="-8228.72" width="5853.97" height="3446.46" bottomLeftOrigin="true"/>
    </sfw>
  </metadata>
</svg>