<?xml version="1.0" encoding="UTF-8"?>
<svg id="Capa_1" xmlns="http://www.w3.org/2000/svg" version="1.1" viewBox="0 0 600 600">
  <!-- Generator: Adobe Illustrator 30.3.0, SVG Export Plug-In . SVG Version: 2.1.3 Build 182)  -->
  <defs>
    <style>
      .st0 {
        fill: #fff;
        fill-rule: evenodd;
      }

      .st1 {
        fill: #0098f4;
      }
    </style>
  </defs>
  <circle class="st1" cx="300.3" cy="300.3" r="300.1"/>
  <path class="st0" d="M173.1,129.6h256.5c9.1,0,18.1,1.3,27.6,5.8,11.4,5.4,17.4,13.8,21.6,20.1.3.5.6,1,.9,1.5,5,8.9,7.5,18.6,7.5,29s-2.3,20.6-7.5,30c0,0,0,.2-.2.3l-162.1,281.9c-3.6,6.2-10.2,10-17.3,10-7.1,0-13.7-3.9-17.2-10.1L124,216.7c0,0,0-.2-.1-.2-3.6-6.1-9.3-15.5-10.3-27.6-.9-11.1,1.6-22.3,7.1-32,5.5-9.7,13.9-17.4,23.9-22.2,10.7-5.1,21.6-5.1,28.5-5.1ZM280.4,169.9h-107.4c-7.1,0-9.8.4-11.7,1.3-2.6,1.2-4.8,3.3-6.3,5.8-1.5,2.6-2.1,5.6-1.9,8.5.1,1.7.8,3.7,4.9,10.5,0,.1.2.3.2.4l122.1,215.8v-242.4ZM320.2,169.9v243.5l124.9-217.2c1.4-2.6,2.4-6.3,2.4-10.2s-.6-5.8-2.1-8.6c-1.5-2.2-2.4-3.3-3.2-4.1-.7-.7-1.2-1-1.9-1.4-3-1.4-6-2.1-10.8-2.1h-109.4Z"/>
  <metadata>
    <sfw xmlns="http://ns.adobe.com/SaveForWeb/1.0/">
      <slices/>
      <sliceSourceBounds x="-971.7" y="-8228.72" width="5853.97" height="3446.46" bottomLeftOrigin="true"/>
    </sfw>
  </metadata>
</svg>