<?xml version="1.0" encoding="UTF-8"?>
<svg id="Capa_1" xmlns="http://www.w3.org/2000/svg" version="1.1" viewBox="0 0 600 600">
  <!-- Generator: Adobe Illustrator 30.3.0, SVG Export Plug-In . SVG Version: 2.1.3 Build 182)  -->
  <defs>
    <style>
      .st0 {
        fill: #f9f9f9;
      }

      .st0, .st1 {
        fill-rule: evenodd;
      }

      .st2 {
        fill: #04044c;
      }

      .st1, .st3 {
        fill: #f78171;
      }
    </style>
  </defs>
  <g>
    <path class="st2" d="M9.8,300.2c0,160.4,130,290.4,290.4,290.4s290.4-130,290.4-290.4S460.6,9.7,300.2,9.7,9.8,139.8,9.8,300.2Z"/>
    <path class="st3" d="M300.2,598.1c-79.6,0-154.4-31-210.7-87.3C33.2,454.6,2.2,379.8,2.2,300.2s31-154.4,87.3-210.7C145.8,33.2,220.6,2.2,300.2,2.2s154.4,31,210.7,87.3c56.3,56.3,87.3,131.1,87.3,210.7s-31,154.4-87.3,210.7c-56.3,56.3-131.1,87.3-210.7,87.3ZM300.2,17.3c-75.6,0-146.6,29.4-200,82.9-53.4,53.4-82.9,124.5-82.9,200s29.4,146.6,82.9,200c53.4,53.4,124.5,82.9,200,82.9s146.6-29.4,200-82.9c53.4-53.4,82.9-124.5,82.9-200s-29.4-146.6-82.9-200c-53.4-53.4-124.5-82.9-200-82.9Z"/>
  </g>
  <path class="st0" d="M168.8,230l7.4-22.7c1.5-4.6,5.1-8.2,9.8-9.6l22.8-7c3.2-1,3.2-5.4,0-6.4l-22.7-7.4c-4.6-1.5-8.2-5.1-9.6-9.8l-7-22.8c-1-3.2-5.4-3.2-6.4,0l-7.4,22.7c-1.5,4.6-5.1,8.2-9.8,9.6l-22.8,7c-3.2,1-3.2,5.4,0,6.4l22.7,7.4c4.6,1.5,8.2,5.2,9.6,9.8l7,22.8c1,3.2,5.4,3.2,6.4,0Z"/>
  <path class="st1" d="M529.7,216.7c-9.4-10.5-24.1-16.5-38.4-18.9-14.4-2.3-29.5-2.1-43.7.4-28.8,4.9-54.9,16.8-77.7,31.5-11.8,7.2-21.9,15.6-32.4,24-5,4.3-9.6,8.9-14.4,13.4l-13.1,13c-14.2,14.8-28.2,28.4-41.7,39.6-13.6,11.2-26.3,19.6-38.8,25.5-12.5,5.9-25.9,9.4-43.4,10-17.3.6-37.8-2.5-59.7-7.7-22-5.1-45.2-12.5-71-18.7,9,25,22.6,47.1,40,67.3,17.6,19.9,39.7,38,68,49.9,27.9,12.2,62.9,16.5,95.7,9.9,32.9-6.3,61.7-21.5,85-39.1,23.4-17.8,42.3-38,58.2-59,4.4-5.8,6.7-9.1,9.9-13.6l8.8-13c6.1-8.1,11.7-17.2,17.7-25.2,11.9-16.7,23.6-33.4,37.2-48.8,6.8-7.8,14.1-15.3,22.6-22.5,4.2-3.5,8.8-6.9,13.9-10,5.2-3.3,10.6-5.9,17.3-8Z"/>
  <path class="st0" d="M529.7,216.7c-10.1-25.5-28.9-47-54.2-62.9-25.1-15.7-59.9-23.7-94.4-16.9-17.1,3.3-33.6,9.6-48.1,18.1-14.4,8.4-27.4,18.6-38.6,29.4-5.6,5.5-10.7,11.1-15.7,16.9l-13.1,16.7-20.2,26.8c-25.7,34.5-53.4,74.9-98.9,86.9-44.6,11.8-64,1.3-91.2-3,5,12.9,11.1,25.3,19.5,36.3,8.2,11.2,17.9,21.7,30,30.8,6.1,4.3,12.5,8.6,19.7,12.2,7.1,3.5,14.8,6.6,23,8.9,16.3,4.5,34.6,6,52.4,3.6,17.8-2.4,34.7-8,49.6-15.5,14.9-7.4,28-16.4,39.6-25.9,23.1-19.2,41.1-40.4,56.3-61.8,7.6-10.7,14.6-21.6,21-32.6l7.5-13c2.3-3.8,4.6-7.6,7-11.2,9.6-14.3,18.9-25.8,30.3-34.4,11.2-8.8,26.8-15.4,47.6-16.9,20.8-1.5,44.7,1.3,71,7.2Z"/>
  <path class="st1" d="M417.5,428.8c0,18.7,15.2,33.9,33.9,33.9s33.9-15.2,33.9-33.9-15.2-33.9-33.9-33.9-33.9,15.2-33.9,33.9Z"/>
  <metadata>
    <sfw xmlns="http://ns.adobe.com/SaveForWeb/1.0/">
      <slices/>
      <sliceSourceBounds x="-971.7" y="-8228.72" width="5853.97" height="3446.46" bottomLeftOrigin="true"/>
    </sfw>
  </metadata>
</svg>