<?xml version="1.0" encoding="UTF-8"?>
<svg id="Capa_1" xmlns="http://www.w3.org/2000/svg" version="1.1" viewBox="0 0 600 600">
  <!-- Generator: Adobe Illustrator 30.3.0, SVG Export Plug-In . SVG Version: 2.1.3 Build 182)  -->
  <defs>
    <style>
      .st0 {
        fill: #a7a7a7;
      }
    </style>
  </defs>
  <circle class="st0" cx="300.3" cy="300.3" r="300.1"/>
  <g>
    <path d="M489.2,147.6h-10.4v101.7h10.4c3.7,0,6.8-3,6.8-6.8v-88.1c0-3.7-3-6.8-6.8-6.8Z"/>
    <path d="M455.7,147.6h-29.3v101.7h29.3c3.7,0,6.8-3,6.8-6.8v-88.1c0-3.7-3-6.8-6.8-6.8Z"/>
    <path d="M489.2,351.2h-10.4v101.7h10.4c3.7,0,6.8-3,6.8-6.8v-88.1c0-3.7-3-6.8-6.8-6.8Z"/>
    <g>
      <path d="M301.1,249.6h-87.7c-3.7,0-6.7,3-6.7,6.7v87.1c0,3.7,3,6.7,6.7,6.7h87.7c3.7,0,6.7-3,6.7-6.7v-87.1c0-3.7-3-6.7-6.7-6.7Z"/>
      <path d="M199.6,147.6h-88.1c-3.7,0-6.8,3-6.8,6.8v88.1c0,3.7,3,6.8,6.8,6.8h88.1c3.7,0,6.8-3,6.8-6.8v-88.1c0-3.7-3-6.8-6.8-6.8Z"/>
      <path d="M402.9,147.6h-88.1c-3.7,0-6.8,3-6.8,6.8v88.1c0,3.7,3,6.8,6.8,6.8h88.1c3.7,0,6.8-3,6.8-6.8v-88.1c0-3.7-3-6.8-6.8-6.8Z"/>
      <path d="M199.6,351h-88.1c-3.7,0-6.8,3-6.8,6.8v88.1c0,3.7,3,6.8,6.8,6.8h88.1c3.7,0,6.8-3,6.8-6.8v-88.1c0-3.7-3-6.8-6.8-6.8Z"/>
      <path d="M402.9,351h-88.1c-3.7,0-6.8,3-6.8,6.8v88.1c0,3.7,3,6.8,6.8,6.8h88.1c3.7,0,6.8-3,6.8-6.8v-88.1c0-3.7-3-6.8-6.8-6.8Z"/>
    </g>
    <path d="M455.7,351.2h-29.3v101.7h29.3c3.7,0,6.8-3,6.8-6.8v-88.1c0-3.7-3-6.8-6.8-6.8Z"/>
  </g>
  <metadata>
    <sfw xmlns="http://ns.adobe.com/SaveForWeb/1.0/">
      <slices/>
      <sliceSourceBounds x="-971.7" y="-8228.72" width="5853.97" height="3446.46" bottomLeftOrigin="true"/>
    </sfw>
  </metadata>
</svg>