<?xml version="1.0" encoding="UTF-8"?>
<svg id="Capa_1" xmlns="http://www.w3.org/2000/svg" version="1.1" viewBox="0 0 600 600">
  <!-- Generator: Adobe Illustrator 30.3.0, SVG Export Plug-In . SVG Version: 2.1.3 Build 182)  -->
  <defs>
    <style>
      .st0 {
        fill: #f4b728;
      }

      .st1 {
        fill: #fff;
      }
    </style>
  </defs>
  <path class="st1" d="M300.1,599.5c166,0,299.5-133.5,299.5-299.5S466,.6,300.1.6.6,134.1.6,300.1s133.5,299.5,299.5,299.5Z"/>
  <path class="st0" d="M300.1,552.8c140.1,0,252.8-112.7,252.8-252.8S440.1,47.3,300.1,47.3,47.3,160,47.3,300.1s112.7,252.8,252.8,252.8Z"/>
  <polygon class="st1" points="325.3 109.8 275 109.8 274.9 160.1 193.1 160.1 193.1 220.7 319.9 220.7 193 392.9 193 438.5 274.9 438.6 274.9 488.7 325.2 488.7 325.2 438.6 407 438.6 407.1 378 280.1 378 407.1 205.8 407.1 160.2 325.3 160.2 325.3 109.8"/>
  <metadata>
    <sfw xmlns="http://ns.adobe.com/SaveForWeb/1.0/">
      <slices/>
      <sliceSourceBounds x="-971.7" y="-8228.72" width="5853.97" height="3446.46" bottomLeftOrigin="true"/>
    </sfw>
  </metadata>
</svg>