<?xml version="1.0" encoding="UTF-8"?>
<svg id="Capa_1" xmlns="http://www.w3.org/2000/svg" version="1.1" viewBox="0 0 600 600">
  <!-- Generator: Adobe Illustrator 30.3.0, SVG Export Plug-In . SVG Version: 2.1.3 Build 182)  -->
  <defs>
    <style>
      .st0 {
        fill: #00ec97;
      }
    </style>
  </defs>
  <circle class="st0" cx="300.3" cy="300.3" r="300.1"/>
  <path d="M443.4,118.5c-13.5,0-26,7-33,18.5l-76,112.8c-2.5,3.7-1.5,8.7,2.2,11.2,3,2,7,1.8,9.7-.6l74.8-64.9c1.2-1.1,3.2-1,4.3.2.5.6.8,1.3.8,2.1v203.1c0,1.7-1.4,3-3,3s-1.7-.4-2.3-1.1L194.7,132.2c-7.4-8.7-18.2-13.7-29.6-13.7h-7.9c-21.4,0-38.7,17.3-38.7,38.7v286.1c0,21.4,17.3,38.7,38.7,38.7s26-7,33-18.5l76-112.8c2.5-3.7,1.5-8.7-2.2-11.2-3-2-7-1.8-9.7.6l-74.8,64.9c-1.2,1.1-3.2,1-4.3-.2-.5-.6-.8-1.3-.8-2.1v-203.2c0-1.7,1.4-3,3-3s1.7.4,2.3,1.1l226.1,270.7c7.4,8.7,18.2,13.7,29.6,13.7h7.9c21.4,0,38.7-17.3,38.8-38.7V157.2c0-21.4-17.3-38.7-38.7-38.7h0Z"/>
  <metadata>
    <sfw xmlns="http://ns.adobe.com/SaveForWeb/1.0/">
      <slices/>
      <sliceSourceBounds x="-971.7" y="-8228.72" width="5853.97" height="3446.46" bottomLeftOrigin="true"/>
    </sfw>
  </metadata>
</svg>