<?xml version="1.0" encoding="UTF-8"?>
<svg id="Capa_1" xmlns="http://www.w3.org/2000/svg" version="1.1" viewBox="0 0 600 600">
  <!-- Generator: Adobe Illustrator 30.3.0, SVG Export Plug-In . SVG Version: 2.1.3 Build 182)  -->
  <defs>
    <style>
      .st0 {
        fill: #fff;
      }

      .st1 {
        fill: #0ac18e;
      }
    </style>
  </defs>
  <circle class="st1" cx="300.3" cy="300.3" r="300"/>
  <path id="symbol" class="st0" d="M393.9,199.5c-15.1-34.2-49.7-41.5-92.1-34.4l-13.6-52.8-32.1,8.3,13.4,52.7c-8.5,2.1-17.1,4-25.7,6.4l-13.4-52.4-32.1,8.3,13.6,52.8c-6.9,2-64.9,16.8-64.9,16.8l8.8,34.4s23.6-6.6,23.4-6.1c13.1-3.4,19.3,3.1,22.2,9.3l37.5,144.8c.5,4.2-.3,11.3-9.3,13.8.5.3-23.4,6-23.4,6l3.5,40.1s57.4-14.7,64.9-16.6l13.8,53.5,32.1-8.3-13.8-53.8c8.8-2.1,17.4-4.2,25.8-6.4l13.7,53.5,32.1-8.3-13.8-53.4c49.5-12,84.4-43.2,77.3-91-4.6-28.8-36-52.4-62.1-55.1,16.1-14.2,24.2-35,14.2-62.2h0ZM378.5,325.6c6.4,47.3-59.3,53.1-81,58.8l-18.9-70.7c21.8-5.7,89.1-29.7,99.9,12ZM338.9,229.2c6.8,42-49.4,46.9-67.5,51.5l-17.2-64.2c18.2-4.5,71-26.3,84.7,12.6Z"/>
  <metadata>
    <sfw xmlns="http://ns.adobe.com/SaveForWeb/1.0/">
      <slices/>
      <sliceSourceBounds x="-971.7" y="-8228.72" width="5853.97" height="3446.46" bottomLeftOrigin="true"/>
    </sfw>
  </metadata>
</svg>