<?xml version="1.0" encoding="UTF-8"?>
<svg id="Capa_1" xmlns="http://www.w3.org/2000/svg" version="1.1" viewBox="0 0 600 600">
  <!-- Generator: Adobe Illustrator 30.3.0, SVG Export Plug-In . SVG Version: 2.1.3 Build 182)  -->
  <defs>
    <style>
      .st0 {
        fill: #ff5153;
      }

      .st1 {
        fill: #fff;
      }
    </style>
  </defs>
  <circle class="st0" cx="300.3" cy="300.3" r="300.1"/>
  <g>
    <path class="st1" d="M340,432h104.9c9.3,0,15.1-10,10.4-18l-52.5-90.9c-4.6-8-16.2-8-20.8,0l-52.5,90.9c-4.6,8,1.2,18,10.4,18Z"/>
    <path class="st1" d="M353.1,236.9l-43.1-74.7c-4.4-7.5-15.3-7.5-19.6,0l-145,251.2c-4.8,8.3,1.2,18.6,10.7,18.6h86.3c9.2,0,17.7-4.9,22.3-12.9l88.4-153c5.2-9,5.2-20.1,0-29.1Z"/>
  </g>
  <metadata>
    <sfw xmlns="http://ns.adobe.com/SaveForWeb/1.0/">
      <slices/>
      <sliceSourceBounds x="-971.7" y="-8228.72" width="5853.97" height="3446.46" bottomLeftOrigin="true"/>
    </sfw>
  </metadata>
</svg>