<?xml version="1.0" encoding="UTF-8"?>
<svg id="Capa_1" xmlns="http://www.w3.org/2000/svg" version="1.1" viewBox="0 0 600 600">
  <!-- Generator: Adobe Illustrator 30.3.0, SVG Export Plug-In . SVG Version: 2.1.3 Build 182)  -->
  <defs>
    <style>
      .st0 {
        fill: #dcf9d6;
      }

      .st1 {
        fill: #0f0e0d;
      }
    </style>
  </defs>
  <circle class="st0" cx="300.3" cy="300.3" r="300.1"/>
  <g>
    <path class="st1" d="M230.1,330.2H91.7c3,21.3,9.3,41.5,18.1,60.2h81.6l38.6-60.2Z"/>
    <g>
      <path class="st1" d="M109.9,209.8c-8.9,18.7-15.1,39-18.1,60.2h177l38.7-60.2H109.9Z"/>
      <path class="st1" d="M508.9,270c-3-21.3-9.3-41.5-18.1-60.2h-106.1l-38.6-60.2h101.8c-38-37.2-90.1-60.2-147.5-60.2s-109.5,23-147.5,60.2h193.2l-38.7,60.2,38.7,60.2h162.9Z"/>
      <path class="st1" d="M191.5,390.4l-38.7,60.2c38,37.2,90,60.6,147.4,60.6s110.3-22.1,148.4-60.6h-218.5l-38.7-60.2Z"/>
      <path class="st1" d="M268.8,390.4h222c8.9-18.7,15.1-39,18.1-60.2h-201.5l-38.7-60.2-38.7,60.2"/>
    </g>
  </g>
  <metadata>
    <sfw xmlns="http://ns.adobe.com/SaveForWeb/1.0/">
      <slices/>
      <sliceSourceBounds x="-971.7" y="-8228.72" width="5853.97" height="3446.46" bottomLeftOrigin="true"/>
    </sfw>
  </metadata>
</svg>