<?xml version="1.0" encoding="UTF-8"?>
<svg id="Capa_1" xmlns="http://www.w3.org/2000/svg" version="1.1" viewBox="0 0 600 600">
  <!-- Generator: Adobe Illustrator 30.3.0, SVG Export Plug-In . SVG Version: 2.1.3 Build 182)  -->
  <defs>
    <style>
      .st0 {
        fill: #fff;
      }

      .st1 {
        fill: #f7931a;
      }

      .st2 {
        fill: #f7a21a;
      }
    </style>
  </defs>
  <circle class="st1" cx="301.2" cy="299.8" r="299.9"/>
  <g>
    <path class="st2" d="M568.5,302.5c0,147.6-119.7,267.3-267.3,267.3-147.6,0-267.3-119.7-267.3-267.3,0-147.7,119.7-267.4,267.3-267.4,147.6,0,267.3,119.7,267.4,267.3h0s0,0,0,0Z"/>
    <path class="st0" d="M423.3,226c-4.2-43.5-41.7-58.1-89.1-62.2v-60.3s-36.7,0-36.7,0v58.7c-9.6,0-19.5.2-29.3.4v-59.1s-36.7,0-36.7,0v60.3c-8,.2-15.8.3-23.4.3v-.2s-50.6,0-50.6,0v39.2s27.1-.5,26.7,0c14.9,0,19.7,8.6,21.1,16.1v68.7c1,0,2.4,0,3.9.3-1.2,0-2.5,0-3.9,0v96.3c-.7,4.7-3.4,12.1-13.8,12.2.5.4-26.7,0-26.7,0l-7.3,43.8h47.8c8.9,0,17.6.2,26.2.2v61s36.7,0,36.7,0v-60.4c10.1.2,19.8.3,29.3.3v60.1s36.7,0,36.7,0v-60.9c61.7-3.5,104.9-19.1,110.3-77.1,4.3-46.7-17.6-67.5-52.7-75.9,21.3-10.8,34.6-29.9,31.5-61.8h0s0,0,0,0ZM371.9,356.4c0,45.6-78,40.4-102.9,40.4v-80.8c24.9,0,102.9-7.2,102.9,40.4h0ZM354.8,242.4c0,41.5-65.1,36.6-85.8,36.6v-73.3c20.7,0,85.8-6.6,85.8,36.7h0Z"/>
  </g>
  <metadata>
    <sfw xmlns="http://ns.adobe.com/SaveForWeb/1.0/">
      <slices/>
      <sliceSourceBounds x="-971.7" y="-8228.72" width="5853.97" height="3446.46" bottomLeftOrigin="true"/>
    </sfw>
  </metadata>
</svg>