<?xml version="1.0" encoding="UTF-8"?>
<svg id="Capa_1" xmlns="http://www.w3.org/2000/svg" version="1.1" viewBox="0 0 600 600">
  <!-- Generator: Adobe Illustrator 30.3.0, SVG Export Plug-In . SVG Version: 2.1.3 Build 182)  -->
  <defs>
    <style>
      .st0 {
        fill: #0033ad;
      }

      .st1 {
        fill: #fff;
      }
    </style>
  </defs>
  <circle class="st1" cx="300.3" cy="300.3" r="300.1"/>
  <g id="Layer_2">
    <g id="Layer_1-2">
      <path class="st0" d="M197.9,298.8c-.9,16.8,11.9,31.2,28.8,32.2h1.8c16.9,0,30.5-13.7,30.5-30.6,0-16.9-13.7-30.5-30.6-30.5-16.2,0-29.6,12.7-30.5,28.9Z"/>
      <path class="st0" d="M84,290.9c-5.4-.3-10.1,3.9-10.4,9.3-.3,5.4,3.9,10.1,9.3,10.4,5.4.3,10.1-3.9,10.4-9.3.3-5.4-3.8-10.1-9.3-10.4,0,0,0,0,0,0Z"/>
      <path class="st0" d="M195.9,121.5c4.9-2.5,6.8-8.4,4.3-13.3-2.5-4.9-8.4-6.8-13.3-4.3-4.8,2.5-6.8,8.4-4.3,13.2,2.5,4.9,8.4,6.8,13.3,4.4,0,0,0,0,0,0Z"/>
      <path class="st0" d="M226.9,175.5c7.5-3.8,10.5-13,6.8-20.5-3.8-7.5-13-10.5-20.5-6.8-7.5,3.8-10.5,13-6.8,20.5,3.8,7.5,13,10.5,20.5,6.8Z"/>
      <path class="st0" d="M122.7,212.7c5.8,3.8,13.6,2.2,17.4-3.6,3.8-5.8,2.2-13.6-3.6-17.4-5.8-3.8-13.6-2.2-17.4,3.6,0,0,0,0,0,0-3.8,5.8-2.2,13.6,3.6,17.4Z"/>
      <path class="st0" d="M141.2,285.5c-8.4-.5-15.6,6-16.1,14.4s6,15.6,14.4,16.1c8.4.5,15.6-6,16.1-14.4,0,0,0,0,0,0,.5-8.4-6-15.6-14.4-16.1Z"/>
      <path class="st0" d="M124.4,387.9c-6.2,3.1-8.7,10.7-5.6,16.9,3.1,6.2,10.7,8.7,16.9,5.6,6.2-3.1,8.7-10.7,5.6-16.9h0c-3.1-6.2-10.6-8.7-16.8-5.6,0,0,0,0,0,0Z"/>
      <path class="st0" d="M183.6,253.9c8.3,5.4,19.4,3.1,24.8-5.2,5.4-8.3,3.1-19.4-5.2-24.8-8.3-5.4-19.4-3.1-24.8,5.2-5.4,8.3-3.1,19.4,5.1,24.8,0,0,0,0,0,0Z"/>
      <path class="st0" d="M371.6,174.3c7,4.6,16.5,2.7,21.1-4.4,4.6-7,2.7-16.5-4.4-21.1-7-4.6-16.5-2.7-21.1,4.4,0,0,0,0,0,0-4.6,7-2.7,16.5,4.4,21.1,0,0,0,0,0,0Z"/>
      <path class="st0" d="M402.9,120.5c4.6,3,10.7,1.7,13.7-2.9,3-4.6,1.7-10.7-2.9-13.7-4.6-3-10.7-1.7-13.6,2.8-3,4.6-1.7,10.7,2.8,13.7,0,0,0,0,0,0Z"/>
      <path class="st0" d="M374,269.6c-16.8-1-31.3,11.9-32.2,28.7-1,16.8,11.9,31.3,28.7,32.2h1.8c16.9,0,30.5-13.7,30.5-30.5,0-16.2-12.6-29.6-28.8-30.5h0Z"/>
      <path class="st0" d="M236.9,251.8c5.2,10.3,15.7,16.8,27.3,16.8,16.9,0,30.5-13.7,30.5-30.5,0-4.8-1.1-9.5-3.3-13.7-7.6-15.1-26-21.1-41-13.5-15.1,7.6-21.1,26-13.5,41h0Z"/>
      <path class="st0" d="M476.3,212.6c6.2-3.1,8.6-10.7,5.5-16.9-3.1-6.2-10.7-8.6-16.9-5.5-6.2,3.1-8.6,10.7-5.5,16.8,3.1,6.2,10.7,8.7,16.9,5.6,0,0,0,0,0,0Z"/>
      <path class="st0" d="M398.9,222.4c-8.8,4.5-12.4,15.3-7.9,24.1,4.5,8.8,15.3,12.4,24.1,7.9,8.8-4.5,12.4-15.2,7.9-24.1-4.5-8.8-15.3-12.4-24.1-8Z"/>
      <path class="st0" d="M299.2,115.9c6.9.4,12.9-4.9,13.2-11.8s-4.9-12.9-11.8-13.2c-6.9-.4-12.8,4.9-13.2,11.8-.4,6.9,4.8,12.9,11.8,13.3,0,0,0,0,0,0Z"/>
      <path class="st0" d="M299,194.9c9.9.5,18.4-7,18.9-16.9.5-9.9-7-18.4-16.9-18.9-9.9-.5-18.3,7-18.9,16.9-.6,9.9,7,18.4,16.9,18.9,0,0,0,0,0,0Z"/>
      <path class="st0" d="M201.8,378.2c8.9-4.5,12.4-15.2,8-24.1-4.5-8.9-15.2-12.4-24.1-8-8.9,4.5-12.4,15.2-8,24.1,4.5,8.8,15.2,12.4,24.1,8Z"/>
      <path class="st0" d="M310.6,221.1c-9.2,14.1-5.3,33,8.8,42.2,14.1,9.2,33,5.3,42.2-8.8,9.2-14.1,5.3-33-8.8-42.2-5-3.2-10.7-5-16.7-5-10.3,0-19.9,5.2-25.6,13.8Z"/>
      <path class="st0" d="M363.7,348.8c-7.6-15.1-26-21.1-41-13.5-15.1,7.6-21.1,26-13.5,41,7.6,15.1,26,21.1,41,13.5,0,0,0,0,0,0,15-7.5,21.1-25.7,13.7-40.7,0,0,0-.2-.2-.3Z"/>
      <path class="st0" d="M417,346.7c-8.3-5.4-19.4-3.1-24.8,5.2-5.4,8.3-3.1,19.4,5.2,24.8,8.3,5.4,19.4,3.1,24.8-5.2,5.4-8.3,3.1-19.4-5.2-24.8h0Z"/>
      <path class="st0" d="M475.5,300.8c.5-8.4-6-15.6-14.4-16.1-8.4-.5-15.6,6-16.1,14.4-.5,8.4,6,15.6,14.4,16.1,0,0,0,0,0,0,8.4.5,15.6-6,16.1-14.4Z"/>
      <path class="st0" d="M517.7,289.9c-5.4-.3-10.1,3.9-10.4,9.3-.3,5.4,3.9,10.1,9.3,10.4,5.4.3,10.1-3.9,10.4-9.3.3-5.4-3.9-10.1-9.3-10.4Z"/>
      <path class="st0" d="M478,387.9c-5.8-3.8-13.6-2.2-17.4,3.6-3.8,5.8-2.2,13.6,3.6,17.4,5.8,3.8,13.6,2.2,17.4-3.6,3.8-5.8,2.2-13.6-3.6-17.4h0Z"/>
      <path class="st0" d="M197.7,480.1c-4.6-3-10.7-1.7-13.7,2.8-3,4.6-1.7,10.7,2.8,13.7,4.6,3,10.7,1.7,13.7-2.8,0,0,0,0,0,0,3-4.6,1.7-10.7-2.8-13.7Z"/>
      <path class="st0" d="M404.7,479c-4.9,2.5-6.8,8.4-4.3,13.3,2.5,4.9,8.4,6.8,13.3,4.3,4.8-2.5,6.8-8.4,4.3-13.2-2.4-4.9-8.4-6.8-13.2-4.4,0,0,0,0,0,0Z"/>
      <path class="st0" d="M290.1,379.4c9.2-14.1,5.3-33-8.8-42.3-14.1-9.2-33-5.3-42.3,8.8-9.2,14.1-5.3,33,8.8,42.3,5,3.3,10.8,5,16.7,5,10.3,0,19.9-5.2,25.6-13.8Z"/>
      <path class="st0" d="M229,426.2c-7-4.6-16.5-2.7-21.1,4.4-4.6,7-2.7,16.5,4.4,21.1,7,4.6,16.5,2.7,21.1-4.4,0,0,0,0,0,0,4.6-7,2.7-16.5-4.4-21.1Z"/>
      <path class="st0" d="M300.2,484.7c-6.9-.4-12.9,4.9-13.3,11.8-.4,6.9,4.9,12.9,11.8,13.3,6.9.4,12.8-4.9,13.3-11.8.4-6.9-4.9-12.9-11.8-13.3,0,0,0,0,0,0Z"/>
      <path class="st0" d="M300.3,405.6c-9.9-.5-18.4,7-18.9,16.9-.5,9.9,7,18.4,16.9,18.9,9.9.5,18.3-7,18.9-16.9.6-9.9-7-18.4-16.9-18.9,0,0,0,0,0,0Z"/>
      <path class="st0" d="M373.7,425c-7.5,3.8-10.5,13-6.7,20.5,3.8,7.5,13,10.5,20.5,6.7,7.5-3.8,10.5-12.9,6.7-20.4-3.8-7.5-13-10.6-20.5-6.8,0,0,0,0,0,0Z"/>
    </g>
  </g>
  <metadata>
    <sfw xmlns="http://ns.adobe.com/SaveForWeb/1.0/">
      <slices/>
      <sliceSourceBounds x="-971.7" y="-8228.72" width="5853.97" height="3446.46" bottomLeftOrigin="true"/>
    </sfw>
  </metadata>
</svg>