<?xml version="1.0" encoding="UTF-8"?>
<svg id="Capa_1" xmlns="http://www.w3.org/2000/svg" version="1.1" viewBox="0 0 600 600">
  <!-- Generator: Adobe Illustrator 30.3.0, SVG Export Plug-In . SVG Version: 2.1.3 Build 182)  -->
  <defs>
    <style>
      .st0 {
        fill: none;
      }

      .st1 {
        fill: #12aaff;
      }

      .st2 {
        fill: #fff;
      }

      .st3 {
        fill: #9dcced;
      }

      .st4 {
        fill: #213147;
      }
    </style>
  </defs>
  <circle class="st2" cx="300.3" cy="300.3" r="300.1"/>
  <g>
    <path class="st4" d="M300.4,29.3c-7.1,0-14.2,1.9-20.5,5.5l-199.1,115c-12.6,7.3-20.5,20.8-20.5,35.5v229.9c0,14.6,7.9,28.3,20.5,35.6l199.1,115c6.3,3.7,13.4,5.5,20.5,5.5s14.2-1.9,20.5-5.5l199.1-115c12.8-7.3,20.5-20.8,20.5-35.6v-229.9c0-14.6-7.9-28.3-20.5-35.6l-199-114.8c-6.4-3.7-13.5-5.5-20.6-5.5h0Z"/>
    <path class="st0" d="M78.4,194v212.5c0,13.5,7.2,26,19,32.8l184,106.2c11.8,6.8,26.2,6.8,37.9,0l184-106.2c11.8-6.8,19-19.3,19-32.8v-212.5c0-13.5-7.2-26-19-32.8l-184-106.2c-11.8-6.8-26.2-6.8-37.9,0l-184,106.2c-11.6,6.8-19,19.3-19,32.8Z"/>
    <g>
      <path class="st1" d="M340.5,341.5l-26.3,71.9c-.8,2-.8,4.2,0,6.2l45.1,123.8,52.2-30.2-62.6-171.8c-1.4-4-7-4-8.4,0h0Z"/>
      <path class="st1" d="M393.1,220.4c-1.4-4-7-4-8.4,0l-26.3,71.9c-.8,2-.8,4.2,0,6.2l73.9,202.8,52.2-30.2-91.5-250.8h0Z"/>
    </g>
    <path class="st3" d="M300.3,62.8c1.3,0,2.6.3,3.8,1l199.1,115c2.3,1.3,3.8,3.8,3.8,6.4v229.9c0,2.7-1.4,5.1-3.8,6.4l-199.1,115.1c-1.1.7-2.4,1-3.8,1s-2.6-.3-3.8-1l-199-115c-2.3-1.3-3.8-3.8-3.8-6.4v-230c0-2.7,1.4-5.1,3.8-6.4l199.1-115c1.1-.7,2.4-1,3.7-1M300.3,29.3c-7.1,0-14.2,1.9-20.5,5.5l-199.1,115c-12.6,7.3-20.5,20.8-20.5,35.5v229.9c0,14.6,7.9,28.3,20.5,35.6l199.1,115c6.3,3.7,13.4,5.5,20.5,5.5s14.2-1.9,20.5-5.5l199.1-115c12.8-7.3,20.5-20.8,20.5-35.6v-229.9c0-14.6-7.9-28.3-20.5-35.6l-199-114.8c-6.4-3.7-13.5-5.5-20.6-5.5h0Z"/>
    <g>
      <path class="st2" d="M283.6,168.8h-50.4c-3.8,0-7.2,2.3-8.4,5.9l-108.2,296.7,52.2,30.2,119.2-326.7c1-2.9-1.1-6-4.3-6h0Z"/>
      <path class="st2" d="M371.9,168.8h-50.4c-3.8,0-7.2,2.3-8.4,5.9l-123.6,338.8,52.2,30.2,134.5-368.7c1.1-3-1.1-6.1-4.2-6.1Z"/>
    </g>
  </g>
  <metadata>
    <sfw xmlns="http://ns.adobe.com/SaveForWeb/1.0/">
      <slices/>
      <sliceSourceBounds x="-971.7" y="-8228.72" width="5853.97" height="3446.46" bottomLeftOrigin="true"/>
    </sfw>
  </metadata>
</svg>