<?xml version="1.0" encoding="UTF-8"?>
<svg id="Capa_1" xmlns="http://www.w3.org/2000/svg" version="1.1" viewBox="0 0 600 600">
  <!-- Generator: Adobe Illustrator 30.3.0, SVG Export Plug-In . SVG Version: 2.1.3 Build 182)  -->
  <defs>
    <style>
      .st0 {
        fill: #fff;
      }
    </style>
  </defs>
  <circle cx="300.3" cy="300.3" r="300.1"/>
  <g>
    <path class="st0" d="M292.4,311h19.2c1.9,1.3,3.4,1.4,5.6,1.1h1.1c1.5,1,2.6,1.5,4.5,1.1.4,0,.8,0,1.1,0,1.8,1.5,4.1,2.4,6.7,2.5h1c1.4,1.3,2.9,2.1,4.7,2.2.8.8,2.4.7,3.4.9,1.5,2,3.4,3.1,5.6,3.4,3.5,1.7,6.4,4.4,10,5.8l3.5,3.5,2.3.9,11.4,11.5c.9.5,2.5,1.4,3.3,2,4.4,5.3,9.5,10.4,14.8,14.9,1.6.5,3.2,2.1,4.4,3.1,4.1,5,8.7,9.6,13.6,13.8,1.6.5,3.1,2.1,4.4,3.1,4.1,5,8.7,9.6,13.6,13.8,1,.3,2.4,1.4,3.3,2,3.5,4.1,8.5,9.9,11.4,11.6,2.1,2.4,5.3,4.4,7.8,6.5,3.1,4.3,7.2,8,11.3,11.3.4.6,0,1-2,1h-41.9c-5.5-4.8-10.8-9.7-15.9-14.8-1.3-.5-2.4-2.2-3.4-3.2-5.7-5.3-11.4-10.6-17-16-3.2-1.5-4.3-3-6.7-5.4-3.6-4.6-7.8-8.8-12.5-12.5-1.1-.2-1.4-.4-2.2-1.1-4.9-6.2-10.6-11.9-17-17-1-.2-1.4-.5-2.2-1.1-.8-1.6-1.9-2.7-3.4-3.5-1.6,1-3-2-4.2-2.1-1.7-2.3-3.7-3.4-5.9-3.4-9.8-4.1-19.9-7.4-30.5-5.6-2.1-.7-4.3-.7-5.8,1-12.6,2.1-23.2,8-32.6,16.9l-14.6,13.8c-4.3,4.1-8.5,7.7-12.6,12.1s-5.3,4.6-7.8,7l-18.6,17.4-18,17.1c-15.1.8-29.6.3-44.2.2l-.7-.8,4.9-5.7c1.3-.9,3.4-1.8,4.4-3.1,3.5-2.6,8.9-8.2,12.5-12.7,1.3-1,2.8-2.6,4.4-3.1,5.2-4.6,10.4-9.6,14.8-14.9,1.3-1.1,3.4-1.8,4.4-3.1,3.5-2.5,9.7-9,13.6-13.8.8-.6,2.3-1.7,3.3-2,5.2-4.6,10.5-9.5,14.8-14.9,2-1.8,5-3.3,6.7-5.4,3.2-2,8-7.6,11.4-11.5,1-.7,2.3-1.2,3.3-2l4.7-3.6c2.1-2.2,4.9-5,7.8-5.7,2.1-.4,3.5-1.6,4.7-3.4,1.7-1,3.5-2,5.5-2.1,1.9,0,3.3-.9,4.7-2.2,2.5-.6,5.2-2.2,7.7-2.3,1.3-.1,2.2-.6,3.4-1.2h1.1c1.4.1,2.6-.2,3.5-1l2.1-.2c1.7,0,3-.2,4.5-1,1.1,0,2.3,0,3.4-.1Z"/>
    <path class="st0" d="M190.9,179.1c.3-.1.7.1,1,0l15.9,15.9c.6.2,1.7.5,2.3.9,4.5,5.3,9.4,10.3,14.7,14.9,1.4.4,2.3,1.1,3.4,2,4.3,5.5,9.5,10.1,14.7,14.8,1.7.5,2.1,1,3.4,2.1,3.9,5,8.7,9.4,13.5,13.5.3,0,.8-.1,1.1,0,1.2,1.8,2.6,3.4,4.5,4.5h1.1c1.1,1.9,2.4,3,4.5,3.4,1.7,1.2,3.8,1.6,5.6,2.3,2,2.2,6,3.4,9,3.4h1.1c1.7,1.2,3.5,2,5.6,1.1.7.2,1.6.2,2.3.1,3.8,1.2,7.6,1.7,11.3,0,1.1,0,2.3-.1,3.4-.2,1.9.3,3,0,4.5-1.1h1.1c3,0,7-1.2,9-3.4,1.7-.6,3.7-2.4,5.6-2.1,2-.6,3.4-1.7,4.5-3.5.3-.1.8,0,1.1,0,1.4-.6,2.5-1.8,3.4-3.4.7-.3,1.5-.8,2.3-.9,4.2-3.5,7.9-7.3,11.3-11.5,1.6-1.4,3.1-3.8,5.5-4.3,4.2-3.4,8-7.3,11.4-11.5,1.5-1.3,2.2-2.5,4.4-3.1,4.9-4.2,9.5-8.8,13.6-13.8,1.7-1.4,4.2-2.6,5.5-4.3,2.9-1.7,7.2-6.8,10.2-10.4,1.2-.8,3.1-2.6,4.4-3.1,2.7-2.6,5.5-5,8.5-7.3,14.1-.3,28.3-.3,42.4,0,.6.5.2,1.4-1.1,2.5,7.4-5.4-34.6,33.3-33.4,32.1l-18.5,17.5-18.7,17.5-16.9,15.9c-7.1,6.6-13.7,12.6-22.3,17.2-20.2,11.1-42.7,15.8-65.4,10.7-9.6-2.2-18.6-4.7-26.7-9.3-1.2-1.6-2.8-2.8-4.6-3.5-1.6-.4-2.8-1.7-4.4-2.3-1-1.5-2.1-2.6-3.5-3.2h-1.1c-2-2.6-4.1-5.1-6.8-7-1.4,0-2.4-1.2-3.4-2-4.5-5.3-9.4-10.3-14.7-14.9-2.2-.6-3-1.8-4.5-3.2-4.1-4.9-8.6-9.5-13.5-13.8-2.2-.6-3-1.8-4.5-3.2-4.1-4.9-8.6-9.5-13.5-13.8-2.2-.6-3-1.8-4.5-3.2-3.6-4.6-8-8.9-12.5-12.7-.9-.5-2.5-1.4-3.3-2-4.5-5.3-9.4-10.3-14.7-14.9-1.8-.6-3.8-1.3-4.5-3.2-.2-.7-.3-1.2,0-1.4,1.9-1.3,41.4-.6,45.5.7,1.2,1.7,2.6,3.1,4.2,4.2Z"/>
    <path class="st0" d="M457.1,176.7c0-.5.2-1.2,0-1.6s-1.2-.7-2.2-.7l-38.8.4c-3.7,2-5,6.5-8.7,6.7,1.9-2.5,4.7-6.8,8-8h46.3c0-.1-4.6,3.2-4.6,3.2Z"/>
    <path class="st0" d="M190.9,179.1c-2.5,1-3.8-4-5.9-4.2-13.5-1-26.7-.3-40.1-.3-1.4,0-3.2.1-3.6,1-1.2.2-1.5-1-1-2.3l44.9.3c2.7,0,4.5,4,5.7,5.5Z"/>
    <path class="st0" d="M359,374.1c-6.1-5.2-11.8-10.9-17-17,5.4,1.2,8.1,7.6,13.1,10.6,2.6,1.5,4.9,3.7,3.9,6.4Z"/>
    <path class="st0" d="M397.3,409.1c-1.2,1.7-16.4-14.6-17-16,6.9,3.1,11.6,10.6,17,16Z"/>
    <path class="st0" d="M207.8,195c-3.3-1.2-15.3-12.8-15.9-15.9,5.9,4.5,11.4,10,15.9,15.9Z"/>
    <path class="st0" d="M416.6,427.1c-3.3,0-13.8-11.9-15.9-14.8-2.4-5,16.3,15,15.9,14.8Z"/>
    <path class="st0" d="M167.1,401.5c4.2-5.5,9.4-10.4,14.8-14.9-.1,1.2-.5,2.8-1.9,3.8-4.9,3.5-7.5,9.5-12.9,11.1Z"/>
    <path class="st0" d="M160.4,193.7c-5.3-4.5-10.6-9.4-14.7-14.9,3.1,1,14.9,12.4,14.7,14.9Z"/>
    <path class="st0" d="M203.2,367.6c4.2-5.6,9.5-10.3,14.8-14.9-.1,1.2-.5,2.8-1.9,3.8-4.9,3.4-7.5,9.6-12.9,11.1Z"/>
    <path class="st0" d="M390.7,360.9c-5.3-1.7-8-7.7-12.9-11.2s-1.8-2.6-1.9-3.8c5.3,4.5,10.6,9.4,14.8,14.9Z"/>
    <path class="st0" d="M309.4,311c1.3,1.7-18.1,1.7-16.9,0,5.5-1.7,11.4-1.7,16.9,0Z"/>
    <path class="st0" d="M224.8,210.8c-3.1-.9-14.9-12.4-14.7-14.9,5.3,4.5,10.6,9.3,14.7,14.9Z"/>
    <path class="st0" d="M242.8,227.6c-3.3-1-14.7-12.1-14.7-14.8,5.3,4.5,10.5,9.3,14.7,14.8Z"/>
    <path class="st0" d="M231.5,260.2c-5.3-4.5-10.6-9.3-14.7-14.9,3,.8,15,12.5,14.7,14.9Z"/>
    <path class="st0" d="M186.3,383.4c3.9-5.1,8.6-9.8,13.6-13.8,0,1.3-.7,2.5-1.9,3.7l-10.9,10.8c-.4.4-1.3-.1-.9-.7Z"/>
    <path class="st0" d="M212.3,242.2c-4.8-4.2-9.9-8.5-13.5-13.8,3.1.9,13.8,11.4,13.5,13.8Z"/>
    <path class="st0" d="M259.7,243.3c-3.3-.7-13.5-10.9-13.5-13.5,4.9,4.1,9.6,8.5,13.5,13.5Z"/>
    <path class="st0" d="M194.3,225.2c-4.8-4.2-9.9-8.5-13.5-13.8,3.1.9,13.9,11.4,13.5,13.8Z"/>
    <path class="st0" d="M426.8,394.7c-3.3-1-13.8-11.3-13.6-13.8,5,4.1,9.8,8.7,13.6,13.8Z"/>
    <path class="st0" d="M373.6,213.1c3.8-5.1,8.7-9.7,13.6-13.8.3,2.4-10.4,12.9-13.6,13.8Z"/>
    <path class="st0" d="M408.7,377.8c-3.3-1-13.8-11.3-13.6-13.8,5,4.1,9.8,8.7,13.6,13.8Z"/>
    <path class="st0" d="M373.7,387.7c-4.1-4.1-9.2-7.6-12.5-12.5,3.3.5,12.7,10.2,12.5,12.5Z"/>
    <path class="st0" d="M176.2,208.3c-4.4-3.8-9.1-7.8-12.5-12.7-1.4-3.8,15.5,13.3,12.5,12.7Z"/>
    <path class="st0" d="M150.2,417.3c3.6-4.7,7.9-9,12.5-12.7,0,1.3-.7,2.5-1.9,3.7l-9.7,9.7c-.4.4-1.3-.1-.9-.7Z"/>
    <path class="st0" d="M372.6,343.9c1.1,3.5-14.1-11.8-11.4-11.5,4.8,1.9,8.3,7.2,11.4,11.5Z"/>
    <path class="st0" d="M357.8,227.7c3-4.5,7.3-8,11.4-11.5.4,2.1-8.2,10.9-11.4,11.5Z"/>
    <path class="st0" d="M224.7,347.3c3.4-4.1,6.9-8.4,11.4-11.5,0,1.3-.7,2.5-1.9,3.7l-8.6,8.5c-.4.4-1.3-.1-.9-.7Z"/>
    <path class="st0" d="M441.4,408.3c.4.6-.4,1.1-.9.7l-8.6-8.5c-1.2-1.2-1.9-2.4-1.9-3.7,4.5,3,7.9,7.5,11.4,11.6Z"/>
    <path class="st0" d="M340.9,243.5c2.9-4.5,7.2-8.1,11.3-11.5.4,2.1-8.3,10.9-11.3,11.5Z"/>
    <path class="st0" d="M460.5,426c-.7,1.8-13.2-10.6-11.3-11.3,4,3.4,8.2,7,11.3,11.3Z"/>
    <path class="st0" d="M392.7,195c3-3.8,6.2-7.7,10.2-10.4,0,1-.3,2.1-1.3,3.1l-8.1,8c-.4.4-1.3-.1-.9-.7Z"/>
    <path class="st0" d="M306,258.1c-2.3,3.6-8.4,2.8-11.3,0,3.8-.2,7.5-.3,11.3,0Z"/>
    <path class="st0" d="M241.7,269.2c-2.7-1.7-5.2-4.1-6.8-7,3.2.2,6,4,6.8,7Z"/>
    <path class="st0" d="M332.2,350.5c-2.2-.3-4.1-2.6-5.9-3.4-.8-3.2,6.9,2,6.7,1.7.3.4-.7,1.2-.7,1.7Z"/>
    <path class="st0" d="M285.7,256.8c.6,2.2-11.4-1.6-9-3.4l9,3.4Z"/>
    <path class="st0" d="M141.7,426.9c-.6,0-1.4.8-2.7-.2,2.3-2.4,4.3-4.7,6.9-6.4,0,3-3.2,4-4.1,6.5Z"/>
    <path class="st0" d="M315,256.8l9-3.4c2.3,1.8-9.7,5.6-9,3.4Z"/>
    <path class="st0" d="M330.7,315.8c-2.2.8-6.9.4-6.7-2.5,2.4.4,4.7,1.1,6.7,2.5Z"/>
    <path class="st0" d="M317.3,312.1c-.7.9-1.7,1.3-2.7,1.2s-2.6-1-2.9-2.3c2,0,4,0,5.6,1.1Z"/>
    <path class="st0" d="M255.3,278.3c-1.7-1-4-1.3-4.6-3.5.6-1.9,2,0,2.8.4,1.3.6,1.9,2,1.8,3.1Z"/>
    <path class="st0" d="M345.5,322.3c-1.7,1.7-5.7-1.1-5.6-3.4,2.3.4,3.8,2.5,5.6,3.4Z"/>
    <path class="st0" d="M289.1,311.1c-.4.9-1.1,1.7-2,2s-2-.2-2.5-1c.7-1.8,3-1.1,4.5-1Z"/>
    <path class="st0" d="M336.4,318c-.3,1.3-1.7.7-2.4.4-1.2-.5-2.5-1.3-2.4-2.5,1.9.2,3.4.8,4.7,2.1Z"/>
    <path class="st0" d="M262,319c1.2-1.3,3-1.8,4.7-2.2,0,1.1-.5,1.8-1.5,2.4-.9.5-2.7,1.6-3.1-.1Z"/>
    <path class="st0" d="M251.8,324.5c1.2-1.5,3-2.4,4.7-3.4.1,1.2-.6,2.3-1.9,3.3s-1.8.7-2.8,0Z"/>
    <path class="st0" d="M244,330.2c-1.4,1.4-2.4,4.5-4.7,3.6.8-2,2.4-3.7,4.7-3.6Z"/>
    <path class="st0" d="M295.8,341.4l-5.8,1c-.5-1.5.8-2.2,1.9-2.2,1.5,0,3.5-.4,3.9,1.2Z"/>
    <path class="st0" d="M292.4,258c0,1.4-1.8,1.2-2.8,1.2-1.4,0-2.5-.9-2.9-2.3,1.9,0,3.8.7,5.6,1.1Z"/>
    <path class="st0" d="M329.7,251.3c1.2-1.5,2.8-2.6,4.5-3.5.1,1.3-.4,2.2-1.7,3.3s-1.6.4-2.8.2Z"/>
    <path class="st0" d="M271,251.2c-1,.6-2.1.5-2.8,0-1.2-1-2-2.2-1.7-3.3,1.6,1,3.3,1.9,4.5,3.4Z"/>
    <path class="st0" d="M265.4,247.8c-2.5,0-4.5-2-4.5-4.5,2,.9,3.4,2.7,4.5,4.5Z"/>
    <path class="st0" d="M339.8,356.1c-1.4-1-2.9-1.7-3.4-3.5,2.1-1.3,3.2,1.6,3.4,3.5Z"/>
    <path class="st0" d="M335.3,247.8c.7-1.5,1.8-2.8,3.4-3.4,0,1.7-1.6,5.2-3.4,3.4Z"/>
    <path class="st0" d="M246.3,272.5c-1.6-.6-2.9-1.6-3.5-3.2,1.7-1.8,3.3,1.6,3.5,3.2Z"/>
    <path class="st0" d="M322.9,313.2c-.6.9-1.6,1.4-2.6,1s-1.7-1.2-1.9-2.2c1.6,0,3.2.3,4.5,1.1Z"/>
    <path class="st0" d="M282.4,312.3c.4.7,0,1.8-.8,2.1s-2.2-.2-2.8-1.1c.4-1.6,2.3-.9,3.5-1Z"/>
    <path class="st0" d="M359,331.5c-2,1.1-3.2-1.8-3.5-3.5,1.7.6,3.1,1.6,3.5,3.5Z"/>
    <path class="st0" d="M313.9,256.8c-.3,1-.9,1.8-1.9,2.2-1,.3-2-.2-2.6-1,1.3-.9,2.9-1.1,4.5-1.1Z"/>
    <path class="st0" d="M277.8,313.2c-.2.7-.6,1.2-1.1,1.8s-1.6,0-2.3-.5c.3-1.5,2.1-1.2,3.4-1.2Z"/>
  </g>
  <metadata>
    <sfw xmlns="http://ns.adobe.com/SaveForWeb/1.0/">
      <slices/>
      <sliceSourceBounds x="-971.7" y="-8228.72" width="5853.97" height="3446.46" bottomLeftOrigin="true"/>
    </sfw>
  </metadata>
</svg>