<?xml version="1.0" encoding="UTF-8"?>
<svg id="Capa_1" xmlns="http://www.w3.org/2000/svg" xmlns:xlink="http://www.w3.org/1999/xlink" version="1.1" viewBox="0 0 600 600">
  <!-- Generator: Adobe Illustrator 30.3.0, SVG Export Plug-In . SVG Version: 2.1.3 Build 182)  -->
  <defs>
    <style>
      .st0 {
        fill: none;
      }

      .st1 {
        fill: #d0a449;
      }

      .st2 {
        fill: #ba974b;
      }

      .st3 {
        fill: #ecd07f;
      }

      .st4 {
        fill: #957f4c;
      }

      .st5 {
        fill: #cfb161;
      }

      .st6 {
        fill: #bb9547;
      }

      .st7 {
        fill: #706443;
      }

      .st8 {
        fill: #d6c48f;
      }

      .st9 {
        fill: #d9b660;
      }

      .st10 {
        fill: #d5bc72;
      }

      .st11 {
        fill: #91652d;
      }

      .st12 {
        fill: #71684e;
      }

      .st13 {
        fill: #ca9c42;
      }

      .st14 {
        fill: #3e3521;
      }

      .st15 {
        fill: #efd698;
      }

      .st16 {
        fill: #e0bc64;
      }

      .st17 {
        fill: #d1aa51;
      }

      .st18 {
        fill: #d8b057;
      }

      .st19 {
        fill: #37301b;
      }

      .st20 {
        fill: #c6a655;
      }

      .st21 {
        fill: #e6c478;
      }

      .st22 {
        fill: #2a2410;
      }

      .st23 {
        fill: #cea045;
      }

      .st24 {
        fill: #e2c782;
      }

      .st25 {
        fill: #f4d890;
      }

      .st26 {
        fill: #563d24;
      }

      .st27 {
        fill: #ac7d36;
      }

      .st28 {
        fill: #c8aa60;
      }

      .st29 {
        fill: #e8cd81;
      }

      .st30 {
        fill: #584e34;
      }

      .st31 {
        fill: #e7c779;
      }

      .st32 {
        fill: #b09452;
      }

      .st33 {
        fill: #c59c44;
      }

      .st34 {
        fill: #bb893d;
      }

      .st35 {
        fill: #251e0b;
      }

      .st36 {
        fill: #e2c87f;
      }

      .st37 {
        fill: #e5cd8b;
      }

      .st38 {
        fill: #e8d9a1;
      }

      .st39 {
        fill: #e7dba2;
      }

      .st40 {
        fill: #e2c478;
      }

      .st41 {
        fill: #f5e2a2;
      }

      .st42 {
        fill: #a28f5b;
      }

      .st43 {
        fill: #d2b25b;
      }

      .st44 {
        fill: #d8bb70;
      }

      .st45 {
        fill: #c39e4d;
      }

      .st46 {
        fill: #d0ab55;
      }

      .st47 {
        fill: #dabe76;
      }

      .st48 {
        fill: #d4c386;
      }

      .st49 {
        fill: #e3c271;
      }

      .st50 {
        fill: #ebc06c;
      }

      .st51 {
        fill: #f4efcb;
      }

      .st52 {
        fill: #f3e8b4;
      }

      .st53 {
        clip-path: url(#clippath-17);
      }

      .st54 {
        clip-path: url(#clippath-19);
      }

      .st55 {
        clip-path: url(#clippath-11);
      }

      .st56 {
        clip-path: url(#clippath-16);
      }

      .st57 {
        clip-path: url(#clippath-18);
      }

      .st58 {
        clip-path: url(#clippath-10);
      }

      .st59 {
        clip-path: url(#clippath-15);
      }

      .st60 {
        clip-path: url(#clippath-13);
      }

      .st61 {
        clip-path: url(#clippath-14);
      }

      .st62 {
        clip-path: url(#clippath-12);
      }

      .st63 {
        clip-path: url(#clippath-61);
      }

      .st64 {
        clip-path: url(#clippath-67);
      }

      .st65 {
        clip-path: url(#clippath-68);
      }

      .st66 {
        clip-path: url(#clippath-60);
      }

      .st67 {
        clip-path: url(#clippath-65);
      }

      .st68 {
        clip-path: url(#clippath-62);
      }

      .st69 {
        clip-path: url(#clippath-64);
      }

      .st70 {
        clip-path: url(#clippath-66);
      }

      .st71 {
        clip-path: url(#clippath-63);
      }

      .st72 {
        clip-path: url(#clippath-76);
      }

      .st73 {
        clip-path: url(#clippath-78);
      }

      .st74 {
        clip-path: url(#clippath-75);
      }

      .st75 {
        clip-path: url(#clippath-79);
      }

      .st76 {
        clip-path: url(#clippath-50);
      }

      .st77 {
        clip-path: url(#clippath-55);
      }

      .st78 {
        clip-path: url(#clippath-52);
      }

      .st79 {
        clip-path: url(#clippath-57);
      }

      .st80 {
        clip-path: url(#clippath-54);
      }

      .st81 {
        clip-path: url(#clippath-56);
      }

      .st82 {
        clip-path: url(#clippath-53);
      }

      .st83 {
        clip-path: url(#clippath-70);
      }

      .st84 {
        clip-path: url(#clippath-77);
      }

      .st85 {
        clip-path: url(#clippath-74);
      }

      .st86 {
        clip-path: url(#clippath-71);
      }

      .st87 {
        clip-path: url(#clippath-73);
      }

      .st88 {
        clip-path: url(#clippath-72);
      }

      .st89 {
        clip-path: url(#clippath-51);
      }

      .st90 {
        clip-path: url(#clippath-58);
      }

      .st91 {
        clip-path: url(#clippath-59);
      }

      .st92 {
        clip-path: url(#clippath-31);
      }

      .st93 {
        clip-path: url(#clippath-32);
      }

      .st94 {
        clip-path: url(#clippath-33);
      }

      .st95 {
        clip-path: url(#clippath-34);
      }

      .st96 {
        clip-path: url(#clippath-35);
      }

      .st97 {
        clip-path: url(#clippath-39);
      }

      .st98 {
        clip-path: url(#clippath-30);
      }

      .st99 {
        clip-path: url(#clippath-36);
      }

      .st100 {
        clip-path: url(#clippath-37);
      }

      .st101 {
        clip-path: url(#clippath-38);
      }

      .st102 {
        clip-path: url(#clippath-27);
      }

      .st103 {
        clip-path: url(#clippath-29);
      }

      .st104 {
        clip-path: url(#clippath-26);
      }

      .st105 {
        clip-path: url(#clippath-28);
      }

      .st106 {
        clip-path: url(#clippath-20);
      }

      .st107 {
        clip-path: url(#clippath-21);
      }

      .st108 {
        clip-path: url(#clippath-22);
      }

      .st109 {
        clip-path: url(#clippath-23);
      }

      .st110 {
        clip-path: url(#clippath-24);
      }

      .st111 {
        clip-path: url(#clippath-25);
      }

      .st112 {
        clip-path: url(#clippath-69);
      }

      .st113 {
        clip-path: url(#clippath-41);
      }

      .st114 {
        clip-path: url(#clippath-42);
      }

      .st115 {
        clip-path: url(#clippath-43);
      }

      .st116 {
        clip-path: url(#clippath-44);
      }

      .st117 {
        clip-path: url(#clippath-45);
      }

      .st118 {
        clip-path: url(#clippath-49);
      }

      .st119 {
        clip-path: url(#clippath-40);
      }

      .st120 {
        clip-path: url(#clippath-46);
      }

      .st121 {
        clip-path: url(#clippath-47);
      }

      .st122 {
        clip-path: url(#clippath-48);
      }

      .st123 {
        clip-path: url(#clippath-90);
      }

      .st124 {
        clip-path: url(#clippath-95);
      }

      .st125 {
        clip-path: url(#clippath-93);
      }

      .st126 {
        clip-path: url(#clippath-99);
      }

      .st127 {
        clip-path: url(#clippath-94);
      }

      .st128 {
        clip-path: url(#clippath-96);
      }

      .st129 {
        clip-path: url(#clippath-85);
      }

      .st130 {
        clip-path: url(#clippath-86);
      }

      .st131 {
        clip-path: url(#clippath-87);
      }

      .st132 {
        clip-path: url(#clippath-80);
      }

      .st133 {
        clip-path: url(#clippath-89);
      }

      .st134 {
        clip-path: url(#clippath-81);
      }

      .st135 {
        clip-path: url(#clippath-82);
      }

      .st136 {
        clip-path: url(#clippath-83);
      }

      .st137 {
        clip-path: url(#clippath-84);
      }

      .st138 {
        clip-path: url(#clippath-88);
      }

      .st139 {
        clip-path: url(#clippath-92);
      }

      .st140 {
        clip-path: url(#clippath-97);
      }

      .st141 {
        clip-path: url(#clippath-91);
      }

      .st142 {
        clip-path: url(#clippath-98);
      }

      .st143 {
        fill: #e2ce87;
      }

      .st144 {
        clip-path: url(#clippath-1);
      }

      .st145 {
        clip-path: url(#clippath-3);
      }

      .st146 {
        clip-path: url(#clippath-4);
      }

      .st147 {
        clip-path: url(#clippath-2);
      }

      .st148 {
        clip-path: url(#clippath-7);
      }

      .st149 {
        clip-path: url(#clippath-6);
      }

      .st150 {
        clip-path: url(#clippath-9);
      }

      .st151 {
        clip-path: url(#clippath-8);
      }

      .st152 {
        clip-path: url(#clippath-5);
      }

      .st153 {
        fill: #ac913c;
      }

      .st154 {
        fill: #cfae62;
      }

      .st155 {
        fill: #efce7c;
      }

      .st156 {
        clip-path: url(#clippath-102);
      }

      .st157 {
        clip-path: url(#clippath-101);
      }

      .st158 {
        clip-path: url(#clippath-104);
      }

      .st159 {
        clip-path: url(#clippath-109);
      }

      .st160 {
        clip-path: url(#clippath-106);
      }

      .st161 {
        clip-path: url(#clippath-103);
      }

      .st162 {
        clip-path: url(#clippath-105);
      }

      .st163 {
        clip-path: url(#clippath-100);
      }

      .st164 {
        clip-path: url(#clippath-108);
      }

      .st165 {
        clip-path: url(#clippath-107);
      }

      .st166 {
        clip-path: url(#clippath-118);
      }

      .st167 {
        clip-path: url(#clippath-114);
      }

      .st168 {
        clip-path: url(#clippath-119);
      }

      .st169 {
        clip-path: url(#clippath-111);
      }

      .st170 {
        clip-path: url(#clippath-110);
      }

      .st171 {
        clip-path: url(#clippath-113);
      }

      .st172 {
        clip-path: url(#clippath-112);
      }

      .st173 {
        clip-path: url(#clippath-117);
      }

      .st174 {
        clip-path: url(#clippath-115);
      }

      .st175 {
        clip-path: url(#clippath-116);
      }

      .st176 {
        clip-path: url(#clippath-120);
      }

      .st177 {
        fill: #847751;
      }

      .st178 {
        fill: #97743e;
      }

      .st179 {
        fill: #c89f46;
      }

      .st180 {
        fill: #d3b873;
      }

      .st181 {
        fill: #201d0a;
      }

      .st182 {
        fill: #d1aa53;
      }

      .st183 {
        fill: #dbbe73;
      }

      .st184 {
        fill: #b69045;
      }

      .st185 {
        fill: #7d6b2d;
      }

      .st186 {
        fill: #bb9244;
      }

      .st187 {
        fill: #eecb79;
      }

      .st188 {
        fill: #595035;
      }

      .st189 {
        fill: #e9c874;
      }

      .st190 {
        fill: #d0b568;
      }

      .st191 {
        fill: #6b5026;
      }

      .st192 {
        fill: #c6b47d;
      }

      .st193 {
        fill: #f6f6e8;
      }

      .st194 {
        fill: #e8cd83;
      }

      .st195 {
        fill: #e4d6a1;
      }

      .st196 {
        fill: #f4ecb8;
      }

      .st197 {
        fill: #846233;
      }

      .st198 {
        fill: #bea13e;
      }

      .st199 {
        fill: #453822;
      }

      .st200 {
        fill: #dbc37a;
      }

      .st201 {
        fill: #d7b362;
      }

      .st202 {
        fill: #b2833a;
      }

      .st203 {
        fill: #eac570;
      }

      .st204 {
        fill: #e7c87f;
      }

      .st205 {
        fill: #f8f5df;
      }

      .st206 {
        fill: #c89942;
      }

      .st207 {
        fill: #f5eec3;
      }

      .st208 {
        fill: #d1b059;
      }

      .st209 {
        fill: #cfa148;
      }

      .st210 {
        clip-path: url(#clippath);
      }

      .st211 {
        fill: #a67f3a;
      }

      .st212 {
        fill: #86764d;
      }

      .st213 {
        fill: #9b8537;
      }

      .st214 {
        fill: #ddb864;
      }

      .st215 {
        fill: #2a240f;
      }

      .st216 {
        fill: #d6b460;
      }

      .st217 {
        fill: #fff;
        isolation: isolate;
        opacity: .8;
      }

      .st218 {
        fill: #d8ab4a;
      }
    </style>
    <clipPath id="clippath">
      <circle class="st0" cx="299.9" cy="300.1" r="282.8"/>
    </clipPath>
    <clipPath id="clippath-1">
      <circle class="st0" cx="299.9" cy="300.1" r="282.8"/>
    </clipPath>
    <clipPath id="clippath-2">
      <circle class="st0" cx="299.9" cy="300.1" r="282.8"/>
    </clipPath>
    <clipPath id="clippath-3">
      <circle class="st0" cx="299.9" cy="300.1" r="282.8"/>
    </clipPath>
    <clipPath id="clippath-4">
      <circle class="st0" cx="299.9" cy="300.1" r="282.8"/>
    </clipPath>
    <clipPath id="clippath-5">
      <circle class="st0" cx="299.9" cy="300.1" r="282.8"/>
    </clipPath>
    <clipPath id="clippath-6">
      <circle class="st0" cx="299.9" cy="300.1" r="282.8"/>
    </clipPath>
    <clipPath id="clippath-7">
      <circle class="st0" cx="299.9" cy="300.1" r="282.8"/>
    </clipPath>
    <clipPath id="clippath-8">
      <circle class="st0" cx="299.9" cy="300.1" r="282.8"/>
    </clipPath>
    <clipPath id="clippath-9">
      <circle class="st0" cx="299.9" cy="300.1" r="282.8"/>
    </clipPath>
    <clipPath id="clippath-10">
      <circle class="st0" cx="299.9" cy="300.1" r="282.8"/>
    </clipPath>
    <clipPath id="clippath-11">
      <circle class="st0" cx="299.9" cy="300.1" r="282.8"/>
    </clipPath>
    <clipPath id="clippath-12">
      <circle class="st0" cx="299.9" cy="300.1" r="282.8"/>
    </clipPath>
    <clipPath id="clippath-13">
      <circle class="st0" cx="299.9" cy="300.1" r="282.8"/>
    </clipPath>
    <clipPath id="clippath-14">
      <circle class="st0" cx="299.9" cy="300.1" r="282.8"/>
    </clipPath>
    <clipPath id="clippath-15">
      <circle class="st0" cx="299.9" cy="300.1" r="282.8"/>
    </clipPath>
    <clipPath id="clippath-16">
      <circle class="st0" cx="299.9" cy="300.1" r="282.8"/>
    </clipPath>
    <clipPath id="clippath-17">
      <circle class="st0" cx="299.9" cy="300.1" r="282.8"/>
    </clipPath>
    <clipPath id="clippath-18">
      <circle class="st0" cx="299.9" cy="300.1" r="282.8"/>
    </clipPath>
    <clipPath id="clippath-19">
      <circle class="st0" cx="299.9" cy="300.1" r="282.8"/>
    </clipPath>
    <clipPath id="clippath-20">
      <circle class="st0" cx="299.9" cy="300.1" r="282.8"/>
    </clipPath>
    <clipPath id="clippath-21">
      <circle class="st0" cx="299.9" cy="300.1" r="282.8"/>
    </clipPath>
    <clipPath id="clippath-22">
      <circle class="st0" cx="299.9" cy="300.1" r="282.8"/>
    </clipPath>
    <clipPath id="clippath-23">
      <circle class="st0" cx="299.9" cy="300.1" r="282.8"/>
    </clipPath>
    <clipPath id="clippath-24">
      <circle class="st0" cx="299.9" cy="300.1" r="282.8"/>
    </clipPath>
    <clipPath id="clippath-25">
      <circle class="st0" cx="299.9" cy="300.1" r="282.8"/>
    </clipPath>
    <clipPath id="clippath-26">
      <circle class="st0" cx="299.9" cy="300.1" r="282.8"/>
    </clipPath>
    <clipPath id="clippath-27">
      <circle class="st0" cx="299.9" cy="300.1" r="282.8"/>
    </clipPath>
    <clipPath id="clippath-28">
      <circle class="st0" cx="299.9" cy="300.1" r="282.8"/>
    </clipPath>
    <clipPath id="clippath-29">
      <circle class="st0" cx="299.9" cy="300.1" r="282.8"/>
    </clipPath>
    <clipPath id="clippath-30">
      <circle class="st0" cx="299.9" cy="300.1" r="282.8"/>
    </clipPath>
    <clipPath id="clippath-31">
      <circle class="st0" cx="299.9" cy="300.1" r="282.8"/>
    </clipPath>
    <clipPath id="clippath-32">
      <circle class="st0" cx="299.9" cy="300.1" r="282.8"/>
    </clipPath>
    <clipPath id="clippath-33">
      <circle class="st0" cx="299.9" cy="300.1" r="282.8"/>
    </clipPath>
    <clipPath id="clippath-34">
      <circle class="st0" cx="299.9" cy="300.1" r="282.8"/>
    </clipPath>
    <clipPath id="clippath-35">
      <circle class="st0" cx="299.9" cy="300.1" r="282.8"/>
    </clipPath>
    <clipPath id="clippath-36">
      <circle class="st0" cx="299.9" cy="300.1" r="282.8"/>
    </clipPath>
    <clipPath id="clippath-37">
      <circle class="st0" cx="299.9" cy="300.1" r="282.8"/>
    </clipPath>
    <clipPath id="clippath-38">
      <circle class="st0" cx="299.9" cy="300.1" r="282.8"/>
    </clipPath>
    <clipPath id="clippath-39">
      <circle class="st0" cx="299.9" cy="300.1" r="282.8"/>
    </clipPath>
    <clipPath id="clippath-40">
      <circle class="st0" cx="299.9" cy="300.1" r="282.8"/>
    </clipPath>
    <clipPath id="clippath-41">
      <circle class="st0" cx="299.9" cy="300.1" r="282.8"/>
    </clipPath>
    <clipPath id="clippath-42">
      <circle class="st0" cx="299.9" cy="300.1" r="282.8"/>
    </clipPath>
    <clipPath id="clippath-43">
      <circle class="st0" cx="299.9" cy="300.1" r="282.8"/>
    </clipPath>
    <clipPath id="clippath-44">
      <circle class="st0" cx="299.9" cy="300.1" r="282.8"/>
    </clipPath>
    <clipPath id="clippath-45">
      <circle class="st0" cx="299.9" cy="300.1" r="282.8"/>
    </clipPath>
    <clipPath id="clippath-46">
      <circle class="st0" cx="299.9" cy="300.1" r="282.8"/>
    </clipPath>
    <clipPath id="clippath-47">
      <circle class="st0" cx="299.9" cy="300.1" r="282.8"/>
    </clipPath>
    <clipPath id="clippath-48">
      <circle class="st0" cx="299.9" cy="300.1" r="282.8"/>
    </clipPath>
    <clipPath id="clippath-49">
      <circle class="st0" cx="299.9" cy="300.1" r="282.8"/>
    </clipPath>
    <clipPath id="clippath-50">
      <circle class="st0" cx="299.9" cy="300.1" r="282.8"/>
    </clipPath>
    <clipPath id="clippath-51">
      <circle class="st0" cx="299.9" cy="300.1" r="282.8"/>
    </clipPath>
    <clipPath id="clippath-52">
      <circle class="st0" cx="299.9" cy="300.1" r="282.8"/>
    </clipPath>
    <clipPath id="clippath-53">
      <circle class="st0" cx="299.9" cy="300.1" r="282.8"/>
    </clipPath>
    <clipPath id="clippath-54">
      <circle class="st0" cx="299.9" cy="300.1" r="282.8"/>
    </clipPath>
    <clipPath id="clippath-55">
      <circle class="st0" cx="299.9" cy="300.1" r="282.8"/>
    </clipPath>
    <clipPath id="clippath-56">
      <circle class="st0" cx="299.9" cy="300.1" r="282.8"/>
    </clipPath>
    <clipPath id="clippath-57">
      <circle class="st0" cx="299.9" cy="300.1" r="282.8"/>
    </clipPath>
    <clipPath id="clippath-58">
      <circle class="st0" cx="299.9" cy="300.1" r="282.8"/>
    </clipPath>
    <clipPath id="clippath-59">
      <circle class="st0" cx="299.9" cy="300.1" r="282.8"/>
    </clipPath>
    <clipPath id="clippath-60">
      <circle class="st0" cx="299.9" cy="300.1" r="282.8"/>
    </clipPath>
    <clipPath id="clippath-61">
      <circle class="st0" cx="299.9" cy="300.1" r="282.8"/>
    </clipPath>
    <clipPath id="clippath-62">
      <circle class="st0" cx="299.9" cy="300.1" r="282.8"/>
    </clipPath>
    <clipPath id="clippath-63">
      <circle class="st0" cx="299.9" cy="300.1" r="282.8"/>
    </clipPath>
    <clipPath id="clippath-64">
      <circle class="st0" cx="299.9" cy="300.1" r="282.8"/>
    </clipPath>
    <clipPath id="clippath-65">
      <circle class="st0" cx="299.9" cy="300.1" r="282.8"/>
    </clipPath>
    <clipPath id="clippath-66">
      <circle class="st0" cx="299.9" cy="300.1" r="282.8"/>
    </clipPath>
    <clipPath id="clippath-67">
      <circle class="st0" cx="299.9" cy="300.1" r="282.8"/>
    </clipPath>
    <clipPath id="clippath-68">
      <circle class="st0" cx="299.9" cy="300.1" r="282.8"/>
    </clipPath>
    <clipPath id="clippath-69">
      <circle class="st0" cx="299.9" cy="300.1" r="282.8"/>
    </clipPath>
    <clipPath id="clippath-70">
      <circle class="st0" cx="299.9" cy="300.1" r="282.8"/>
    </clipPath>
    <clipPath id="clippath-71">
      <circle class="st0" cx="299.9" cy="300.1" r="282.8"/>
    </clipPath>
    <clipPath id="clippath-72">
      <circle class="st0" cx="299.9" cy="300.1" r="282.8"/>
    </clipPath>
    <clipPath id="clippath-73">
      <circle class="st0" cx="299.9" cy="300.1" r="282.8"/>
    </clipPath>
    <clipPath id="clippath-74">
      <circle class="st0" cx="299.9" cy="300.1" r="282.8"/>
    </clipPath>
    <clipPath id="clippath-75">
      <circle class="st0" cx="299.9" cy="300.1" r="282.8"/>
    </clipPath>
    <clipPath id="clippath-76">
      <circle class="st0" cx="299.9" cy="300.1" r="282.8"/>
    </clipPath>
    <clipPath id="clippath-77">
      <circle class="st0" cx="299.9" cy="300.1" r="282.8"/>
    </clipPath>
    <clipPath id="clippath-78">
      <circle class="st0" cx="299.9" cy="300.1" r="282.8"/>
    </clipPath>
    <clipPath id="clippath-79">
      <circle class="st0" cx="299.9" cy="300.1" r="282.8"/>
    </clipPath>
    <clipPath id="clippath-80">
      <circle class="st0" cx="299.9" cy="300.1" r="282.8"/>
    </clipPath>
    <clipPath id="clippath-81">
      <circle class="st0" cx="299.9" cy="300.1" r="282.8"/>
    </clipPath>
    <clipPath id="clippath-82">
      <circle class="st0" cx="299.9" cy="300.1" r="282.8"/>
    </clipPath>
    <clipPath id="clippath-83">
      <circle class="st0" cx="299.9" cy="300.1" r="282.8"/>
    </clipPath>
    <clipPath id="clippath-84">
      <circle class="st0" cx="299.9" cy="300.1" r="282.8"/>
    </clipPath>
    <clipPath id="clippath-85">
      <circle class="st0" cx="299.9" cy="300.1" r="282.8"/>
    </clipPath>
    <clipPath id="clippath-86">
      <circle class="st0" cx="299.9" cy="300.1" r="282.8"/>
    </clipPath>
    <clipPath id="clippath-87">
      <circle class="st0" cx="299.9" cy="300.1" r="282.8"/>
    </clipPath>
    <clipPath id="clippath-88">
      <circle class="st0" cx="299.9" cy="300.1" r="282.8"/>
    </clipPath>
    <clipPath id="clippath-89">
      <circle class="st0" cx="299.9" cy="300.1" r="282.8"/>
    </clipPath>
    <clipPath id="clippath-90">
      <circle class="st0" cx="299.9" cy="300.1" r="282.8"/>
    </clipPath>
    <clipPath id="clippath-91">
      <circle class="st0" cx="299.9" cy="300.1" r="282.8"/>
    </clipPath>
    <clipPath id="clippath-92">
      <circle class="st0" cx="299.9" cy="300.1" r="282.8"/>
    </clipPath>
    <clipPath id="clippath-93">
      <circle class="st0" cx="299.9" cy="300.1" r="282.8"/>
    </clipPath>
    <clipPath id="clippath-94">
      <circle class="st0" cx="299.9" cy="300.1" r="282.8"/>
    </clipPath>
    <clipPath id="clippath-95">
      <circle class="st0" cx="299.9" cy="300.1" r="282.8"/>
    </clipPath>
    <clipPath id="clippath-96">
      <circle class="st0" cx="299.9" cy="300.1" r="282.8"/>
    </clipPath>
    <clipPath id="clippath-97">
      <circle class="st0" cx="299.9" cy="300.1" r="282.8"/>
    </clipPath>
    <clipPath id="clippath-98">
      <circle class="st0" cx="299.9" cy="300.1" r="282.8"/>
    </clipPath>
    <clipPath id="clippath-99">
      <circle class="st0" cx="299.9" cy="300.1" r="282.8"/>
    </clipPath>
    <clipPath id="clippath-100">
      <circle class="st0" cx="299.9" cy="300.1" r="282.8"/>
    </clipPath>
    <clipPath id="clippath-101">
      <circle class="st0" cx="299.9" cy="300.1" r="282.8"/>
    </clipPath>
    <clipPath id="clippath-102">
      <circle class="st0" cx="299.9" cy="300.1" r="282.8"/>
    </clipPath>
    <clipPath id="clippath-103">
      <circle class="st0" cx="299.9" cy="300.1" r="282.8"/>
    </clipPath>
    <clipPath id="clippath-104">
      <circle class="st0" cx="299.9" cy="300.1" r="282.8"/>
    </clipPath>
    <clipPath id="clippath-105">
      <circle class="st0" cx="299.9" cy="300.1" r="282.8"/>
    </clipPath>
    <clipPath id="clippath-106">
      <circle class="st0" cx="299.9" cy="300.1" r="282.8"/>
    </clipPath>
    <clipPath id="clippath-107">
      <circle class="st0" cx="299.9" cy="300.1" r="282.8"/>
    </clipPath>
    <clipPath id="clippath-108">
      <circle class="st0" cx="299.9" cy="300.1" r="282.8"/>
    </clipPath>
    <clipPath id="clippath-109">
      <circle class="st0" cx="299.9" cy="300.1" r="282.8"/>
    </clipPath>
    <clipPath id="clippath-110">
      <circle class="st0" cx="299.9" cy="300.1" r="282.8"/>
    </clipPath>
    <clipPath id="clippath-111">
      <circle class="st0" cx="299.9" cy="300.1" r="282.8"/>
    </clipPath>
    <clipPath id="clippath-112">
      <circle class="st0" cx="299.9" cy="300.1" r="282.8"/>
    </clipPath>
    <clipPath id="clippath-113">
      <circle class="st0" cx="299.9" cy="300.1" r="282.8"/>
    </clipPath>
    <clipPath id="clippath-114">
      <circle class="st0" cx="299.9" cy="300.1" r="282.8"/>
    </clipPath>
    <clipPath id="clippath-115">
      <circle class="st0" cx="299.9" cy="300.1" r="282.8"/>
    </clipPath>
    <clipPath id="clippath-116">
      <circle class="st0" cx="299.9" cy="300.1" r="282.8"/>
    </clipPath>
    <clipPath id="clippath-117">
      <circle class="st0" cx="299.9" cy="300.1" r="282.8"/>
    </clipPath>
    <clipPath id="clippath-118">
      <circle class="st0" cx="299.9" cy="300.1" r="282.8"/>
    </clipPath>
    <clipPath id="clippath-119">
      <circle class="st0" cx="299.9" cy="300.1" r="282.8"/>
    </clipPath>
    <clipPath id="clippath-120">
      <circle class="st0" cx="299.9" cy="300.1" r="282.8"/>
    </clipPath>
  </defs>
  <circle class="st213" cx="299.9" cy="300.1" r="298.5"/>
  <circle class="st185" cx="299.9" cy="300.1" r="288.9"/>
  <circle class="st198" cx="299.9" cy="300.1" r="282.8"/>
  <g class="st210">
    <path class="st37" d="M228.5,417l-9.5-17.9,5.5-22.4,39.3-15.2-16.7-34.3,8.3-34.6,15.5-31,47.9-7.5,35.2-33.6,76,5.7,14.9,81.3-28.7,102.3-16.4,53-66.4,2.5-30.8-21.3-36.1-15.1-38.1-11.9Z"/>
  </g>
  <g class="st144">
    <path class="st25" d="M344.9,416.4s-9.2,4.2-24.8,3.2c-4.5-6.1-36.3-8.9-36.3-8.9,0,0-4-1.2-11,1.7-7.1,2.8-13.7,2.5-19.9,4.1-6.2,1.5-12.4-6.6-17.2-8.3-4.8-1.8-11.1-6.1-11.1-6.1l-13.4-1.3-26.9-11.4-42.6-42.5-11.6,18.2-3.6,22.5,12.9,26.6,34.7,31.6,67.7,17.2,40.1-11.8,50.3-21.3,12.6-13.5h0Z"/>
  </g>
  <g class="st147">
    <path class="st196" d="M104.4,266.2l8.6-26,10.2-16.8,33-2.8-9.9,28.9-27.6,49.1,11.4,43.8-20.3,10.1-6.2-9.6-5-21.9-.3-24.6,6.1-30.2Z"/>
  </g>
  <g class="st145">
    <path class="st41" d="M141.4,414.7l-6.3-8.8s-1.7-4.2-.7-7.9c1-3.7.8-4,.3-5.4s-4.5-6.2-4.3-10.4c.2-4.2-.3-5.6,2.8-8.9,3.2-3.2,2.3-8.8,2.3-8.8l4.2,2.6,1-1.4s1.5,1.2,1.5,3.1c.3-2.6-1.1-14.7,2.1-17.4,3.2-2.8,8.8,12.9,8.8,12.9l-3.5-22.7-8.9-23.3-15.9-21.3-1-23.4v-2s-7.3,11.2-9.3,20c-1.4,6.1,2,13.5,1.3,22.2-.6,8.7-1.3,8,.8,11.4s7.3,10.5,5.3,15.6c-1.8,4.4-7.9,1.3-7.9,1.3,0,0-1.2,3.6-2.8,4.9-.6-2.1-1.2-3.5-2.4-4.8,0,.8-.3,1.9-.3,1.9,0,0-1.1-3.3-2.1-7.5-1.4-5.6-3-13-4.4-17-.6,2.3-2,9.2-2,9.2l.8,10.6,4,14.6,3.8,9.6,3.7,11.7,3.2,7.9,2.6,6,2.3,13.5,11,11.6,5.8,2.6,4.3-2.2h0Z"/>
  </g>
  <g class="st146">
    <path class="st52" d="M110.1,245s-7.9,13.4-10.1,26.9c-2.3,13.5-4.3,27.7-2.8,46.1,1.4,18.5,4.2,29.8,6.4,38,3.8,13.5,13.7,32.2,13.7,32.2l.3-.7s-2.6-4.8-4-9.9c-1.3-5.1-1.8-11.2-3-14-1.1-2.8-2.8-5.1-3.7-8.5-.8-3.2-1-8.4-3.5-12.2-1.1-1.5-2.4-5.6-2.8-9.7-.5-6.1.2-12.9-.3-18.5-1.1-9.3-1.8-15.6-.8-20.5s6-18.7,9.1-29.8c2-7.1.8-13,4.5-19.1,3.7-6.1,6-11.4,6.8-15.2,1-3.4-9.9,14.9-9.9,14.9h0Z"/>
  </g>
  <g class="st152">
    <path class="st207" d="M147.4,239.6s-4.1,1.2-6,3.3c-1.9,2-2.8,3.7-5.4,7.1-2.6,3.5-2.8,6.2-4.9,10.5-2.1,4.2-6.8,10.5-7.4,12.8s-1.5,12.9-2.8,17.9c-1.1,5,1.2,11.2,1.2,11.2l2.8-.6s0,3.6,2.8,6c2.8,2.4,3.2-8,3.2-8l10.3-34.7,15.5-10.5,1.7-8.5-11.1-6.6Z"/>
  </g>
  <g class="st149">
    <path class="st39" d="M155,255.4s-7.3.5-10.9,3.1c-1.4,1.1-2,1.9-3.6,3.2-2.8,2.4-5.7,4.5-7.1,7.6-1.5,3.1-3.2,7.8-4.4,16.6-.5,3.7-.5,7.1-.8,10.1-.5,4.1-1.2,7.3-.8,9.6.5,4.6,5.3,7.1,5.7,12.3l9.9-5,9.3-36.8,19.8-12.4-11.2-12.6-5.9,4.2h0Z"/>
  </g>
  <g class="st148">
    <path class="st29" d="M156.5,583.5l-44.2,1.1-23.4-1.8s1.4-17.2,1.8-21.3c.8-2.5,3.6-9.7,4.4-11,.6-1.9,1.3-6.8-.3-12.8,1.1-1.7,4.4-2.6,8.1-35.9,1.4-12.4,1.7-21.8,2.8-27.7,1.5-8.4,2.6-11.4,2.4-14.6-.3-5-.7-8.7-.2-12.6.7-5.1,5.7-11.2,5.6-15.4,0-3.3-1.8-5.5-3.2-7.5-1.4-2-2.6-3.7-2.6-3.7,0,0,9.9-6.8,9.8-34.2.3,0,.6.2.6.2l4.9,13.9,3.3,4.1,12.8,23.9,16.5,16,24.3,16.4,15.3,16.6,1.5,44.3-19.9,25.9-20,36.3h0Z"/>
  </g>
  <g class="st151">
    <path class="st200" d="M163.7,545.3s.3-5.5,4.9-9.1c.7,1.2,1.2,2.4,1.1,3.2.8-1.4,6.6-10.7,19.6-13.1,13-2.4,16.1-11.8,16.1-11.8l27.6-25.1,31.5-29,38.3-13.5,17.9-4.4s.3,1.3-.3,4.2c3.3-.2,10.7-1.9,18.4-4.6,3.1-1.2,6-1.7,7.5,0,2.3,2.1,2.6,7.1,2.8,10.1,3.7-.8,8-4.4,11.4-4.1,5.5.6,10.4,7.1,16,7.1s10.7-4.5,15.9-8.1c3.1-2.1,7.5-4.8,10-6.6,6-4.4,69.4-23.8,69.4-23.8l22.2,1.4,3.6,23.9-1.9,62.7-101.7,53.1-160.4,24.6-65.3-16.7-4.6-20.4h0Z"/>
  </g>
  <g class="st150">
    <path class="st25" d="M95.9,583.6s5.8-13.2,8.6-32.4c2.3-15.6.2-19.2.8-24.2.8-7.5,9.3-22.2,10-25.1.6,5.8,2.3,27.9,8.4,32.8-1.3,1.9-3.5,8.6,4.3,13.7-1.3,2.8-4,6.1-2.3,11.1,1.7,5,3.7,12.2,2.8,20-2.8.6-5.7,1.8-8.1,4.1-2.4,2.1-24.5,0-24.5,0h0Z"/>
  </g>
  <g class="st58">
    <path class="st143" d="M196,574.4l35.6-9.9,1.5.5s.8.5.8,2.1c2.3-1.3,4.2-1.1,5.6-1.9.7,1.5,1.4,6.7,4.6,7.3,3.3.7,6.9-1.4,10.5-4.2,3.6-2.8,7.6-6.4,10.7-7.9.6,1,2,4,3,6.4,4.1-3.2,11.1-16.4,21.2-16.1,1-2.3,4.5-10.5,14-16.9,9.3-6.3,15.2-6.8,22.5-6.2,2.8-3.7,6.6-7.1,10.5-9.4,1.2.5,4.5,2.5,8.7.6,4.2-1.9,8.9-9.4,15.2-10.4,5.5-.8,9.7,2,9.7,2,0,0,18.2-18,30.7-24-.5-1.4-1.4-6.9,13.2-19,.8.7.2,2.8.8,2.8.2,0,3.8-1.5,8.4-5,5.6-4.2,12.3-8.6,16.4-9.8,7.6-2.3,15.7,2.4,15.7,2.4,0,0,1-.7,2.3-1.1,1.9-.3,3.3-.6,4.4-1,0,2.5,1.3,6.8,0,10.5,0,0,2,1.2,4.8,2-.8,1.8-2.6,6.3-5.6,8.5,2.5,1.2,2.8,2.6,6.4,3.8-1.4,2-3.8,5.5-4.9,7.6-1.1,2.3-4.9,11.7-6.6,15.3-1.8,3.6-4.2,10.1-5.4,11.4-1.2,1.3-5.4,6.9-8.6,9.7,2.8-1.1,14.6-4.6,19.6-6-3,4.4-30.7,45.5-30.7,45.5l-55.7,16.6-27.3,4.6h-142.4c0,0-12.6-6.3-12.6-6.3l3-4.7Z"/>
  </g>
  <g class="st55">
    <path class="st24" d="M156.2,254.1s-4.2,0-5,.6c-.8.6,4.2,1.8,5.7,2.4,1.5.6,4.9,3.2,5.7,5.4.8,2,30.2,13.9,30.2,13.9l20.8-1.1,7.1-9.9-13.6-11.9,9.6-28.2-12.7,2-30.4,18.2-15.3,5.8-2.2,2.8h0Z"/>
  </g>
  <g class="st62">
    <path class="st194" d="M201.8,263.4s.8,1.5,2.8,1.5c4.3,0,8.3,1.1,9.9,3.2,2.8,3.5,10.4,14.6,10.4,14.6l18.3,6.6,1.2-21.5-19.9-13.9-22.7,8.4v1.1h0Z"/>
  </g>
  <g class="st60">
    <path class="st48" d="M198.2,271.4s3.3.2,7.5-1.3c4.2-1.5,11.1-4.9,14.1-3.6,4.2,1.8,3.3,7.4,7.9,12.4,2.8,3.1,7.8,3,10.6,6.3,2.8,3.3,12.7,1.8,12.7,1.8l3.7,20-14.9,19.1-4.9,23.8h-20.2l-18.5-7.3-9.1-22,4.5-22.2,6.5-27.1Z"/>
  </g>
  <g class="st61">
    <path class="st21" d="M237.2,272.3s.7.2,1.5.2c-.6.5-1.8,1.5-1.3,4.3s2,6.2.7,8.4c.6.7,1.4,1.5,2.3,4,.8,2.4,1.1,4.5,6.4,4.9-1.2.7-2.1,1.7-2.1,1.7,0,0,3.7,3.2,5.6,6.2,1.9,0,7.1-1.7,7.1-1.7l1.1.7,2.3-1s-2.1-.8-.6-6c1.4-4.5,2.8-4.3,2.8-4.6,0-.3,1.1-5.1,1.1-7.1.7-2.5,1.3-10.1,1.3-10.1l-1.5-16.9-8.7-5.3-7.1-6.8-6.7,12.6-4.4,4.4-.3,10.9.5,1.2h0Z"/>
  </g>
  <g class="st59">
    <path class="st190" d="M258.1,258.2s1.5,4.4,2.1,7.8c.3-1.1.3-2,.3-2,0,0,1.2,6.7,1.4,9.4.5,0,1-.2,1.1.2s1.2,5.8,1,8.8c.6-1.1,3.3-5.3,8.1-8.1,1.9-1.2,4.2-2.5,6.6-2.6,3.7,0,6.4,2.4,10.9,2.4,10.7,0,20.4-7.9,27.6-10.3,5.3-1.8,9.8-3.1,13-6,1.5-1.3,4.3-4.2,6.8-8.5,3.3-5.7,6.8-10.7,10.3-11.4-2.8.5-4.8.3-4.8.3,0,0,1.1-1.1,2.8-2.5,1.8-1.4,4-3.2,7.1-3.2,5.5,0,8.3.8,11.4.8,3.1,0,4.9-.8,4.9-.8,0,0,3.2,2.3,10.5,2.3,7.3,0,12.2.7,16,1.1,3.8.3,16.6-1.1,20.3-1,3.8,0,6.9,1.7,6.9,1.7l-11.8-34.4-42.5-37.1-25.3,17.9-38.9,38.9-37.7,14-7.9,8.8v13.5h0Z"/>
  </g>
  <g class="st56">
    <path class="st9" d="M342.7,238.5s1.1-1.1,2.8-2.5c1.8-1.4,4-3.2,7.1-3.2,5.5,0,8.3.8,11.4.8,3.1,0,4.9-.8,4.9-.8,0,0,3.2,2.3,10.5,2.3,7.3,0,12.2.7,16,1.1,3.8.3,16.6-1.1,20.3-1,3.8,0,6.9,1.7,6.9,1.7l-5.4-15.5-6.2-11.8-17.8-19.5s-21.3-12.6-21.5-12.7c0,0-7.4-2-7.4-2l-19.3,11.7-17.5,45.4-.3,9.6,11.4,5.4c2.8-4.8,6-8.6,8.9-9.1-2.7.3-4.7.3-4.7.3Z"/>
  </g>
  <g class="st53">
    <path class="st216" d="M342.4,241.8c-1.7,0-3.1-.2-3.5-1.4-1.4-4.1-2.6-4.6-3.8-4.6s-2.8,2.6-3.8,2.8-2.1-3-2.1-3l-1.1-.5s-6.2,4.1-10.6,8.8-11.6,12.9-14.8,14.3c-3.2,1.4-14.3,1.9-18.2,2.8-3.8.8-8,3.6-8.6,4.2s1.7,1.3,2,1.9c.3.6-3.7.3-4.1,1-.2.5,1,3.2,1.5,4.6,1.1-.5,2.1-.8,3.3-.8,3.7,0,6.4,2.4,10.9,2.4,10.7,0,20.4-7.9,27.6-10.3,5.3-1.8,9.8-3.1,13-6,1.5-1.3,4.3-4.2,6.8-8.5,1.8-2.9,3.6-5.7,5.4-7.7h0Z"/>
  </g>
  <g class="st57">
    <path class="st201" d="M188.6,480.8s-1-3.6-9.8-12.8c-2.5-2.6-4.1-4.8-5.7-6.3-4.2-4-6.7-5-9.7-7.3-6.6-4.9-13.7-4.9-19.2-10.9-5.5-6-11.9-17.4-16.4-29.1-4.4-11.7-5.6-15.4-5.6-15.7s1.2-2.6,2.8-2.3c1.5.3,1.5,3.3,1.9,4.1,0,.2,1.2,1.8,2.6,3.3,2.3,2.6,5.5,5.7,7.1,10.4-.3-4-1.7-8.4-1.7-8.4,0,0,8.5,5.4,15.7,11,7.3,5.6,10.3,7.5,12.4,11.1,2.1,3.6,7.1,13,9.6,15.7,2.4,2.8,35.4,13.1,35.4,13.1l15.6,11.7,7.8,17-6.1,9.6-11.7,2.5-19-8.5-6.1-8.3h0Z"/>
  </g>
  <g class="st54">
    <path class="st20" d="M146.5,422.1s4,6.3,13.6,12.3c8.7,5.3,22.5,10,34.7,12.9,7.1,1.7,14.1,3,20.4,3.1,17,.2,28.8-4.6,43.3-6.2,7.9-.8,17.5-1.4,27.6-3.8,12.9-3.1,20.5-6.6,30.9-11.4,7.5-3.5,14.4-6.1,20-9.4,7.9-4.6,13.6-9.8,20.3-11.4-.8,2.3-1.7,6.3-8.3,10.5,3.5,0,8.3-.3,8.3-.3,0,0-4.6,2.8-12.8,8.9-5,3.8-11.7,10.3-18.5,14.6-4.4,2.8-9.2,4.8-12.3,6.4-7.6,4.2-10.7,6.3-15.7,11.4,1.8,0,1.9,0,1.9,0,0,0-6.3.8-10.9,3.2-1,0-2.6-.3-5.5.5-2.3.7-5.3,2.4-8.4,3.2-4.4,1.3-5.8.7-5.8.7l.7,1.4s-5.7,0-7.6,0c.3,0,.2.2.2.2,0,0-.2,0-1,.3-.6.3-1.5,1-3,1.3-.6,0-1.1,0-1.8.2.2.6,2.1,3.8,3,5.7-.7.5-11.6,8.7-11.6,8.7,0,0,.5.7.8,1.7.3,1.1.5,2.6.8,3.3.8,1.4,1.3,1.7,1.3,1.7,0,0-1.3.2-3.6.8-1.9.5-4.3,1.3-7.6,1.8-1,0-2,.2-3.1.2.5,1.1,2.6,5.1-1.3,9.8-4,4.6-5.1,5.4-6.3,8.4-.3-.2-1-.7-1.9-1.2-1.3-.6-3.1-1.4-3.7-2.6,0,.5-.6,2.4-1.4,4.5-1.2,3.2-3,6.4-3.3,8.8-1.3-1.4-3.7-4.3-7.1-3.7-3.3.6-6,5.1-6.6,6.4,0-.8-.6-1.4-.7-.5,0,1.1-1.9,12.2-12.2,21.2,0-2.3,0-7.3-.3-8.9-1,1-2.1,2.4-9.1,5.4-6.8,3-5.7,6-5.7,6,0,0-.6-4.8,3.1-9.8,3.7-5,6-7.4,6-7.8s0-.6-.5-1.1c-.5-.5-1.4-1.1-1.4-1.4.6-.2,6.3-3,6-8.7-.3-5.1-2.5-7.8-4.1-9.7-.2-.2,2.3-2,1.9-2.6-.2-.3-3.3-2.6-3.7-3.8,0-.6.2-1.5.5-2.1.3-1.1.6-1.8.5-2.5-.2-1.2-1.5-4.5-1.9-4.9.3,0,2.8,0,2.8,0,0,0-1.9-3.1-2.3-4.5s-1.1-5.3-1.4-6c.8,0,2.8.2,2.8,0,0-.7-1.8-1.9-1-2.8.6,0,1.7.6,2.8,1.9-.6-1.5-1.5-4.5-3.6-5.7,1-.3,4.2-1.2,7.1.5s3.8,4.1,3.8,4.1c0,0,1.7,1.3,4.3,3.2,3,2.4,6.8,5.7,12.9,8.1,1.3.7,4.6.7,7.1.2,1.4-.3,2.3-.8,3-1.2.6-.3,1.1-.5,1.1-.5,0,0-1-1.9-1.8-3,.8,0,1.8,0,1.8,0,0,0,.6-1.3-2-3.8.6-.6,1.3-1,1.3-1.9-.8,0-2.3-1.3-2.6-1.8.5-.3,1.2-1.4,2-1.8-.7-.6-2.5-3-3.3-3.2.8-.2,2.3-1.1,2.3-1.1,0,0-4.1-1.1-5.4-1.9-1.3-1-3.2-2.6-4.4-3.1-1.2-.5-3.3-.7-4.2-1.7.8.2,2.1,0,3.1,0s1.1,0,1.3,0c0-.3,0-1.1,1.8-1.3,1.8-.3,2.6-.8,2.6-.8,0,0-1.8,0-3.8-2-2-1.9-3.7-3.5-4.9-3.7-1.2-.2-3.5.8-4.9.7-1.9-.2-2.8-1.2-2.8-1.2,0,0-6.4.6-20.7-8.1-12.3-7.5-17.7-14.2-17.7-14.2,0,0-1.4-.5-3.3-1.5-4.6-2.4-11.1-7.4-10.9-14h0Z"/>
  </g>
  <g class="st106">
    <path class="st1" d="M324.2,132.2s1.7.5,2.8,1.9c2.3,2.6,3.7,7.5-1.4,12.8,2,.7,2.8,1,4.6.7-1.8,2.1-5.8,6.7-6.1,10.6-.2,3.2,1.8,4.2,1.8,4.2,0,0-3.1,3.6-3.2,9.6.7-.8,2.4-2.6,4.8-4.5,3.6-2.8,8.5-6.1,11.8-8.1,0,1.3.3,2.5.3,2.5,0,0,6.2-5.1,11.4-2.8,2.4,1.1,1.3,4.4,1.3,4.4,0,0,3.2-1.2,5.5,1.1s5.5,8.1,7.1,10.4c.7,1.1,2.6,3.1,4.5,6.2,2.3,3.7,4.8,8.8,6.6,13.9,0-2.5.7-6.4,7.9-4,7.1,2.5,15.3,7.8,22.1,18.2,6.8,10.4,8.5,22.1,11.9,26.5,3.5,4.3,7.1,11.4,7.3,14.4s-1.1,12.7,6.1,38.8c2-8.1,5.1-26.1,5.1-26.1l1.7-15.9,1.9-49.2-51.3-42.6-40.1-29.1-26.1,2.5,1.6,3.7h0Z"/>
  </g>
  <g class="st107">
    <path class="st2" d="M419.6,205.3s-.7-4.8-12.8-12.9c-12.1-8-21.5-8-30.2-14.8-6.7-5.4-13.6-17.7-18.2-21.7-4.4-4-5.1-15.6-5.1-15.6l14.8-12.4,22.1-31.9,18.6-20.5,8.9,12.4,12.4,14.6,6.9,29.3,2.5,42.8-20,30.8h0Z"/>
  </g>
  <g class="st108">
    <path class="st23" d="M434.5,256.7s.8-9.3-2.4-19.2-10.1-27.5-13.4-34.1c-1.3-7.3-.3-7.9,1.1-8.7,1.4-.8,6.7-3.8,9.6-14.3,2.8-10.5,11.8-10.9,11.8-10.9l5.5-4.1,8.4,20.9,7.3,18.9,2.3,14.4,1.7,12.3-4,26-19.6,17.7-8.3-19h0Z"/>
  </g>
  <g class="st109">
    <path class="st43" d="M156.5,583.5s-4.4-8.1-4.6-11.6c0-3.3,1.2-5.5,1.2-5.5,0,0-1.7-2.5-3.2-3.1.3-1.7,1-3.7,2.3-5.1,1.3-1.5,3.8-3.6,4.3-4.3s.7-1.7,2.1-1.9c1.4-.2,3-.2,3-2.1v-3.5s.6-.3,1.1-1c.3-.5.6-1.1.8-1.2.5-.2,2.8-1,4-.7s4.4,1.5,6.1,1.4c3.5,0,7.5-2.8,14-1.5,9.7,1.8,11.9,8.4,17.5,12.1,3.8,2.6,7.8,1.4,8.4,1.4h1.3c.2,0,2-2,3-1.9,1.9,0,2.1,1.7,3.3,1.8,2.8.3,8.4-1.4,11.1-.7,1.3.3,3,1.7,3.5,3.5.6,1.8,0,4.1-1.3,5.4-3,2.8-5.8,5.4-6.4,7.6.8.6,2.3,1.9,2.3,1.9,0,0-1.3,1.2-3.7,2.4-1.1.5-2.8,1.3-4.6,1.5-3.6.3-8,.8-10.6,4.6-2.6,3.8-11.6,1.7-11.6,1.7l-43-1.2h0Z"/>
  </g>
  <g class="st110">
    <path class="st17" d="M418.7,450.4s7.5-10,10.1-15c2.6-5.1-8.3-70.1-8.3-70.1l21.8-71.5-.6-23.3s1.1-21.5,3.6-30.8c3,5.4,12.3,11.8,14.3,15.3,1-6.6,4.2-20.4,3.7-35.2,1.8,2.8,6.1,30.4,6.1,30.4l4.3,18.6,5.6,19.8,6.2,20.9,3.7,14.4,2.1,3.5,1.8,6.1,1.7,6.6,4.9,15.4,2.8,12.7,2.3,22.9s.8,2.8,1.1,5.4c0,2.5-.3,4-.3,4.4s.8,5.5.5,9.3c-.5,3.8-.5,6.8-3.5,9.6-3,2.8-4.9,19.1-4.9,19.1l-5.4-3.6s1.1-4.9-1.4-9.3c-2.5-4.4-7.4-5.4-10.1-4.6-2.8.6-8.3,1.4-10,3-1.7,1.5-5.8,6.3-9.7,8.5-4.8,2.8-12.6,3.1-16.7,4.1-4.2,1-8.8,3.8-13.7,7.1-5.1,3.3-10.2,5.7-12.1,6.4h0Z"/>
  </g>
  <g class="st111">
    <path class="st179" d="M418.7,555.9s4.2,2.8,11.9,4.6c7.7,1.9,27.5,13.2,27.5,13.2l16.6,10.1,20.5,1.5,18-2.5s.6-7.6-.6-36.1c-1.2-28.5-2.1-32.6-2.1-34.7s-.7-38.3-1.5-46.2c-.8-7.9-.2-15.9-.5-20.5s-2.8-23.5-4.1-28.4c-1.3-4.9-3.8-7.3-4.2-7.3-.3,0-2.4,9.2-2.4,11.4s-.5,7.8-.5,9.2c-.3,0-.5-1-.5-1.3-.5,1.2-1.1,3.3-1.3,3.6s.3-2,0-2.5-1-.2-.8-1.4c0-1.2.3-2.1.3-2.1,0,0-1.4,2.1-2.5,7.5-1.1,5.4-1.1,5.5-1.4,6-.3.6-2.3,2.5-2.4,3.2,0,1.3,1.8,2.6,1.9,3.3,0,1.2-1.7,6.8-2.3,9.6s-.3,8.1-1,10.9c-.5,2.5-1,4-2.6,5,1.2.2,2.4.6,2.4.6,0,0,1.7,7.1-2.6,13.2-1.5,2.1-1.9,3.1-3.6,5-3.2,3.6-5.7,7.6-6,10.3-.2-1-.3-2.4-.3-2.4,0,0-5,5.8-7.1,9.2-2.8,4.3-6.6,4.1-7.6,5.1s-1.3,3-1,4.5c-1,.2-2.8.6-4,4.3-.6,1.9-2,3.8-4.3,5.1-2.3,1.3-5,1.7-6.4,2,1.2.3,1.7.3,2.3.7-.7,1.2-4.1,3.1-7.8,5.5-3.7,2.3-5.5,5.6-6.4,7.8-1,2-2.4,3.3-4.6,3.6,1,.6,2.4,1.9,3.1,2.4-1.1.2-2.8.2-6.1,3-3.4,2.8-4.5,3.6-6.1,3.9h0Z"/>
  </g>
  <g class="st104">
    <path class="st10" d="M347,582.6s3-4.6,10.5-7.5c7.5-3,15.5-3.6,18.6-4.5,3-1,5.4-2.3,9.1-3-.3,2.8-.5,5.1-1.3,7.1,2.8.5,9.7-4.9,13.4-6.1,3.7-1.2,12.2-3,12.9-3.6.7-.6,2.3-4.1,2.8-4.2.5,0,1.8.7,2.6.7,1.5,0,12.4-10,21-9.9,8.5,0,18.2,7.1,16.7,13.5,2.3-1.3,4.6-2.5,6.6-2-.2.8-.3,1.8-.3,1.8,0,0,4.6-1.1,5.8.5,1.3,1.5.6,3,3.7,6.7,2.5,3.1,1.8,3.8,1.3,4.9,1.2.3,7.1,2.4,12.7,7.5,5.5,5.1-44,1.9-44,1.9l-91.2-.8-.9-2.8h0Z"/>
  </g>
  <g class="st102">
    <path class="st33" d="M490.5,380.1s-1.5,8.4-4.3,13.6c-2.8,5.3-5.7,12.6-5.7,12.6,0,0,0-2.6.6-4.9-3.5,2-11.9,6.9-14.3,9.1-2.3,2-6.1,5.6-7.1,7.3,2.3-6.7,4.6-12.7,5-15.4-3.5,2.5-19.7,15.9-28.2,24.7l-26.3,21.3s-4.1,2.3-9.3,4.4c-4.5,1.9-9.9,3.6-13.9,5.1,1.1-2.8,2.8-5.4,5.1-7.8,2.5-2.4,10-10.5,11.2-14.3,1.1-4,1.3-6.3,0-9.7-1.3.3-4.3.5-6.3,1.1-2,.6-4.2,2.8-4.2,2.8,0,0,1.5-8.8,4.9-17.2-2.5,0-6.8.8-6.8.8,0,0,6-10,16.2-17-1.7.3-5.5,1.3-9.2,2.8-6,2.5-12.6,6.2-17.4,8.3,2.8-3.8,22.1-31.4,33.6-57.1,11.4-25.6,15.7-32.2,18.3-46,1.3-6.8,1-16.9,1.3-25.9.3-8.9,1.4-17,.7-22.3,3,3.7,14.2,14.2,14.6,37.6.3,23.4-10.7,55.1-22.5,72.1,2.8.8,10.3,1.8,17.9-11.4,7.6-13.2,7.5-17,10.3-22.5.3,2.8.2,3.7.2,3.7,0,0,11.1-13.5,16.4-30.4,1.1,7.3,4.2,13.7-.7,27.1-4.4,12.1-10.1,15-10.1,15,0,0,2.8-.5,7.1-3,.7,1.8.6,3.8,1.8,4.5,1.2.7,2.8,1.9,3.1,3.1,1.3-1.9,3.3-4.4,4-6.2-.5,3.8-.8,20.5,1,29,3.7-.3,7.5-.6,10.1-7.3-1.8,6.6-1.8,10.5-.6,16.1,2-1.4,3.8-3.8,3.8-3.8h0Z"/>
  </g>
  <g class="st105">
    <path class="st153" d="M365,113.9s-3.7,1.5-10,1.5-4-2.1-12.6-2.1c-13.2,0-59.5,7.6-67.6,7.5-5.3,0,17.8,2.3,17.8,2.3l58.9.8,11.8-1,4.4-8.9h-2.7Z"/>
  </g>
  <g class="st103">
    <path class="st31" d="M212.3,229s-7.5,5.7-10.7,10.1c-3.2,4.4-4.9,7.3-8.5,10.9,1.2,0,2.5-.3,2.5-.3,0,0,0,1-.6,1.2,1.2,0,2.1.3,2.8,1-1.1.6-4,3.5-1.7,6.9,1.7,2.6,5.3,2.8,5.3,2.8,0,0-.8,2.4,2.6,2.1,7.4-.3,15.6-3.6,19.5-2.8,3.8,1,6,1.3,8.7,6,2.8,4.6,5.4,5.4,5.4,5.4,0,0,1.7-4.3,1.3-10.7,2.3-5.5,2.3-10.9,2.3-10.9l-2.5-18.5-11-13.9-14.2,7.9-1.1,2.8h0Z"/>
  </g>
  <g class="st98">
    <path class="st214" d="M225.8,226.2s1.1,2.5,5.5,2.8c-.5,1.1-.5,1.2-.3,2,0,.8.2,2,.2,2,0,0,.6-.2,1.3-1,.2,1.1-.2,2.8,0,4s.7,2.1.7,2.1c0,0,0-.2.2-.5,0-.2,1,2.6,3.3,4.8,0-.6.2-1,.2-1,0,0,0,.8.6,1.7-.2,0-.5-.3-.5-.3,0,0,.2,7.6,1.5,11.6.3-.5.5-.6.6-.8,0-.2,0,2.1-.3,3.8-.3,1.7,0,4.1,0,4.1,0,0,1.3-1.1,2.8-1.7,1.4-.6,3.8-2.4,5.3-6.3s1.9-6.9,1.9-6.9c0,0,.8,1.5,1,2.8,0,1.2,2.4.6,2.4.6l.5-5.3,2.8-11.9,2.6-7.4,12.6-19.6,22.7-17.4,19.8,4.5,16.7-22.7-28.8-17.3-27.2,2.8-24.7,34.2-19.8,31.1-3.6,5.1h0Z"/>
  </g>
  <g class="st92">
    <path class="st18" d="M368.5,176.7s-1.7.3-6.6,2.8c-4.9,2.5-8.3,3.3-10.1,7.1-1.9,3.7-2,6.7-2,6.7,0,0,3.3-1.4,5.3-1.9,2-.5,4.3-.3,4.1.5-.2.7-1,1.5-1,1.5,0,0,3.8,0,3.7,1.8,0,1.9-.7,4-1.4,4.9-.7,1-3.7,2.4-4.1,3.5-.8,2.3.3,2.4,0,4.2-.3,1.8-1.9,5.3-7.1,11.4-5.4,6.1-7.6,10.4-7.6,10.4,0,0-2.6-4.9-4-9.1-1,.5-6.1,3.3-6.1,3.3l-11.9-41.4.2-2.8s1.1-1.3,1.3-3.7c-1.8-.6-2-1.1-4.4-3.3-2.4-2.3-4.3-5-8.3-6.9-.6-1.1-1.3-2.5-4.2-3.1-2.8-.6-4.6-1.1-4.6-1.1,0,0,1.5-.6,2.3-1.8-1.8.2-3.2.8-7.1.7-4,0-4.4-.2-6.6,0-2.2.3-4.8,1.3-5.7-2-1.1-.8-3.3,0-5.3,2.8s-2.6,5.1-6.3,6.2c0,.7-.5,2.6-1.7,4.6-1.1,1.8-2.8,3.6-5,6.2-3.6,4.2-3,11.1-8.7,16.4-5.7,5.3,1-14.6,1-14.6l9.2-22,26.1-25.5,40.6-2.8,4,21,19.8,6.8,12.5,19.1h0Z"/>
  </g>
  <g class="st93">
    <path class="st1" d="M374.9,181.3l-17-24.6-11.9-9.2s-8.5-15.6-9.1-16.1c-.5-.3-8.5-1.2-13.6-1.5l1,2.4s1.7.5,2.8,1.9c2.3,2.6,3.7,7.5-1.4,12.8,2,.7,2.8,1,4.6.7-1.8,2.1-5.8,6.7-6.1,10.6-.2,3.2,1.8,4.2,1.8,4.2,0,0-3.1,3.6-3.2,9.6.7-.8,2.4-2.6,4.8-4.5,3.6-2.8,8.5-6.1,11.8-8.1,0,1.3.3,2.5.3,2.5,0,0,6.2-5.1,11.4-2.8,2.4,1.1,1.3,4.4,1.3,4.4,0,0,3.2-1.2,5.5,1.1,2.3,2.3,5.5,8.1,7.1,10.4.7,1.1,2.6,3.1,4.5,6.2,2.3,3.7,4.8,8.8,6.6,13.9,0-1.9.5-4.6,3.8-4.6l-5.1-9.1Z"/>
  </g>
  <g class="st94">
    <path class="st51" d="M119.3,251.2s-1.2-3,0-8.8c1.2-5.8,3.1-8.6,3.7-17.2.6-8.6,6.2-19.3,6.2-19.3l15.5-7.1,11,3,3.2,14.7-13.9,7.6s-.7,3.2-4.6,5.8c-4,2.6-9.3,4.6-10.6,7.3-1.3,2.8-1.7,5.1-1.7,5.1,0,0-4-.8-6.3,1.8-2.5,2.7-2.4,5-2.5,7.1h0Z"/>
  </g>
  <g class="st95">
    <path class="st155" d="M150.6,247.3s-1.3.8-2.3,2.8c-1-1.5-3.2-10.7-3.3-19,0-8.3-.6-10.3,1.3-13.1,1.9-2.8,9.4-5.8,8.4-11-1.1-4.9-5.5-6.9-11-5.5-3.8,1-6.7,9.1-10.6,13.1-3,3.1-6.6,2.6-7.5,4.3-1.3,2.3,0,4.5-.5,6,0,.5-1.3,3.1-3.5,6.2-4.4,6.3-11.8,15.3-12.8,23.3.3-4.5,0-4.6,1.3-9.7l-.7-1.2,4.8-15.6,3.1-12.9,6.9-21.6,12.2-22.1,11.8-13.2,12.3.8,1.4,18.5,7.1,34.7,14.8,18.3-23.8,16-9.4.8h0Z"/>
  </g>
  <g class="st96">
    <path class="st189" d="M158,253.8s-2,.5-2.8,0c-.7-.3-1.4-.8-1.2-1.3s1.5-1.3,1.5-1.7,0-1.3-1.2-1.4c-1.1-.1-1.4.6-1.4.6,0,0-1.1-.8-1.9-1,.7,0,1.5,0,1.5,0,0,0-2-1-4.2-1.2,1.2-.7,3.6-2.8,5.1-2.8s2.5-.2,2.3-1.1-1.4-2-2.8-2.5c.5-.6.8-1.4-.3-3.8-1.2-2.4-.7-4-.3-4.5.3-.7,1.5-2,2.1-2.8.6-.8,1.1-1.9,2-2.5.5-.3,2-1,3.6-1.5,1.7-.6,3.1-1.3,4.1-.6,1.1.7.6,1.7.6,1.7,0,0,3.3-1.2,6.3.3,3,1.4,10.3,2.4,10.3,2.4l2.6,5.3-17.3,14.8-7.1,3.6-1.4.2Z"/>
  </g>
  <g class="st99">
    <path class="st50" d="M182,229.6s-5.4,3.6-6.6,4.9c.7,0,1.9.6,1.4,1.3-.6.7-4.1,3.2-6,5.6-2,2.4-4,5.4-4.6,6.8-.7,1.3-6.2,5.1-8.1,5.6,4,0,11.9-4.9,14.9-4.9,0,1.4.8,3.1,2.5,3.2,1.7,0,6.6,1.1,13.1-3,6.6-4,4.4-6.9,7.1-8.8,5.3-3.5,7.4-6.6,10.3-8.5,2.8-1.9,4.4-2.4,4.4-2.4,0,0,0-1.4,1-1.3.8,0,1.1.8,1.1.8,0,0,5-3.6,11.4-4.5-.2,0-.3-.3-.3-.3,0,0,.5-.2.6-.5,0,0,.3-.5.6-.2s.6,2,1.1,2.8c1.1-.5,3.1-5,3.1-5l4.9-14v-12.8l-3.8.7-28.6,12.2-17.4,18-2,4.3h0Z"/>
  </g>
  <g class="st100">
    <path class="st6" d="M264.5,167s2.5-.6,4.4-1.8c-.6,1.5-.6,3.2-3.1,6.9-2.5,3.7-2.6,4.2-4.6,8-2,4-2.3,9.7-4.2,12.2,1.5-.7,2.8-.8,2.8-.8,0,0-1.9,1.7-2.8,3.5-.8,1.8-2.3,5.5-5.8,7.8-3.6,2.3-8.1,3.7-13,9.1-4.9,5.3-9.9,11.9-12.4,14.3,1.3-2.3,3.1-6.8,3.6-9.8.5-3,0-6.6.7-10.5.8-4,.8-6.8,4.8-13.7,4-6.9,10.7-30.9,10.7-30.9l14.6-4.6,4.4,10.4h0Z"/>
  </g>
  <g class="st101">
    <path class="st13" d="M253.9,158.2s-4.4,6.3-5.6,11.9c-1.2,5.6,0,5.1-.8,7.9-.7,2.8,0,5.1,0,5.1,0,0,1.9-3.5,6.1-6,4.2-2.5,7.5-4.3,9.6-6.4,2-2.3,3.7-6,8.1-8.8-1.8-.2-4.3-1.1-4.8-1,1.8-2,7.1-5.1,12.6-8.8,5.4-3.8,5-5.4,13.7-9.2-2.8.5-4.2-.2-6.6,0,1-2,4.3-3,7.6-6.3,3.3-3.3-2.1-8.3-2.1-8.3l-25.5,15.4-12.3,14.5h0Z"/>
  </g>
  <g class="st97">
    <path class="st49" d="M184.8,146.7l.6-4.6,7.3-11.7,7.6-20.5v-28.1l-.6-16.2,1.2-10.6.9-3.4,1-1.3,6.2,3.2,8.6,11.7.8,22.6-8.4,35.6-23.9,26-1.4-2.7Z"/>
  </g>
  <g class="st119">
    <path class="st153" d="M203.8,48.9s-3.8,0-4.6,16c-.8,15.9-1.2,24.2-1.8,32.1-.6,7.9-1.9,12.7-2.6,17.3-.7,4.6-1.1,11-3.2,14.8-1,1.8-3,7.4-7.8,11.6-5.4,4.6-13.4,7.9-14.6,8.1-2.1.5-12.9,1.5-17.3,4-1.5.8-4.2,1.8-7.1,4.5-5.8,5.3-13.6,14.7-19.2,26-8.6,17-17.2,64.8-17.2,64.8l1.9-3.2s.2-4.3,4.5-11.8c4.2-7.5,3-16,8.8-30.4,2.3-5.5,5.1-12.7,8.6-18.7,5.5-9.9,12.2-18.4,18.9-23,11-7.5,23-9.2,23-9.2l13-8.6s2.3-4.4,5.3-9.4c4.2-7.1,9.6-14.9,10.7-26.4,1.8-17-2.5-28.1-2.3-38.1.2-10,.3-17.4,2.4-19.2,2-1.8.6-1.1.6-1.1h0Z"/>
  </g>
  <g class="st113">
    <path class="st209" d="M203.8,124.8s5.7-14.1,8.4-26.6c.5-2.5,1.4-5,1.7-7.1,1.2-11.8,1.5-16.7,0-23.2-1.2-4.8-5.8-9.1-8.3-12.4-2.4-3.5-3.5-4.8-3-5.5s2.4-1.9,4.2-1.8c1.8,0,6.4.5,10.3,4.8,3.7,4.3,6.7,18.9,6.7,18.9l3.1,19.2,7.9,24.2-30.9,9.4h0Z"/>
  </g>
  <g class="st114">
    <path class="st34" d="M257.7,110.1s-1.1.5-3,0c0,1,0,2.8-1.9,4.1-2-.8-21,.8-21,.8,0,0-8.8-1.5-11.6-13.2-1.9-7.8,1.4-18.5.3-25.5-1.7-10.4-4.1-12.4-4.3-15.6-.2-3.2-.5-4.1-.5-6.1-1.1-.2-1.7-.6-2.8-.6-.2-1,.2-1.8-.8-3.5.6.2,4.5.7,9.2,5.1,3.8,3.6,3.8,4.9,4.4,5.6.7.7,6.6,5.7,9.1,10.7,2.5,5,7.4,20.9,8.5,23.5.3,1.1,1.1,2.1,2.8,4.5,2.8,3.5,6.9,9.2,11.5,10.2h0Z"/>
  </g>
  <g class="st115">
    <path class="st153" d="M226.4,61.4c1.8,2.8,5.1,8.6,7.9,14.7,2.8,6.4,4.5,11.7,8.1,16-1.9-5.6-5.4-16.6-7.4-20.5-2.3-4.2-6.9-8.6-8.6-10.1h0Z"/>
  </g>
  <g class="st116">
    <path class="st203" d="M193.5,140.8s-4.9,1.2-14,6c-3,1.5-5.8,2.8-8.6,4.1-7.1,3.2-14.8,6.2-20.9,7.9.5.6.7.8.7.8,0,0,0,2.4,1.3,3.7-.7.7-10.4,7.3-7.5,29.3,1.9-.7,4.2-1.7,4.5-1.7.6,0,.7,1.7,1.4,1.7s3.1-1,5.6-4.2c0,1.3-1.5,14.4,6.2,23.3,1.4-1.7,5.1-7.3,5.1-7.3v-1.8c0,0,.4-6.2,2.5-11.9,2-5.7,6-9.9,6-9.9l20.7-29.5-3.1-10.4h0Z"/>
  </g>
  <g class="st117">
    <path class="st16" d="M174.2,184.1s-1.4,1.1-3.1,1.5c-.3-1.2-.8-5.4,2-9.4,3.3-4.9,10.6-11.2,12.7-16.2,1.3-3.2.7-11.4,12.3-21.7,11.6-10.4,16.1-14,16.1-14l18.7-9.4,23,9.1-11.4,44.9-8.9,21-35.4-6.7-26.1.9h0Z"/>
  </g>
  <g class="st120">
    <path class="st3" d="M187.7,171.9l4.4-5.5v-3.9s4.9-1.3,10.1-6.7c5.3-5.4,12.6-15.6,19-15,6.4.7,7.1,14,7.3,17.7s1.1,12.2,2.4,16.7c1.4,4.5-15.6,21.7-15.6,21.7l-11.6,8.8-15.9-33.9Z"/>
  </g>
  <g class="st121">
    <path class="st208" d="M201.3,217.7s3.6-5.6,1-6.8c1.5-3.5,4.4-7.1,4.4-7.1,0,0,2-5,8.6-11.2,6.6-6.2,10.6-10.3,11.7-14.4,1.1-4.2,1.1-8.3,1.1-8.3,0,0,1.3,1.1,2.3,1.5,1.1.5,6.1,4.6,5.4,13s-3.8,11.8-3.8,11.8c0,0-3,3-5.1,4.5-2.3,1.5-3.1,3.3-6.9,3.5.6-.5,1.3-.7,1.3-.7,0,0-4-.5-6.1,1.4-2.1,1.9-6.7,7.9-8.9,9.7-2.3,1.4-4.8,3.1-4.8,3.1h0Z"/>
  </g>
  <g class="st122">
    <path class="st218" d="M361.9,123.8s-7.6-3.1-17.8-3.5c-10.1-.3-25,.2-39.5.3-15.6,0-29.8-5.4-49.6-6.3-3.2-1.9-11.4-10.4-37.1,7.5,1.5,0,18.6-4,24.6,3.5,6,7.4,4.3,19.9,3.5,22.9-1.5,6.7-6.6,16.4-8.6,23.2s-1.5,10.4-3,15.2-4.6,7.1-2.8,12.7c2.5-1.5,3.8-1.5,8-11s3.3-16.1,10.3-24.1c6.8-8,18.2-19,22.5-21.7,4.3-2.8,38.5-20.5,74.4-3.6,8.6-.9,15.1-15.1,15.1-15.1h0Z"/>
  </g>
  <g class="st118">
    <path class="st206" d="M232.4,117.2s0-.8-.2-1.1c-.6-1.2-1.3-1.9-1.3-1.9,0,0-8.5-1.5-12.8-1.1-7.5.8-14.3,10.1-17.5,14.9-3.2,4.8-7.1,12.2-11.4,16,0-.6-.2-1.1-.2-1.1,0,0,.2.3-.2.8s-.5.7-.2,1l.7.7c.2,0,6.9-3,16-11.4,9.7-8.8,17-13.4,20.9-14.9,2.9-1.4,6.4-1.9,6.4-1.9h0Z"/>
  </g>
  <g class="st76">
    <path class="st202" d="M397.2,80.9s-1.5,1.9-3.5,4.1c-4.3,4.5-9.9,9.7-14.7,14.9-4.5,5-9.7,8.9-15.4,15.5s-12.4,13.9-14.1,16c-1.5,2.1-2.8,5.6-2.8,7.4-.8-.6-1.8-1.2-1.8-1.2,0,0,.5,1,1.4,2.1,1.2,1.7,3.1,3.8,4.1,5.1,1.5,2.1,2.4,4.6,2.5,5.5.6,0,4.3.8,8.9-6.8,4.6-7.6,10.7-16,10.7-16l9.7-14.3,6.1-12.2,7.6-13.6,1.2-6.5h0Z"/>
  </g>
  <g class="st89">
    <path class="st153" d="M407.1,71.2s-5.8,4.8-8.1,7.6c-2.3,2.8-7.6,10.4-7.6,10.4l1.9-.2,9.8-8.7,3.8-6.8.2-2.3h0Z"/>
  </g>
  <g class="st78">
    <path class="st27" d="M405.4,455s0-4,2.1-6.3c2.3-2.4,8-5.8,13.6-18.9,5.6-13,6.2-16,6.2-16,0,0-10,8.6-16.2,10.6,1.4-3,2.3-5.1,3-6.7-.8-.7-4.3-1.5-4.6-1.9,1.9-1.9,3-6.7,6.9-9.8,5-3.8,14.2-10.4,21.3-16.2s21.2-19.5,22.9-23.4c1.1,1.5,1.3,2.5,1.3,2.5,0,0-7.1,9.2-10.7,15-3.2,5-3,7.9-3,7.9l6.7-2.8s1.9,7.1-6.8,18c3.8-1.4,5.4-.6,7.5-1.8-3.6,2.3-8.5,5.4-13.1,13.9-4.5,8.5-10.7,18.4-21.2,24.6-10.1,6.5-16,11.4-16,11.4h0Z"/>
  </g>
  <g class="st82">
    <path class="st11" d="M379.2,128.8s-4,8.3-4.5,14.7c0,1.5-.5,2.8-.5,4.5,0,5.7.3,12.2-1,15.2-.5-1.2-.7-2-1.2-2.5-.7,2-2,8.4-3.1,10.7-.5-1.5-1.5-6.9-1.4-13.2s.2-7.5.2-8.8c-.2,1.9-1.5,4.5-2,6.1-.7-1.3-1.5-3-2.5-4.4-.6,1-1.3,2.4-1.9,3.1,0-.6-.3-2.1-.5-4.3,0-2.5-.2-5.7,0-6.4.2-1.3,2.3-6.4,6.6-11.1,5.1-5.6,10.4-16.4,11.9-19.7,1.5-3.3,8.1-17.2,8.1-17.2h5l-7.3,16.6s-4.4,9.1-6.7,12.4c-2.3,3.3-7.1,12.9-9.2,16.6,1.5-2,2.8-3.1,4.4-5,1.5-1.4,5.7-7.2,5.7-7.2h0Z"/>
  </g>
  <g class="st80">
    <path class="st46" d="M407.2,70.5s-1,3.5-3.8,6.9c-3,3.6-9.4,8.4-12.6,12.2-2.8,3.7-8.6,13.9-6,25.9,1-2.6,2.8-7.8,7.5-13.6,4.8-5.8,9.9-12.6,12.4-17.8,2.5-5.3,2.8-9.4,2.8-9.4l1-1.2-.6-2.8-.8-.2h0Z"/>
  </g>
  <g class="st77">
    <path class="st153" d="M505,390.9s-1.9-5.3-2.5-10c-.6-4.8,1-5.7-.8-11.2-1.1-3.3-3-2.8-3.5-3.3s-.8-5.5-.7-8.3c0-2.8,0-6.3-.6-7.9-.7-.6-1.2-1.1-2.3-4.6-1.2-3.6-1.8-5.4-2.4-6.4s-2.3-2-2.3-3.1c0-2.1,1.9-3.2,1.9-3.8,0-1.2-1.5-.2-1.9-.6-.5-.6,1.2-4.1.6-4.5-.2-.2-1.9,1.8-2.4,1.2-.5-.6-1.1-6.3-1.9-10.1-.8-3.7-1.7-6.4-1.8-7.5,0-1.1-6.7-19.8-8.3-24.3-1.5-4.5-2.8-9.4-3.2-11.7s-.8-6.9-1.1-6.4,0,2.8-.5,2.8c-.3,0-1.5-8.4-1.9-9.7-.3-1.3-2.4-5.7-2.8-8.9-.5-3.2-1.5-11.7-2.3-17.4-.7-5.7-1.1-8.1-1.1-9.6s.2-4.9-.6-10.5c-1-6.1-2.8-13.5-4.5-17.8-3.2-8.1-11.8-28.9-13.4-34.1,0-1.3,1.7-.6,1.7-.6,0,0,4.2,10.5,7.3,18.6,3,8.1,5.8,15.3,6.6,16,.6.7,5.1,8.7,7.1,21.7,2,13,2.8,25.1,4,33.1.6,3.8,1.1,7.9,2.3,11.9,1.3,4.4,3.3,8.9,6,15.9,2.3,5.8,4,10.7,4.9,14.9,1.1,5.4,1.1,9.4,1.7,12.1.6,2.3,1.4,6.8,3.5,13.4s5,15,7.1,20.3c4,10.5,5.7,19.3,6.3,24,.5,4.8,2.3,21.5,1.8,26.6h0Z"/>
  </g>
  <g class="st81">
    <path class="st45" d="M407.5,70l-.2.6s.7.2.6,1.2c0,.5,0,2.4-.2,4-.2,1.7-.7,3-.8,4.1,0,2.3.3,4.9-2.8,11.4-1,1.8-1.5,3.3-2,4.4-1.2,2.6-1.4,3-2.5,4.2,1.7-1,7.8-4.8,10.9-4.2-2.1,1.2-5.4,3.6-7.4,6.7.5,0,2.5.5,5.7,0,5.4-.8,11.4-2.8,16.6-2.4,5.7.3,3.5-6.9,3.5-6.9l-6.7-14.6-12.6-8.8-2,.5h0Z"/>
  </g>
  <g class="st79">
    <path class="st211" d="M440.2,179.2s-5.6-5.6-7.9-24.8c-2.3-19.3-1.8-47.8-1.8-47.8l-4.5-11.1s-1-7.4-3.3-10.1c-2.4-2.8-7.1-7.4-9.2-9.7-2.1-2.3-4.5-5.4-6-5.8.7-1.2,4-8,16.4-8.1,12.4,0,16.2,6.8,17.5,9.3s7.1,13.4,9.3,34.1c2,20.7,2.1,22.2,1.8,29.4-.2,4-1.5,13.1-3.8,22.9-2.1,8.3-4.3,17.6-8.5,21.8h0Z"/>
  </g>
  <g class="st90">
    <path class="st11" d="M422.6,195.7s2.6.3,5.4-1.2c1.8,0,8.3.7,13.2-5.6.3,1.4,1.2,5.4-1.1,8.8,1.2-1.2,3-1.7,3.2-2,0,1.8,1.8,7.3-5.4,20.7,1.9-2.1,4.2-2,6.2-2.3,0,2.5,1.4,11-2.1,15.5-2.4,3.1-6.2,2.1-6.2,2.1,0,0,0-1.1,0-2,0-1.3-.6-2.6-.2-3.5-.5-.2-2.5-1.1-5-3.5-4.2-4-9.7-10.7-10-15.7-.5-5.6,4.5-6.8,4.5-6.8,0,0-.6-.5-1.1-1.3-.2-.8-.5-2.1-1.4-3.2h0Z"/>
  </g>
  <g class="st91">
    <path class="st178" d="M385.4,134.9s-.2-.3-1.5,1.2c.2-1.5.5-3,.6-4.4.5-1.1,1.3-2.4,2.4-3.6-.7,1.4-1.2,2.8-1.2,2.8,0,0,1.8-3.3,4.4-5.4,1.8-1.4,4.1-2.1,5-3.5,1.1-1.4.8-1.7,1.1-1.9,0,0,2.4-1.5,6-6.1.5-.6,1.2-1.2,1.7-1.8.8-.3,2.8-1.2,5-2.4,2.4-1.3,5-3.1,6.7-3.8,3.2-1.4,6.7-1.3,8.3-3.6,1.2-.3,2.5-4,2.3-7.1,1.8.7,11,6.4,14.1,18.9,2.3,8.8-1.8,22.5-3.5,29s-1.9,11.4-4.3,14.4c-3,4-12.7,9.6-15,12.3-2,2.3-8.1,8-7.9,12.2.2,3.1,4.1,4.8,4.9,5.4.8.6.8,1.3,2.4,1s2.1-1.1,2.8-1.1c.7,0,.7.2,1.1.2s.7,0,.7,0c0,0-.2,4.4-10.5,5.7-.7,0-1.4.3-2.4.5,1.2-.6,1.9-.6,3.2-2.4-1.4-.2-5.6-.5-6.7-.8.3-.6,1.4-2.1,2.4-2.8.8-.7,0-1-.8-.6-.3.2-1.9,1.3-3.6,2.8-1.2,1.1-2.3,2.5-4.2,3.8-.6-1.9-.5-5.6,1.8-8.3-.6,0-1.7,1.8-2.8,1.4,0-.7-.2-3.1.3-5.3s3.7-6,3.7-6l15.2-27.1,3.2-20.5-34.7,6.7h0Z"/>
  </g>
  <g class="st66">
    <path class="st184" d="M384.6,136.1s-.8.6.8,1.7c-.2.3-.8,1.5-1.5,2.4-.8,1-1.7,1.5-2,2.4-.7,1.7-1.3,2.8-1.3,3.6s-.2,5.4-2.3,8.4c-.7,1.1-1.5,2.8-2.1,4.1-1.2,2.1-2.3,3.8-2.5,4.8-.5,1.7-.8,6.3-.8,6.3,0,0,1.1-1.3,1.4-1.8-.6,1.2-1.2,2.5-2.1,3.5.6-.5,2.3-1.7,5.1-4.2,4-3.3,10.1-8.9,17.7-13.4-2.3.8-4.2.8-5.7,1.1,1.2-1.2,12.1-14,17.8-15.2.6-.7.5-1.5.5-1.5l-4.9-.5-9.9,2.1-1.4-7.6-6.6,4h0Z"/>
  </g>
  <g class="st63">
    <path class="st26" d="M400.3,179.5s-1.3,1.3-2.5,4.5c-.3-.3-1.4-1.5-2.4-3.2-1.8-3-4.5-6.8-11-4.6,0-2-.2-3.1,0-4.5,1.1-.2,4.3-2.8,7.5-6.7,2.3-2.6,4.4-5.6,5.8-9.4,1-.7,2.6-1.9,4.8-3.3,3.1-2.1,6.8-5,7.4-8.3-1.4.6-4.5,2-9.2,1.8,1.8-.8,4.5-1.7,4.2-5.3.7-.5,1.3-.8,1.3-.8,0,0-.6-.2-1.7-.2,0-.3-.2-.8-1.1-.6s-1,.2-1.1.6c-.3,0-1.4,0-2.3.6s-3.1,2.5-4,2.8c.3-.6.8-1.4.8-1.4,0,0-2.4.2-4.1,1-3.1,1.1-6.7,3-10.3,4.9.3-.6.5-1,.7-1.1s.8-.2.8-.3-.2-1,0-1.3c0-.3,2.1-4.3,3.8-6.6s2-5.5,2-5.5l7.4-3.7,20.8-4.8,13.5.8-1.7,9.3-8,16.3-6.8,14.8-7.8,9.1-7.1,5.2h0Z"/>
  </g>
  <g class="st68">
    <path class="st197" d="M434,139.2s-8.1,10-10.4,11.6c1.4-3.1,10.4-21.5,13.6-26.6-.7-.6-1.7-.6.6-9.6-1.9,4.5-2.6,6.9-4.2,8.1-1.5,1.2-1.8.8-2.8.8.3-.6.2-1.2.2-1.2,0,0-6.8-.8-11.4-.8s-13.9,2.5-19,4.5c-4.1,1.7-6.3,1.7-7.8,2.8-1.4,1.2-2.3,2.5-3,2.8-.6.3-3.3,1.2-4,2.1-.6,1-1.5,2-1.5,2.3s-.2.6.5.3c.2,0,2-1.1,4.1-2.3,2.8-1.5,6.1-3.3,8.5-4.4,6.9-2.8,9.1-2.3,12.2-2.8,3.2-.6,7.9-1.9,11-1.9,3.1,0,8.9,0,10.3.2-.6.5-1.1,1.1-.8,3.1,0,.6-.5,1.2-1,2.6-1.4,4-4.2,10.5-5.7,13.9-2.1,4.5-4.5,8.4-5.7,10.7-1.2,2.4-3.8,8.6-6.4,11.9-2.6,3.3-4,5.4-4.8,6.1s-6.7,5-6.2,6.6c1.1-.3,7.8-2.8,12.7-8.4,4.9-5.5,5.8-8.8,9.7-11.8,3.8-3,6.8-8,8.6-12.2,1.5-3.9,1.2-5.1,3-8.5h0Z"/>
  </g>
  <g class="st71">
    <path class="st186" d="M259.1,214.2s-1.1,4.4-3.5,6.6c-2.4,2.1-6.6,4-7.1,7.5-.6,3.6,4.2,5.4,4.2,5.4,0,0-2.6,4.3-2.6,7.5s0,4,.2,7.1c-.6.3-1,1-1,1,0,0,.2,3.1,2.6,5s4.4,3.1,5.6,2.6c.2.5.5,1.2.5,1.2,0,0,1.8-4.5,3-8.5,1.2-4.1,2.3-3.5,2.8-8.9.5-5.5,5.7-14.8,5.7-14.8l3.6-8-5.8-4.5-8.3.9h0Z"/>
  </g>
  <g class="st69">
    <path class="st191" d="M270,222s-1.8,1.8-3.3,4c-1.5,2.1-2.8,4.1-5,4.9-2.3.8-3.7.8-3.6,3.1s2.3,3.2,3.5,4.4c1.3,1.2,2.4,3.2,1.8,5.5.7-.3,2-.7,3.2-3.3,1.2-2.6,9.7-18.5,9.7-18.5h-6.2Z"/>
  </g>
  <g class="st67">
    <path class="st44" d="M303.3,185.4s.7-1.9,0-3.3c-.7-1.4-5.1-1.9-7.3-3.6-2.3-1.7-5-2.8-7.3-2.1.3-.8,1.7-2.6.6-3-1.1-.3-5,1.4-6.1,2.3-1.1.8-3.5,1.8-4,2.4s-1.3,1.7-1.8,1.2c-.5-.3-.7-1.2-1.5-.7s-4.8,3.7-5.5,5.6c-.7,1.9-2.4,6.1-7.3,10.9-4.9,4.8-7.1,7.9-5.6,9.7s2.1.5,2.4,2c0,.7.2,2.6-.2,4.5-.6,2.5-1.5,4.9-.2,5.4,3.3,1.1,6.6-1,7.3-.3,1.4,1.3-.8,6,2.6,6.9,3.5,1,6.9-.8,6.9-.8l12.7-6.8,12.2-6.4,6.2-12.3-3.3-10.3-.6-1.1h0Z"/>
  </g>
  <g class="st70">
    <path class="st182" d="M291.3,214.8s-2.1-3.2.5-6.1c2.6-2.8,6.3-4.1,7.8-5.8-.5-.6-1.1-.7-1.1-.7,0,0,1.3-2.6,4.2-4-.7-.7-1.7-1.3-2.8-1.3-2.4,0-3.8,1.4-6,1.4s-2.4-1.1-2.4-1.1c0,0,3.6-.3,3.2-1.9-.3-1.7-1-1.7-1-1.7,0,0,6.9-2.8,8.1-4.4s1.1-3.3,1.3-4.1c.8,0,5.6-2.5,7.5-1.4,1.9,1.1.6,4,.6,4,0,0,5.8-4.4,8.8-8.7,2.6.2,3.8-1.8,5.7-1.8s6.1,3.2,6.8,10.1c.5,4,1.2,6.2.5,13.2-.3,4-.2,12.4,1,16.6.8,3.3,2.8,3,2.8,3,0,0-.3,1.4-1.7,2.6-1.3,1.2-1.4,4.4-1.3,5.6.2,1.2.7,2.6.7,2.6,0,0-1.5,1.8-1.9,3-.3,1.2-1.9,2-3.1,2s-.6,0-2.1,0c-1.5,0-2,.3-3,0-1-.3-1.7-.7-1.3-3.8.3-3.1-11.9-10.3-11.9-10.3l-20-7.1h0Z"/>
  </g>
  <g class="st64">
    <path class="st188" d="M268.3,245.3s4.4,5.8,22.5,5.8,11.6-.8,13.4-1.3c1.9-.5,9.2-3.3,16.5-11.9,6.6-7.8,5.1-11,5.1-11l-3.8-.6-12.4,1.7-36.8,15.6-4.4,1.6h0Z"/>
  </g>
  <g class="st65">
    <path class="st181" d="M281.8,246.8s-15.6,3.5-15.6-6.4,9.7-19.8,12.1-21.6c2.5-1.8,8.5-3.8,8.5-3.8h14.4l2.8,7.3-1.2,15.7-20.9,8.8h0Z"/>
  </g>
  <g class="st112">
    <path class="st192" d="M296.2,217.9s-3-2.8-9.8,1c-6.8,3.7-12.3,11.4-12.7,18.5-.3,6.2,5.1,10.9,13.6,11.1,6.3.2,10.1-.5,12.1-1-.5-.6-3-3.7-3-3.7l-.2-25.9h0Z"/>
  </g>
  <g class="st83">
    <path class="st38" d="M293.3,219.4s-.7-.6-2.8.6c-1.8,1-4.4,3.5-6.4,5.3-1.3,1.1-2.1,1.5-2.8,2.4-3,3.6-5.5,9.4-4.1,12.3,1.4,2.8,6.2,6.2,18.4,4l-2.2-24.5h0Z"/>
  </g>
  <g class="st86">
    <path class="st181" d="M289.3,225.4s-1.9,3-1.9,7.8,2.8,12.7,12.9,13.2c7.8.5,13-11.2,18.6-15.7,4.3-3.5,6.9-3.6,6.9-3.6,0,0-4.4-4.8-16.1-11-11.6-6.2-24.6-7.1-31.6,2.5,3.3-.2,14.1-3,14.1-3l5.3,1.7-8.1,8.1Z"/>
  </g>
  <g class="st88">
    <path class="st12" d="M304.5,231.8c-.3-.7-.6-1.7.8-1.9,1.4-.2,2,0,2.5,1s1,1.9.2,2.4c-.7.4-2.6,0-3.6-1.4ZM302.2,224.9s-.5.3-.2-.3c0-.8.7-2.3,2.3-1.9,1.5.3,1.2,2,1,2.5s-1.5,1.3-2.5,1c-1-.3-.5-1.2-.5-1.2Z"/>
  </g>
  <g class="st87">
    <path class="st32" d="M171.4,228s3.8,2.8,8.3,2.8c4.4,0,10-4.6,12.7-7.5,1.5-1.7,2.8-3.5,4.3-4.9,1.2-1.2,2-1.8,2.6-2.6.8-1,1.7-2.8,2.1-3.3-1.1.8-2.6,2.3-4.2,3.2-1.5,1-4.9,2.8-6.2,3.2-1.3.5-14.8,7.6-14.8,7.6l-4.7,1.5h0Z"/>
  </g>
  <g class="st85">
    <path class="st42" d="M177.3,192.3s2.1-1.4,6.2-2.4c4-1,11.9-1.7,11.9-1.7l6.6,2.8,2.6,9.9-4.8,10.3-6.1,3.8-6.9-11.1-9.6-11.7h0Z"/>
  </g>
  <g class="st74">
    <path class="st187" d="M168.7,201.2l-2.3,1.7s.6-1.1,1.1-4.3c.5-3.2,3-11.1,6.7-15.6s3.6-4.3,3.6-4.3c0,0-1.1-.2-1.9.5.5-1.1,3.6-4.9,6.7-6.8,3.1-1.9,4.3-2.5,7.5-1s4.1,2.4,6.4,2.3,4.4-2.6,4.4-2.6c0,0,.5,1.5-1.3,5.1-1.8,3.6-8.8,10.9-8.8,10.9l-14.7,10-7.3,4.2h0Z"/>
  </g>
  <g class="st72">
    <path class="st183" d="M179.6,191.1s10.6,1.4,13.9-1.5c0,.3.5.3.5.6s-.2.5-.2.5c0,0,.6,0,1.1,0,.5,0,.8.2,1.3.2s1.1,0,1.1,0c0,0,0,.8-.7,1.2.5,0,1,0,1,.5s0,1.5-.5,1.8c-.7.2-1.4,0-1.4,0,0,0,0,1.3.7,2.6,1,1.8,3,3.8,5.7,3.2,0,0,1.4,3.5-4.6,11.2-.8,1.1-1.7,2.5-2.8,3.7-.8,1.9-1,2.8-1,2.8,0,0,10.3-4,13.2-13,3-9.1,3.6-18,3-26.4,0-2.4-.5-4.1-1.1-5.3-1.4-3-5.5-2.5-7.1-.8-2.4,2.4-6.3,8.3-11.8,12.3-5.6,4.1-5.8,4.8-10.1,6.6h0Z"/>
  </g>
  <g class="st84">
    <path class="st188" d="M166.8,204.2s-2,1.2-3.1,5.7c-1.1,4.6,1,10.3,2.1,12.1,1.2,1.8,3.8,6.7,9.3,6.9,1.2,0,2.6-.2,4-.8,1.9-.8,3.8-2.1,5.4-3.3,2.4-1.8,4.3-3.3,4.1-3.5-.6-.2-14.6-11.8-14.6-11.8l-5.3-5.9-1.9.6Z"/>
  </g>
  <g class="st73">
    <path class="st199" d="M180,223.4s2.8-.2,4.5-1.3-9.9-12.6-9.9-12.6l.8,12.4,4.5,1.4Z"/>
  </g>
  <g class="st75">
    <path class="st212" d="M167.7,203.3s-1.4,2.8-1.4,3.5c-.2,2.4.5,9.8,1.1,12.2.6,2.5,3.7,6.3,7.8,6.3s6-1.5,6-1.9-3.6-1-4.5-2.8c-.6-1-.8-3.3-1-5.7,0-1.5,0-3.2.5-3.8,1.3-1.4,1.5-5.6,1.5-5.6l4.6-8.6h-6.1l-7.3,4.5-1.2,1.9h0Z"/>
  </g>
  <g class="st132">
    <path class="st181" d="M165.9,206s4.8-6.3,9.1-7.8c4.3-1.4,6.2-.6,6.2-.6l-2.5,6.4-3.6,4,.2,2s-.6,5.4,3,9.1c3.6,3.7,6.2,3.6,7.8,3.6s6-1.3,8.3-6.7c2-5,3.7-11.4-.3-17.9-4-6.4-11-6.7-12.3-6.7-1.4,0-12,.5-15.8,14.5Z"/>
  </g>
  <g class="st134">
    <path class="st193" d="M288.6,227.5c-1.8-.8,0-5.8,1.7-7.4,1.8-1.5,4.1-3.3,8-3.6,1.4,0,2.8.8,2.6,1.8-.3,1.8-2.8,4.3-5.1,6.1-3.1,2.5-5.2,4-7.2,3.1h0Z"/>
  </g>
  <g class="st135">
    <path class="st205" d="M192,200.1c1.3,0,3,1,3.3,2.4.3,1.5-.8,4.6-3.3,4.6s-3.1-2.5-3.1-3.2.3-1.4.5-1.7c0-.1.3-1.8,2.6-2.1Z"/>
  </g>
  <g class="st136">
    <path class="st8" d="M173.1,201.2s-3.3,1.5-4.9,4.8c-1.5,3.2-1.2,6.4-1,7.6s1.4,4.2,2.3,5.3c.8,1.1,1.9,1.8,2.8,1.7s2.5-2.3,2.5-3.6,0-6.8,1.7-9.8c1.4-3-3.4-6-3.4-6h0Z"/>
  </g>
  <g class="st137">
    <path class="st195" d="M173.6,200.9c-.6.3-1.5.8-1.3,1.4.2.6,2.3,1,3,2.4.8,1.4.8,3,.6,3.7.2,0,1-.5,1.7-1.2,1.1-1.2,2.4-2.8,3.5-2.8s1.4.3,2.1.3c1.1,0,2.1-.3,2.3-1.4.2-1.4-2-2.8-3.3-2.5.2-1,.6-2.4-.5-3.3s-4.4.7-5.1,1.2c-.8.5-2.9,2.3-2.9,2.3h0Z"/>
  </g>
  <g class="st129">
    <path class="st154" d="M250.4,302.4l7.1-2.1,2,1.4s1.4,3.1,3.7,3.5c-.7,1.5-2.6,2.8-2.5,4s1.1,1.9,1.1,1.9c0,0-6.4,10.6,6.2,21.3-3,1.2-6.8,2.8-8.8,3.8,1.4.3,4.5,1,5.8,2.1,1.3,1.2,1.3,1.5,2.5,2.3s1.9,1.7,1.7,2.1c-.8-.5-3.6-1.9-4.1-.6-.5,1.3-11.9.8-11.9.8l-19.3,3.7s.7-1.9-1.3-3.7c-2.4-2.1-5.3,0-8.4-2.3-4.1-3.1-4.2-6.7-5.5-8,1.3-.8,4-2,10.3-2.8-.2-.5-1.1-1.9-.6-3.2.6-1.7,3-2.8,2.3-4.8,1.1-.2,1.5-.2,4.2-3.6,2.5-3.3,4.1-4.1,6-4.3,1.9-.2,3.1,0,6.7-3.3,2.5-2.4,1.7-4.4,1.7-4.4,0,0,1.6-.5,1.1-3.9Z"/>
  </g>
  <g class="st130">
    <path class="st47" d="M229.3,303.5c0-.5.5-.7,3.1-.5,2.6.2,19.1-1.5,23.6-1.8,4.5-.3,20.5,0,28.3,1.5s15.6,3.6,19.5,4.5c3.8,1.1,5,1.4,4.9,1.9,0,.5-1,1-1.4.8-.5,0-13.1-4-17-4.8-3.9-.8-17.4-3-24.8-2.8-6.9,0-9.7,0-15.5.6-5.8.7-15.5,1.7-18.4,1.3-2.8-.3-2.3-.3-2.1-.8h0Z"/>
  </g>
  <g class="st131">
    <path class="st36" d="M268.1,341.3s9.9,5.4,13.5,11.9c2.6,4.9-1.5,7.3-1.5,7.3,0,0,5.6,0,4.9,3.1-.3,1.9-9.7,7.1-15.9,9.9-6.3,2.8-6.1,2.6-9.2,3.1-3,.5-11.2-1-12.9,1.4-1.7,2.4-1,4.9-.5,5.3.5.3,4.4.8,4.4.8,0,0-.8,2.3-8.9,2.5-8.1.2-10.1.8-10.6,1.7-.5.8,1.5.3,5.3,1,3.7.6,8.9,1,8.9,1,0,0-1.7,1.4-6.1,2.6-5,1.3-12.9,2.5-15.3,4,1.2.8,3,2,3.8,2.1-2,.5-4.9,1.5-5.4,1.9.7.5,1.7,1.1,1.7,1.1,0,0-4.1,4.9-6.4,6.1-2.4,1.2-16,7.5-20.7,6.3-11.7-3.1-13.1-15.9-16-16.9-4.3-1.4-6.3,1.4-10.1-.6,1.7-1.2,2.6-1.9,4.4-2.8-1.9-1-11.9-7.3-11.9-7.3,0,0-1.2-2.8-3.5-6.7-1.9-3.3-4.8-7.8-6.9-11.7-4.6-8.6-4.9-12.6-9.1-17.4.7-1,3.2-.8,3.2-.8l35.2,11.6,62.4,1.8,16.2-23.2,6.9.8h0Z"/>
  </g>
  <g class="st138">
    <path class="st28" d="M175.7,376.7s.5.6,1.3,1.1c1.2.8,3,1.8,4.2,3.2.5-.7,1.7-2,3.8,0,2.1,2,4.8.6,6.4,1.1,1.7.6,1.8.8,1.8.8,0,0,1-.8,3.1-1.7,1.3-.5,2.8-.8,4.5-1.3,1.5-.3,3.2-.8,4.4-.8,1.1.7,4.9,4.8,20.2-1.2,14.4-5.6,17.8-6.2,20.2-5.4.2-.6.5-1.7,4.2-1.5,0-1.5-3.1-6.8-3.1-6.8l-17-5.8h-9.3l-28,5.1-15.5,8.8-1.2,4.4h0Z"/>
  </g>
  <g class="st133">
    <path class="st4" d="M166.3,366.9s.3,2.6,4.2,5.4c3.8,2.8,5,4.4,5,4.4,0,0,.7-1,1.3-1.9.6-1.1,1.1-2.3,2-2.6,1.9-.8,6.3.7,7.3.5.8-.2.6-1.9,1.4-1.9,2,0,3.3,1.3,4.1,1.3s2.5,0,2.8-.5.3-4.4,3.1-6.3c3-2.1,6.7-1.2,7.6-.7,0,.7,0,2.5,2,2.6,1.9,0,2.1-.2,3.8.3,1.7.6,3.7,0,4.6,2.8.8-.2,2.8-.5,2.3-3.2,1-.7,1.8-1.2,3.8-4.1.5-.7,1.3-1.5,1.9-2.6,1.7,0,3.7-.3,6.4,2-.8.6-1.3,1-1.5,1.5.2.2,1.2,1.2,1.9,2.3.7,1,1.2,2.1,2.1,2.4,2,.6,5.4-.2,9.1,0,3.6.2,6.6,1.5,7.9,2.4.5-.2.5-.3,1.7,0,1.2.2,2.1.3.8-1.2.7.3,1.5,1.1,2.3.3s1.3-1.8,3.3-2,2.8,0,3.6-2c1.1-2.6-2.6-2.6-2.6-2.6,0,0,1.7-1.5,3.6-3.6,2.3-2.1,4.9-4.9,5.5-8.3,1.1-6.2-5-7.1-5-7.1l-29.5,9.1-36.1-1.8-30.8,15.3h0Z"/>
  </g>
  <g class="st123">
    <path class="st7" d="M139.8,281.6s-1,1.2-1.5,4.1-.3,2.5-.8,4.5-6.4,22.2-4.2,29c2.2,6.8,6.1,9.3,8.5,14.8.5,1.2,1,1.9,1.2,3,.8,3.6,0,6.3,1.1,9.9.3,1.2,1.2,2.6,2.5,4.1,2.8,3,7.5,5.8,9.6,7.9,2.8,3,6.9,9.1,12.1,9.7,2.8.3,6.7-.8,9.9-2.8,2.8-1.8,4.6-4.3,7.6-5.7,2.1-1.1,4.4-1.4,6.4-1.9,4.2-.8,8-1,10.3-.5,3.5.7,11.7,3.2,16.2,3.2s6-.2,10.5-1.4c6.9-2,15.3-5.5,20.8-7.1,3.2-1,5.8-1.2,8.5-1.8,4.5-1.1,8.4-2.5,10.5-5.3-1.4-1.7-3.2-4.3-12.9-4.2-11,.2-23.6,6.3-29.8,7.3-6.2,1-8.9,1.8-15.9-.7-6.8-2.5-7.1-4.2-7.1-4.2,0,0-7.1-5-10.1-17.8-3-12.8,0-22.1,7.8-30.9,2-2.3,1.5-4.3,1.5-4.3,0,0,5.1-6.9,3.7-13.4-1.5-6.4-11.4-5.1-11.4-5.1l-54.9,9.6h0Z"/>
  </g>
  <g class="st141">
    <path class="st19" d="M148.1,303.1s-.7,1.3-.6,2.6c0,1.3.5,3,4.4,6.8,3.3,3.3,2.6,7.1,2.6,7.1,0,0,1.7.3,6.2-1.8,3.6-1.7,4.8,1.3,4.8,1.3,0,0,1.4-.8,3.3-1.1,1.9-.2,3-1,3-1,0,0,4.2,4.3,7.9,6.3,3.3,1.8,5.3,3,6.9,1.8,1.5-1.1,1.5-3.2,1.4-4.2,0,0-.5-1.2-1.4-2.5-1.1-1.5-2.8-3.3-2.8-4.8-.2-3.3,2.5-7.3,1.9-8.3s-2.8-1.2-8.1.7c-5.6,1.8-29.5-3-29.5-3h0Z"/>
  </g>
  <g class="st139">
    <path class="st35" d="M160.7,324.7s-2.8-2.6-1.8-15.3c1.4,0,3.5.3,3.5.3,0,0,1.5,9.8-1.7,14.9h0Z"/>
  </g>
  <g class="st125">
    <path class="st181" d="M141.1,272s.5-.3,1.1-1c-1,1.8-5.4,8.9-1.8,20.2,3.6,11.2,12.6,19.6,23.6,19.9,11.1.4,16.9-5,23.5-13.1,2.6-3.2,5.6-7.3,8.3-10,4-4.3,7.1-5.5,7.1-9.7,0-8.5-8.7-12.3-21.5-16.1-12.8-3.8-24.3-3.3-30.3-.7-5.8,2.8-8.4,5.8-9.9,10.5h0Z"/>
  </g>
  <g class="st127">
    <path class="st14" d="M182.2,328.5l1-.5s.2-3.8,1.8-3.7c1.5.2,2.3,2.3,2.1,3,0,.7-.5,1.9-2,1.8-2,0-2.8-.6-2.8-.6Z"/>
  </g>
  <g class="st124">
    <path class="st215" d="M177.9,312.3s1-.3,2.1.8c1,0,5.1-.5,6.4.3,1.3.8,1.7,1.5,1.7,1.5,0,0-4.9,1.1-7.5,0-2.7-.9-2.7-2.7-2.7-2.7h0Z"/>
  </g>
  <g class="st128">
    <path class="st177" d="M199.4,313c0-.2-2.6-2-5.4-2.6-.5,0-.6.2-1,.2-.2,0-.3-.8-.3-.8l-1.5.8s-.2.3.6,1c.7.6,1.9,1.1,2.3,2s.3,1.3.5,1.4,1.8,0,2.6-.5c.8-.5,2.4-1.3,2.3-1.6Z"/>
  </g>
  <g class="st140">
    <path class="st22" d="M175,322.8s.5-3.3,3.7-3.5c3.3-.2,4,3,4,3l-1.9,1.9s-1.4-2.1-5.7-1.4h0Z"/>
  </g>
  <g class="st142">
    <path class="st30" d="M196,308.5s-1.8,1.9-5.7,2.5c-.3-.5-1.1-1.4,0-3s2.3-2,3.5-1.5c1.2.2,2,1.1,2.3,2h0Z"/>
  </g>
  <g class="st126">
    <path class="st177" d="M203.3,310.9c0-.5-.2-.6,0-.8s1.5-.7,1.8-.5,0,.5,0,1,0,1-.2,1.3c-.3.5-1.3.7-1.8.6-.5,0-.6-.8-.6-1,.2,0,.8-.3.8-.6ZM211.6,305.7c0-.2.8-.7,1.3-.7.7,0,.7.6.8.7.2,0,.2,0,.5.3.2.5.6,1.2.3,1.7s-1.2.8-1.4.7c-.3-.2-1.4-2.4-1.5-2.8h0Z"/>
  </g>
  <g class="st163">
    <path class="st7" d="M195,312s1.1.2,2.5,1.4c-.5.3-1.2.7-1.2.7,0,0,0-1.1-1.3-2.2Z"/>
  </g>
  <g class="st157">
    <path class="st188" d="M192.6,301.4c-.2-.2.7-.8,1.3-.7s.8.5,1.4.6.7-.2,1-.5,1.1,0,1.2,0c0,0,.2.3.2.3,0,0,0-.6.5-1,.5-.3,1-.3,1.3-.2,0,.3.6,1.5.5,1.8s-1.5.6-1.8.3c.2.6,1.3,1.8,1.4,2,0,.2-1.1.8-1.5.7-.7,0-4.8-2.5-5.6-3.4h0ZM198.9,293.3s0-.3-.5-.6c-.3,0-1.4,0-1.4.6s1,3.8,2,5.5c1.2,1.7,2,3.1,2.8,3.5.8.3,1.3-.2,1.4-.5,0-.2.3-2,.2-6.2s-.2-8.3-.5-8.5-1.2-.2-1.5.2-2.5,5.3-2.6,6h0Z"/>
  </g>
  <g class="st156">
    <path class="st30" d="M194.6,318.1s-1.7-1.1-3.3-.3c-1.5.7-1.4,3.6-1.4,3.6,0,0,1.1.5,2.1-.2s2.4-1.9,2.7-3Z"/>
  </g>
  <g class="st161">
    <path class="st177" d="M197.8,321.9c0-1-1-1-1-1.4,0-.5.6-.8,1.1-.8s1,.6,1.5,1c.6.3,1.4,1,1.5,1.7s-1,2.8-2.1,2.8c-1.2,0-.8-2.2-1.1-3.1h0ZM207.1,320.6s-1.9.6-1.8,0c0-.6.6-.7,1.2-.7.2-.2.7-.6,1.2-.6s.7.2.7.2c0,0,1.3-.6,1.7-.2.3.3,0,.3.3.7.2.3.6,1.1.6,1.4s-1.4,1.2-2.6,1.1c-1.4-.3-1.1-1.7-1.4-1.9h0ZM218.4,318.4s.6.3,0,.7c-.3.3-2,1-3.5,1.1-1.4,0-2.8.2-2.8-.2s1.2-1.4,1.9-1.7c.2-.3.7-.6,1.2-.6s2.8-.2,3.5-.3c.6,0,1.1.2.7.7-.1.3-1.2.3-1.2.3ZM221.7,303.5s-.7,1.5-1.5,1.5c-.8,0-.8-.3-.8-.6s.8-1.2.7-1.4c-.2,0-.8,0-.7-.6,0-.5.8-1.1,1.5-1,.2-.2,1.1-.7,1.9-.7s1.5.2,1.5.7-1,1.5-1.3,1.8c-.4.4-.9.6-1.4.2ZM210.7,332s-1,0-1,.6.2.2.6,0c.2,0,.6,0,.6,0,0,0,0,.6.8.6s1.1-.2,1.7-.6c.6-.2,1.1-.5,1.1-1-.2-.8-.7-1.2-1.4-1.2s-1.1.2-1.1.2c0,0-.2-.5-1.1,0s-.7.5-.5.7c.4.4.3.6.3.6h0ZM205.3,337c0-.2,1.2-.7,1.5-.6.3,0,1.3,1.9,1.3,2.1s-1.2.8-1.7.8-1.3-.8-1.3-1,.6-.2.6-.3c.1-.2-.4-.8-.4-1.1h0ZM201.4,330c.2,0,.2-.3.6-.6s.7,0,.7,0c0,0,.2-.5.8-.6s1.1,0,1,.2c0,.7.5,1.2.5,1.8s-.3,1.3-1.5,1.8c-1.2.3-2.8.3-3.1.2s-.5-1.1-.2-1.5c.2-.5.9-1,1.3-1.3h0Z"/>
  </g>
  <g class="st158">
    <path class="st7" d="M203,330.3s-.8.5-.8.7c0,.2,0,.6,0,.7s1.1,0,1.2-.2c0,0-.3-1-.3-1.2h0Z"/>
  </g>
  <g class="st162">
    <path class="st188" d="M195.8,328.1c.5,0,1.3,0,1.9.2.5.2.8.7.3,1.3s-1,1.4-2,1.3c-1.2,0-2.4-.7-2.4-1.2,0-.6.2-1.3.6-1.7.5-.4.7-.1,1.5,0h0Z"/>
  </g>
  <g class="st160">
    <path class="st30" d="M195.2,328.5s-1.5,1.2-1.9,1.8c-.5.6-2.8,3.6-3.6,4.2.2-.5.8-1.2.8-1.2,0,0-1.4.8-2,2.6s3.2,2.8,5.7,3.5c2.5.7,3.5,1,3.5,1,0,0-1.4-2.1-2.4-4.4-1-2.3-1.4-2.5-.8-3.6.5-1.1,1.2-1.8,1.2-2.6-.3-.8-.5-1.3-.5-1.3h0Z"/>
  </g>
  <g class="st165">
    <path class="st181" d="M140.2,332.4s.3,0,1.1,0,8.3-2.8,16.1-2.4c3.5.2,9.7.7,17.4,2.8,9.9,2.6,22.2,7.8,30.2,10.7,2.1.8,4.2,2.3,5.7,2.8,6.1,2.4,6.3,2.4,9.9,3,4.2.6,8.5-.8,13-1.8,5.5-1.2,14.9-1.8,23.2-3,4.3-.6,7.9-1.8,7.9-1.8,0,0-6.6,6.6-22.3,8.9-7.9,1.2-14.3.8-19.2.2-5-.5-8.4-1.2-10.9-1.9-2.8-.8-8.7-3-15.9-4.8-5-1.3-10.6-2.3-17-3.5-15.8-2.9-33-6.2-39.2-9.5Z"/>
  </g>
  <g class="st164">
    <path class="st0" d="M131.9,271.1l-40.2-37.6"/>
  </g>
  <g class="st159">
    <path class="st180" d="M131.9,268.3c-1.7-1.5-3.5-3.1-5.1-4.6-1.7-1.5-3.3-3.1-5-4.6l-5-4.8c-.8-.8-1.7-1.5-2.5-2.4-.8-.7-1.8-1.5-2.6-2.3-6.7-6.3-13.4-12.7-19.9-19,6.8,6.2,13.5,12.4,20.3,18.7l2.4,2.4c.8.8,1.7,1.5,2.5,2.4l5,4.6c1.7,1.5,3.3,3.1,5,4.8s3.3,3.2,5,4.8h0ZM43.5,267.3s24.2,2.5,36.1,4.2c11,1.5,45.3,6.8,45.3,6.8M43.5,267.3c6.8.6,13.6,1.3,20.4,2,3.5.3,6.8.7,10.1,1.1l5.1.6c1.7.2,3.3.5,5,.7l20.3,3.2,10.1,1.7c3.3.6,6.7,1.2,10.1,1.8-3.3-.3-6.8-.8-10.1-1.3l-10.1-1.4-20.3-3c-1.7-.2-3.3-.6-5-.8l-5.1-.6c-3.3-.3-6.8-.8-10.1-1.2-6.8-.8-13.6-1.7-20.4-2.8ZM122.4,284.6s-25.9,6.6-34.6,9.1c-8.6,2.4-34.6,10.3-34.6,10.3"/>
  </g>
  <g class="st170">
    <path class="st180" d="M122.4,284.6c-5.7,1.7-11.4,3.3-17.3,4.9l-17.3,4.6c-5.7,1.7-11.4,3.3-17.2,5l-8.6,2.4c-2.8.8-5.7,1.5-8.7,2.4,2.8-1,5.7-1.9,8.6-2.8l8.6-2.8c5.7-1.8,11.4-3.5,17.2-5.3,5.8-1.4,11.6-3,17.4-4.4,5.6-1.4,11.4-2.8,17.2-4.1h0ZM56.7,319.9c2.8-1.1,35.7-16.4,43.3-19.9,3.8-1.8,14.9-5.7,14.9-5.7"/>
  </g>
  <g class="st169">
    <path class="st180" d="M56.7,319.9c2.5-1,4.9-2.1,7.3-3.2l7.1-3.3,14.3-6.9c4.8-2.3,9.4-4.8,14.3-6.9,2.5-1.1,5-1.9,7.5-2.8l3.8-1.2c1.3-.3,2.5-.7,3.8-1.1-4.8,2.3-9.8,4.2-14.6,6.4-4.8,2.4-9.7,4.3-14.6,6.4l-14.6,6.4c-4.9,2-9.7,4.1-14.5,6.1h0ZM59.9,333.3s29.8-17.4,40-23c5.4-3,22.7-11.6,22.7-11.6"/>
  </g>
  <g class="st172">
    <path class="st180" d="M59.9,333.3c5-3.1,10.1-6.2,15.3-9.4l7.6-4.6c2.6-1.5,5.1-3,7.8-4.5,2.6-1.5,5.1-3.1,7.8-4.5,1.3-.8,2.6-1.4,4-2l4.1-2c5.4-2.6,10.7-5.3,16.4-7.5-5.1,3.2-10.4,6-15.6,8.8-2.6,1.4-5.3,2.8-7.9,4.2-2.6,1.4-5.1,3-7.8,4.4-2.6,1.5-5.1,3-7.8,4.4l-7.9,4.3c-5.4,2.9-10.6,5.7-15.9,8.6h0ZM122.4,302.5s-18.5,14.2-24.5,18.7c-6,4.5-23.6,17.3-23.6,17.3"/>
  </g>
  <g class="st171">
    <path class="st180" d="M122.4,302.5c-3.8,3.2-7.9,6.3-11.8,9.3l-11.9,9.2c-4.1,3-8,6.1-12.1,9.1-4.1,3-8.1,5.8-12.4,8.6,3.8-3.2,7.9-6.2,11.9-9.2s8.3-5.8,12.2-8.8l11.9-9.2c4.1-3,8.1-6.1,12.2-9ZM101.3,336.3s4.3-3.6,9.7-8.6c6.7-6.2,14.8-14.2,17.4-15.6"/>
  </g>
  <g class="st167">
    <path class="st180" d="M101.3,336.3c2.1-2.1,4.4-4.2,6.7-6.2l3.5-3c1.1-1,2.3-2,3.3-3.1,2.1-2.1,4.2-4.4,6.3-6.6,1.1-1.1,2.1-2.1,3.3-3.1.6-.5,1.2-1,1.9-1.3.6-.3,1.2-1,2-1.1-.5.7-1.1,1.1-1.5,1.7-.6.5-1.1,1.1-1.5,1.5-1.1,1.1-2.3,2-3.3,3-2.3,1.9-4.6,3.8-6.9,5.8-2.3,2-4.4,4.2-6.7,6.2-2.5,2.1-4.7,4.1-7.1,6h0ZM130.2,317s-15.7,15.4-19,17.9"/>
  </g>
  <g class="st174">
    <path class="st180" d="M130.2,317c-1.4,1.7-3,3.2-4.5,4.6l-4.8,4.5c-1.5,1.5-3,3.1-4.6,4.6-1.7,1.4-3.2,2.8-5,4.2l4.6-4.5c1.5-1.5,3.2-2.8,4.9-4.4l4.6-4.5c1.6-1.6,3.1-3.1,4.8-4.5h0ZM130.9,325.4s-1.8,5.3-5.1,11.8c-4.1,8.1-10.1,18.3-12.8,23.4"/>
  </g>
  <g class="st175">
    <path class="st180" d="M130.9,325.4c0,1.8-.5,3.3-1.1,4.9-.6,1.5-1.2,3.1-1.9,4.5-.7,1.4-1.5,3-2.4,4.4-.8,1.4-1.8,2.8-2.5,4.3l-4.9,8.6c-1.7,2.8-3.3,5.7-5.1,8.5,1.2-3.1,2.8-6,4.4-8.8,1.7-2.8,3.2-5.7,4.8-8.7.7-1.4,1.4-3,2-4.5.7-1.5,1.4-3,2-4.4.7-1.5,1.3-3,2-4.4.8-1.5,1.5-2.9,2.6-4.3Z"/>
  </g>
  <g class="st173">
    <path class="st40" d="M148.1,365s-4.8,6.3-4.3,14.3c1.3-4.2,2.9-10.6,4.3-14.3ZM152.6,371.3s-1.7,17.2-3.1,25.6c2-9.8,2.4-8.9,3.1-25.6ZM184.2,398s-7.1,21-7.3,26.9c1.5-6,4.5-18.3,7.3-26.9Z"/>
  </g>
  <g class="st166">
    <path class="st5" d="M201,363.7s11.6,19.1,20.3,35.5c-2.4-8.2-7.8-23.3-20.3-35.5Z"/>
  </g>
  <g class="st168">
    <path class="st204" d="M232.1,391.8s9.1,15.6,17.2,34.7c-1-8.2-3.6-22.3-17.2-34.7Z"/>
  </g>
  <g class="st176">
    <path class="st15" d="M323.7,420c1.9-1.2,5.7-7.8,9.1-9.4,3.3-1.7,5.8-2,8.8-5.4,3-3.5,3.8-5.6,10.4-8.4,9.2-4,2.8-9.1,2.8-9.1,0,0,1.5-1.5,3.2-2.8,2.4-1.8,5.1-4,4.9-7.8-.3-6.4-1.5-15.7-6.8-21.2,5.1-1.1,14.9-1.8,21-3.3,7.1-1.8,10.3-4.3,10.3-4.3,0,0-4.1-6.9,2.5-13.9,6.6-6.9,11.9-11.1,15.9-18.9-4.5-.6-11.4-3-29.1,3.7,1.3.6,2.8,1.5,2.8,1.5,0,0-10.9,3-14.8,6.3-6.9,5.8-7.8,10.6-15.3,14.2-7.5,3.6-15,2.6-21.3,5.5-6.2,2.8-7.1,5.4-9.4,6.4.5.6,0,1.5.8,2.4-.6.8-4,6.3-7.4,6.3.3,1.3,3.2,2.3,3.2,2.3,0,0-2.1,1.5-7.5,1.9,2.8,2.8,5.4,6,12.6,10.5-.6,1.2-3,3-2,5.3,1.1,2.3,3.8,5.4,14.8,7.9-5.6.2-12.2,1.5-21,.3-8.8-1.1-10.3-1.7-15.7-.3.6.6,2.1.6,3.5,2.1-1.4,0-10.5-1.1-13.6,3-3.2,4.2-4.6,11.1-4.4,15.7-1.7.8-3.3,2.3-2.5,5.3s5.1,4,7.9,5.8c2.8,2,3,2.8,5.6,2.3,2.8-.6,6.8-3.3,9.2-3.3s4.1,1.8,4.1,1.8c0,0,6.4-3.1,7.1-2.5.6.6,0,4.3.7,4.9.6.4,7.9-3.9,9.8-5.1h0Z"/>
  </g>
  <path class="st217" d="M464.1,226.7c-30.2-78-104.8-92.4-104.8-92.4h-212.9l.8,79.4h42.4v177.3h-43.2v79.3h207c49.9,0,89.9-50.1,89.9-50.1,64-90.9,20.8-193.4,20.8-193.4ZM354.5,366.7s-16.2,23.4-33.9,23.4h-35.4l-.8-176.2h45.4s21,4.4,35.7,46c0,0,19.5,59.6-11,106.8Z"/>
  <metadata>
    <sfw xmlns="http://ns.adobe.com/SaveForWeb/1.0/">
      <slices/>
      <sliceSourceBounds x="-971.7" y="-8228.72" width="5853.97" height="3446.46" bottomLeftOrigin="true"/>
    </sfw>
  </metadata>
</svg>