<?xml version="1.0" encoding="UTF-8"?>
<svg id="Capa_1" xmlns="http://www.w3.org/2000/svg" version="1.1" viewBox="0 0 600 600">
  <!-- Generator: Adobe Illustrator 30.3.0, SVG Export Plug-In . SVG Version: 2.1.3 Build 182)  -->
  <defs>
    <style>
      .st0 {
        fill: #008de4;
      }

      .st1 {
        fill: #fff;
      }
    </style>
  </defs>
  <circle class="st0" cx="300.7" cy="300.5" r="300"/>
  <path class="st1" d="M364.9,132.5h-150.8l-12.5,69.8,136.1.2c67,0,86.8,24.3,86.2,64.6-.3,20.7-9.2,55.7-13.1,67-10.3,30.2-31.5,64.7-111,64.6h-132.2c0,0-12.5,69.8-12.5,69.8h150.4c53.1,0,75.6-6.2,99.5-17.2,53-24.5,84.5-76.8,97.1-145,18.8-101.6-4.6-173.9-137.1-173.9"/>
  <path class="st1" d="M149.1,265.4c-39.5,0-45.2,25.7-48.9,41.3-4.9,20.4-6.5,28.6-6.5,28.6h154.3c39.5,0,45.2-25.7,48.9-41.3,4.9-20.4,6.5-28.6,6.5-28.6h-154.3Z"/>
  <metadata>
    <sfw xmlns="http://ns.adobe.com/SaveForWeb/1.0/">
      <slices/>
      <sliceSourceBounds x="-971.7" y="-8228.72" width="5853.97" height="3446.46" bottomLeftOrigin="true"/>
    </sfw>
  </metadata>
</svg>