<?xml version="1.0" encoding="UTF-8"?>
<svg id="Capa_1" xmlns="http://www.w3.org/2000/svg" version="1.1" viewBox="0 0 600 600">
  <!-- Generator: Adobe Illustrator 30.3.0, SVG Export Plug-In . SVG Version: 2.1.3 Build 182)  -->
  <defs>
    <style>
      .st0 {
        fill: #fff;
      }

      .st1 {
        fill: #162f29;
      }
    </style>
  </defs>
  <path class="st1" d="M300.6.5h0c165.6,0,299.9,134.3,299.9,299.9h0c0,165.6-134.3,299.9-299.9,299.9h0C135,600.4.7,466.1.7,300.4h0C.7,134.8,135,.5,300.6.5Z"/>
  <path class="st0" d="M530.2,301.7c0,2.3,0,4.7,0,7h-111.7v-5.1h-107.5c0-1.1,0-2.1,0-3.2s0-2.1,0-3.2h107.5v-5.1h111.6c.1,3.2.2,6.3.2,9.5ZM309.1,278.8l105.2-12.9.6,5.1,111.1-13.7c-1.1-5.5-2.3-10.8-3.8-16.1l-109.4,13.5.6,5.1-105.7,13c.5,2.1.9,4.1,1.3,6.2h0ZM303.6,258.4l100.5-25.1,1.2,4.9,106.7-26.6c-2.2-5.2-4.6-10.2-7.1-15.2l-103.6,25.9,1.2,4.9-101.4,25.3c.8,2,1.6,3.9,2.3,5.9h0ZM294.7,239.3l94-35.5,1.8,4.8,99.4-37.6c-3.2-4.7-6.6-9.3-10.2-13.8l-95.1,35.9,1.8,4.8-95.1,35.9c1.2,1.8,2.3,3.6,3.4,5.5ZM282.3,221.7l83-43.3,2.3,4.5,91.8-47.9c-4.2-4.1-8.6-8-13.1-11.7l-86.3,45,2.3,4.5-84.4,44c1.5,1.6,2.9,3.2,4.3,4.9h0ZM262.3,202.7l75.2-47.8,2.7,4.3,83-52.8c-5.2-3.3-10.5-6.4-16-9.3l-75.7,48.2,2.7,4.3-77.3,49.2c1.9,1.3,3.7,2.6,5.6,4h0ZM244.5,191.6l63-51.7,3.2,3.9,70.9-58.2c-6-2.3-12.2-4.4-18.5-6.2l-62.9,51.6,3.2,3.9-65.3,53.5c2.1.9,4.2,1.9,6.3,3ZM221,182.4l49.8-49.5,3.6,3.6,63.2-62.8c-6.9-1.1-13.8-2-20.9-2.5l-53.9,53.6,3.6,3.6-52.6,52.3c2.4.5,4.8,1.1,7.2,1.7ZM193.5,178.3l39.7-48.1,3.9,3.2,51.7-62.6c-7.9.4-15.6,1.1-23.2,2.3l-41.1,49.9,3.9,3.2-43,52.1c1.2,0,2.4,0,3.6,0s3,0,4.5,0h0ZM169.7,179.7l30.6-47.3,4.3,2.8,37-57.2c-8.4,2.2-16.7,4.9-24.7,7.9l-26,40.3,4.3,2.8-33.9,52.4c2.8-.7,5.7-1.2,8.6-1.7h0ZM143.3,187.1l22-41.2,4.5,2.4,29.1-54.5c-9.3,4.6-18.3,9.7-26.9,15.4l-16.7,31.3,4.5,2.4-25.9,48.5c3.1-1.6,6.2-3,9.4-4.3h0ZM124.4,196.7l9.3-26.5,4.8,1.7,18.2-51.6c-9.2,7.3-17.9,15.3-25.9,23.9l-7.8,22.2,4.8,1.7-12.2,34.7c2.9-2.2,5.8-4.2,8.8-6.1h0ZM101,215.7l4.1-19.3,5,1.1,8.3-38.8c-8.7,11.1-16.5,23-23.1,35.7l3.7.8-7.6,31.9c3-4,6.2-7.7,9.6-11.3ZM83.9,238.3v-25.5c-6.2,16.3-10.6,36.7-12.9,56.6,2.9-11,7.3-21.5,12.9-31ZM71.1,332.2c2.4,17,6.7,33.4,12.6,49v-18.9c-5.5-9.3-9.7-19.4-12.6-30.1ZM92.2,374.9l6.6,30.9-3.7.8c6.6,12.6,14.4,24.5,23.1,35.7l-8.3-38.8-5,1.1-4.2-19.5c-3-3.2-5.9-6.5-8.6-10h0ZM115.3,397.9l12.3,34.9-4.8,1.7,7.8,22.2c8,8.6,16.7,16.6,25.9,23.9l-18.2-51.6-4.8,1.7-9.4-26.7c-3-1.9-6-4-8.8-6.1h0ZM133.6,409.4l25.9,48.6-4.5,2.4,16.7,31.3c8.6,5.7,17.6,10.9,26.9,15.4l-29.1-54.5-4.5,2.4-22.1-41.3c-3.2-1.3-6.4-2.8-9.5-4.3h0ZM161,419.5l33.9,52.5-4.3,2.8,26,40.3c8,3.1,16.3,5.8,24.7,8l-37-57.2-4.3,2.8-30.6-47.4c-2.9-.5-5.8-1-8.6-1.7h0ZM185.2,422.6l43,52.1-3.9,3.2,41.1,49.9c7.6,1.1,15.4,1.9,23.2,2.3l-51.7-62.6-3.9,3.2-39.7-48.1c-1.4,0-2.9,0-4.4,0s-2.6,0-3.8,0h0ZM213.7,420.2l52.5,52.3-3.6,3.6,53.9,53.6c7.1-.5,14-1.4,20.9-2.5l-63.2-62.9-3.6,3.6-49.7-49.5c-2.4.6-4.8,1.2-7.2,1.7ZM238.1,412.4l65.2,53.5-3.2,3.9,62.9,51.6c6.3-1.8,12.4-3.9,18.5-6.2l-71-58.2-3.2,3.9-62.9-51.6c-2.1,1.1-4.2,2.1-6.3,3h0ZM256.6,402.2l77.2,49.1-2.7,4.3,75.7,48.2c5.5-2.9,10.8-6,16-9.3l-83-52.8-2.7,4.3-75.1-47.7c-1.8,1.4-3.7,2.7-5.6,4h0ZM277.9,384.1l84.3,43.9-2.3,4.5,86.3,45c4.5-3.8,8.9-7.7,13.1-11.7l-91.8-47.9-2.3,4.5-82.9-43.2c-1.4,1.7-2.8,3.3-4.3,4.9h0ZM291.3,367.1l95,35.9-1.8,4.8,95.1,35.9c3.6-4.5,7-9,10.2-13.8l-99.4-37.6-1.8,4.8-93.9-35.5c-1.1,1.9-2.2,3.7-3.4,5.5ZM301.2,348.4l101.2,25.3-1.2,4.9,103.6,25.9c2.6-5,4.9-10,7.1-15.2l-106.7-26.6-1.2,4.9-100.4-25.1c-.7,2-1.5,4-2.3,5.9ZM307.8,328.4l105.5,13-.6,5.1,109.4,13.5c1.4-5.3,2.7-10.7,3.8-16.1l-111.1-13.7-.6,5.1-105-12.9c-.4,2.1-.8,4.2-1.3,6.2h0Z"/>
  <metadata>
    <sfw xmlns="http://ns.adobe.com/SaveForWeb/1.0/">
      <slices/>
      <sliceSourceBounds x="-971.7" y="-8228.72" width="5853.97" height="3446.46" bottomLeftOrigin="true"/>
    </sfw>
  </metadata>
</svg>