<?xml version="1.0" encoding="UTF-8"?>
<svg id="Capa_1" xmlns="http://www.w3.org/2000/svg" version="1.1" viewBox="0 0 600 600">
  <!-- Generator: Adobe Illustrator 30.3.0, SVG Export Plug-In . SVG Version: 2.1.3 Build 182)  -->
  <defs>
    <style>
      .st0 {
        fill: #d3e8a2;
      }

      .st1 {
        fill: #1d1e23;
      }
    </style>
  </defs>
  <circle class="st1" cx="300.3" cy="300.3" r="300.1"/>
  <path class="st0" d="M300.3,139.5c14.4,0,27.3,8,33.7,20.8l105.9,211.9c5.9,11.8,5.3,25.5-1.6,36.6-6.9,11.2-18.9,17.9-32,17.9h-211.9c-13.1,0-25.1-6.7-32-17.9-6.9-11.2-7.5-24.9-1.7-36.6l105.9-211.9c6.4-12.8,19.3-20.8,33.7-20.8M300.3,113.6c-24.1,0-46.1,13.6-56.8,35.1l-105.9,211.9c-9.9,19.7-8.8,43.1,2.8,61.8,11.6,18.7,32,30.1,54.1,30.1h211.9c22,0,42.5-11.4,54.1-30.1,11.6-18.7,12.6-42.1,2.8-61.8l-105.9-211.9c-10.8-21.5-32.8-35.1-56.8-35.1h0Z"/>
  <metadata>
    <sfw xmlns="http://ns.adobe.com/SaveForWeb/1.0/">
      <slices/>
      <sliceSourceBounds x="-971.7" y="-8228.72" width="5853.97" height="3446.46" bottomLeftOrigin="true"/>
    </sfw>
  </metadata>
</svg>