<?xml version="1.0" encoding="UTF-8"?>
<svg id="Capa_1" xmlns="http://www.w3.org/2000/svg" version="1.1" viewBox="0 0 600 600">
  <!-- Generator: Adobe Illustrator 30.3.0, SVG Export Plug-In . SVG Version: 2.1.3 Build 182)  -->
  <defs>
    <style>
      .st0 {
        fill: #814625;
      }

      .st1 {
        fill: #fff;
      }
    </style>
  </defs>
  <circle class="st0" cx="300.2" cy="300.3" r="300"/>
  <path class="st1" d="M289,285.1c-.3-1-.6-2-.7-3.1,0-.5-.2-1-.3-1.4-.2-1-.5-2-.8-3.1h0c4.7-6.8,27-42.4,1.6-65.2-28.2-25.3-61.2,7.9-61.2,7.9h.1c-14.8-4.2-30.9-4.7-46.6,0h0c-.2-.2-33.1-33.1-61.2-7.9-28.2,25.3,2.2,66.2,2.4,66.4h0c-.3,1-.6,1.9-.8,2.9-3,17.5-23.8,22.9-23.8,53.4s21.7,55.6,66,55.6h18.2c0,.1,7.6,10.3,22.9,10.3,14.3,0,23.7-10.2,23.8-10.3h17.3c44.3,0,66-24.5,66-55.6s-18-35-22.9-49.9h0Z"/>
  <path class="st1" d="M500.7,250.2s3.3-29.4-21.7-35.7v-11.8h-19.4v11.5c-26.4,5.6-23,36-23,36v5s-3.4,30.4,23,36h0v25.2c-27.8,4.9-24.3,36.2-24.3,36.2v5s-3.4,30.4,23,36v11.5h19.4v-11.8c25-6.3,21.7-35.7,21.7-35.7,1.1,0,2-.9,2-1.9v-1.2c0-1.1-.9-1.9-2-1.9,0,0,3.3-29.1-21.4-35.6v-25.9h-.3c26.4-5.6,23-36,23-36,1.1,0,2-.9,2-1.9v-1.2c0-1.1-.9-1.9-2-1.9h0ZM484.9,352.7h-1.8c-1.1,0-2,.9-2,1.9v1.2c0,1.1.9,1.9,2,1.9h1.8c0,18.2-6.3,21.3-8.4,21.8-.3,0-.7-.2-.7-.5v-5.8c0-3.2-2.1-5-4.2-5.9-2.7-1.2-5.8-1.2-8.5,0-2.1,1-4.2,2.7-4.2,5.9v5.8c0,.3-.3.6-.7.5-2.1-.5-8.4-3.5-8.4-21.8v-5c0-18.2,6.3-21.3,8.4-21.8.3,0,.7.2.7.5v5.8c0,3.2,2.1,5,4.2,5.9,2.7,1.2,5.8,1.2,8.5,0,2.1-1,4.2-2.7,4.2-5.9v-5.8c0-.3.3-.6.7-.5,2.1.5,8.4,3.6,8.4,21.8ZM484.5,255.3h1.8c0,18.3-6.3,21.3-8.4,21.8-.3,0-.7-.2-.7-.5v-5.8c0-3.2-2.1-5-4.2-5.9-2.7-1.2-5.8-1.2-8.5,0-2.1,1-4.2,2.7-4.2,5.9v5.8c0,.3-.3.6-.7.5-2.1-.5-8.4-3.6-8.4-21.8v-5c0-18.3,6.3-21.3,8.4-21.8.3,0,.7.2.7.5v5.8c0,3.2,2.1,5,4.2,5.9,2.7,1.2,5.8,1.2,8.5,0,2.1-1,4.2-2.7,4.2-5.9v-5.8c0-.3.3-.6.7-.5,2.1.5,8.4,3.6,8.4,21.8h-1.8c-1.1,0-2,.9-2,1.9v1.2c0,1.1.9,1.9,2,1.9Z"/>
  <path class="st1" d="M403.7,302.1s3.4-30.5-23.2-36v-27.4c26-5.9,22.6-35.9,22.6-35.9,0,0-14.6,0-14.5,0,0,18.3-6.3,21.3-8.4,21.8-.3,0-.7-.2-.7-.5v-5.8c0-3.2-2.1-5-4.2-5.9-2.7-1.2-5.8-1.2-8.5,0-2.1,1-4.2,2.7-4.2,5.9v5.8c0,.3-.3.6-.7.5-2.1-.5-8.4-3.6-8.4-21.8,0,0-14.5,0-14.5,0,0,0-3.5,31.2,24.1,36.2v27.1c-26.9,5.4-23.4,36.1-23.4,36.1v5s-3.4,30.7,23.4,36.1v25.8c-27.6,5-24.1,36.2-24.1,36.2,0,0,14.6,0,14.5,0,0-18.3,6.3-21.3,8.4-21.8.3,0,.7.2.7.5v5.8c0,3.2,2.1,5,4.2,5.9,2.7,1.2,5.8,1.2,8.5,0,2.1-1,4.2-2.7,4.2-5.9v-5.8c0-.3.3-.6.7-.5,2.1.5,8.4,3.6,8.4,21.8,0,0,14.5,0,14.5,0,0,0,3.4-30-22.6-35.9v-26.2c26.7-5.5,23.2-36,23.2-36,1.1,0,2-.9,2-1.9v-1.2c0-1.1-.9-1.9-2-1.9h0ZM387.4,307.2h1.8c0,18.3-6.3,21.3-8.4,21.8-.3,0-.7-.2-.7-.5v-5.8c0-3.2-2.1-5-4.2-5.9-2.7-1.2-5.8-1.2-8.5,0-2.1,1-4.2,2.7-4.2,5.9v5.8c0,.3-.3.6-.7.5-2.1-.5-8.4-3.6-8.4-21.8v-5c0-18.3,6.3-21.3,8.4-21.8.3,0,.7.2.7.5v5.8c0,3.2,2.1,5,4.2,5.9,2.7,1.2,5.8,1.2,8.5,0,2.1-1,4.2-2.7,4.2-5.9v-5.8c0-.3.3-.6.7-.5,2.1.5,8.4,3.6,8.4,21.8h-1.8c-1.1,0-2,.9-2,1.9v1.2c0,1.1.9,1.9,2,1.9Z"/>
  <metadata>
    <sfw xmlns="http://ns.adobe.com/SaveForWeb/1.0/">
      <slices/>
      <sliceSourceBounds x="-971.7" y="-8228.72" width="5853.97" height="3446.46" bottomLeftOrigin="true"/>
    </sfw>
  </metadata>
</svg>